<?xml version="1.0" encoding="utf-8"?>
<!-- Generator: Adobe Illustrator 24.0.2, SVG Export Plug-In . SVG Version: 6.00 Build 0)  -->
<svg version="1.1" id="Layer_1" xmlns="http://www.w3.org/2000/svg" xmlns:xlink="http://www.w3.org/1999/xlink" x="0px" y="0px"
	 viewBox="0 0 366.3 380.4" style="enable-background:new 0 0 366.3 380.4;" xml:space="preserve">
<style type="text/css">
	.st0{fill:#E5F6FF;}
	.st1{fill:#D39A5B;}
	.st2{fill:#E8B374;}
	.st3{fill:#494949;}
	.st4{fill:#EFEFEF;}
	.st5{fill:#FDC33D;}
	.st6{opacity:0.15;fill:#231F20;enable-background:new    ;}
	.st7{fill:#FFD454;}
	.st8{fill:#FFEAA9;}
	.st9{fill:#F8BD36;}
	.st10{fill:#804F31;}
	.st11{fill:#71452C;}
	.st12{fill:#F4F4F4;}
</style>
<g id="Group_728" transform="translate(-1007.301 -3309.495)">
	<path id="Path_1305" class="st0" d="M1190.4,3323.6c-101.1,0-183.1,82-183.1,183.1c0,101.1,82,183.1,183.1,183.2
		s183.1-82,183.2-183.1c0,0,0,0,0,0C1373.6,3405.6,1291.6,3323.6,1190.4,3323.6z"/>
	<g id="Group_722" transform="translate(1029.025 3309.495)">
		<path id="Path_1306" class="st1" d="M148.5,194.5c3.7,1.6,6.7,4.6,9.4,7.6c10.4,11.5,19.1,24.4,25.8,38.4
			c-14.3,3.7-24.3,17.7-39.1,19.6c-3.3,0.4-6.9,0.1-9.6-1.9c-1.8-1.5-3.3-3.3-4.5-5.3c-3.5-5.5-6.7-11.1-9.6-16.9
			c-2.6-4.7-4.6-9.7-6-14.9c-1.4-5.1-1.4-10.5,0.1-15.6c1.5-4.6,5.5-10.1,10.5-11.2c1.3-0.1,2.5-0.2,3.8-0.2
			c1.2-0.1,2.4-0.2,3.7-0.4c2.5-0.3,4.9-0.5,7.4-0.6C143.2,193,146,193.4,148.5,194.5z"/>
		<path id="Path_1307" class="st2" d="M141.4,268.1c-5.9-1.2-14.8-2.7-17.5-4.5c7-2.8,13.5-4.5,20.2-8c4.8-2.4,9.7-2.9,13-7.1
			s6.9-8.6,11.9-10.4c-4.6-8.5-9-17.9-13.9-26.3l20.8-15.3c0.9,1,2.3,2.3,3.2,3.3c7.6,8,10.4,19.3,14.7,29.4
			c5.9,14.1,14.8,26.6,26,36.9c4.4,4,8,9.4,12.4,13.3c-12.7,11.3-25.8,22.2-39.3,32.6c-6.8-9.2-14.2-18-22-26.3
			c-3.9-4.2-8.1-8.4-12.9-11.6S147.1,269.2,141.4,268.1z"/>
		<path id="Path_1308" class="st3" d="M284.8,333.3c-14.8,13.1-31.7,23.7-49.9,31.5L172.7,293l44.1-38.2l0.7,0.8L284.8,333.3z"/>
		<path id="Path_1309" class="st4" d="M169.7,287.9c-1.9,1.6-2.9,3.4-2.4,4l3.4,3.9c0.5,0.6,2.4-0.2,4.3-1.8l41-35.5
			c1.9-1.6,2.9-3.4,2.4-4l-3.4-3.9c-0.5-0.6-2.4,0.2-4.3,1.8L169.7,287.9z"/>
		<path id="Path_1310" class="st5" d="M201.1,36.7c0,0,16.9,67-37.1,104.9c-4.8,3.4-9.9,6.3-15.2,8.9l-2.1-16
			c0,0,11.8-3.2,23.2-14.2c12.6-12.2,24.9-33.8,20.6-71.2c0,0-0.7-8-10.4-6.1l-21.4,5.6l-3.5-11.8l34.5-9
			C189.7,27.9,198.8,27.8,201.1,36.7z"/>
		<path id="Path_1311" class="st6" d="M146.7,134.6c0,0,11.8-3.2,23.2-14.2c-1.2,7.3-3.2,14.4-5.9,21.3c-4.8,3.4-9.9,6.3-15.2,8.9
			L146.7,134.6z"/>
		<path id="Path_1312" class="st6" d="M166.8,33.9c0.7,3.6,1.4,7.7,2.1,12.1l-10.2,2.6l-3.5-11.8L166.8,33.9z"/>
		<path id="Path_1313" class="st5" d="M101.6,162.9c-7.4,0.5-14.9,0.1-22.2-1C17.5,152.6,0.4,89,0.4,89C-1.9,80.1,6,75.7,6,75.7
			l34.5-9l2.7,12l-21.4,5.6c-9.4,3.1-6.1,10.4-6.1,10.4c13.2,31.5,31.9,45.1,48,50.6c17.6,6.1,31.9,2.6,31.9,2.6L101.6,162.9z"/>
		<path id="Path_1314" class="st6" d="M40.6,66.7l2.7,12l-13.1,3.4c-1.6-4.2-2.9-8.1-4.1-11.6L40.6,66.7z"/>
		<path id="Path_1315" class="st6" d="M101.6,162.9c-7.4,0.5-14.9,0.1-22.2-1c-5.8-5-11-10.6-15.7-16.6c17.6,6.1,31.9,2.6,31.9,2.6
			L101.6,162.9z"/>
		<path id="Path_1316" class="st7" d="M140.8,169.5l-1.7,2.4c-2.1,3-5.2,5.1-8.7,5.9l-2.2,0.5c-3.1,0.7-6.3,0.4-9.2-0.9l-3-1.4
			C54.5,162.8,26.9,50.2,26.9,50.2C25,42.9,33,38.7,33,38.7L146.2,9.2c0,0,9.1-0.3,11,7C157.2,16.2,188,128,140.8,169.5z"/>
		<path id="Path_1317" class="st8" d="M144.1,121.4c-1.5-6.9-3.3-8.1-10.2-6.2c6.8-1.9,8-3.9,6.6-10.8c1.5,6.9,3.3,8.1,10.2,6.2
			C143.8,112.5,142.6,114.5,144.1,121.4z"/>
		<path id="Path_1318" class="st8" d="M136.3,125.4c-0.6-2.9-1.4-3.3-4.2-2.5c2.8-0.8,3.3-1.6,2.7-4.5c0.6,2.9,1.4,3.3,4.2,2.5
			C136.2,121.7,135.7,122.5,136.3,125.4z"/>
		<path id="Path_1319" class="st9" d="M158.3,26.3L30.8,59.5c-4.3,1.1-8.7-1.5-9.9-5.8l-2.7-10.4c-1.1-4.3,1.5-8.7,5.8-9.9
			L151.5,0.3c4.3-1.1,8.7,1.5,9.9,5.8l2.7,10.4C165.2,20.8,162.6,25.2,158.3,26.3z"/>
		
			<rect id="Rectangle_15" x="135.3" y="162.6" transform="matrix(0.9677 -0.2519 0.2519 0.9677 -54.1484 43.8454)" class="st7" width="17.6" height="141.5"/>
		
			<rect id="Rectangle_16" x="106.3" y="274.7" transform="matrix(0.9677 -0.2521 0.2521 0.9677 -71.5488 50.8594)" class="st10" width="112.9" height="60.1"/>
		
			<rect id="Rectangle_17" x="105" y="324.3" transform="matrix(0.9677 -0.2521 0.2521 0.9677 -77.4921 53.2485)" class="st11" width="128.1" height="9.7"/>
		
			<rect id="Rectangle_18" x="126.8" y="287.7" transform="matrix(0.9677 -0.2519 0.2519 0.9677 -70.8976 50.581)" class="st8" width="70.6" height="28.8"/>
		
			<rect id="Rectangle_19" x="126" y="268.8" transform="matrix(0.9677 -0.2521 0.2521 0.9677 -63.656 47.6773)" class="st9" width="56.5" height="6.9"/>
		<path id="Path_1320" class="st7" d="M135.9,236.6c0,0,11.1,34.1-6.9,38.7l24.4-6.4l-9-34.6L135.9,236.6z"/>
		<path id="Path_1321" class="st7" d="M152.9,232.1c0,0,7,35.1,24.9,30.4l-24.4,6.4l-9-34.6L152.9,232.1z"/>
		<path id="Path_1322" class="st8" d="M148.1,9.5c-5.8,6.1-5.7,8.7,0.3,14.5c-6-5.8-8.7-5.7-14.5,0.3c5.8-6.1,5.7-8.7-0.3-14.5
			C139.6,15.6,142.3,15.6,148.1,9.5z"/>
		<path id="Path_1323" class="st8" d="M126.1,12.1c1.1,3.3,2.1,3.8,5.4,2.7c-3.3,1.1-3.8,2-2.7,5.4c-1.1-3.3-2.1-3.8-5.4-2.7
			C126.6,16.4,127.1,15.4,126.1,12.1z"/>
		<path id="Path_1324" class="st8" d="M70.8,49.1c0,0,1.8,97.5,64.9,125.4c0,0-54.3-10.6-77.7-79.1c0,0-7.7-23.9-7.6-41L70.8,49.1z"
			/>
		<path id="Path_1325" class="st2" d="M131.5,202.8l-0.1-0.7c-0.6-4.1-4.4-7-8.5-6.4l-25.1,3.6c-4.1,0.6-7,4.4-6.4,8.5l0.1,0.7
			c0.6,4.1,4.4,7,8.5,6.4l25.1-3.6C129.3,210.7,132.1,206.9,131.5,202.8z"/>
		<path id="Path_1326" class="st2" d="M141.4,216.4L141.4,216.4c-1-4.3-5.3-6.9-9.5-5.9l-29.3,6.9c-4.3,1-6.9,5.3-5.9,9.5l0,0
			c1,4.3,5.3,6.9,9.5,5.9l29.3-6.9C139.7,224.9,142.4,220.7,141.4,216.4z"/>
		<path id="Path_1327" class="st2" d="M148.4,231.1l-0.3-0.8c-1.4-3.9-5.7-5.9-9.6-4.5l-28.2,10.2c-3.9,1.4-5.9,5.7-4.5,9.6l0.3,0.8
			c1.4,3.9,5.7,5.9,9.6,4.5l28.2-10.2C147.8,239.3,149.8,235,148.4,231.1z"/>
		<path id="Path_1328" class="st2" d="M150.4,247.8l-0.3-0.9c-1.2-3.2-4.7-4.8-7.8-3.7l-21.8,7.9c-3.2,1.2-4.8,4.7-3.7,7.8l0.3,0.9
			c1.2,3.2,4.7,4.8,7.8,3.7l21.8-7.9C149.9,254.5,151.6,251,150.4,247.8z"/>
		<path id="Path_1329" class="st12" d="M120.1,208.3l-1.2-8c-0.1-0.7,0.4-1.3,1-1.4c0,0,0,0,0,0l4.4-0.6c0,0,3.5-0.2,4.7,4.1
			c0.5,2.2-0.3,4.4-2.1,5.8c-1.3,0.6-2.7,0.9-4.1,1l-1.4,0.2C120.9,209.4,120.2,209,120.1,208.3
			C120.1,208.3,120.1,208.3,120.1,208.3z"/>
		<path id="Path_1330" class="st12" d="M130.2,222.6l-1.6-8c-0.1-0.7,0.3-1.3,1-1.5c0,0,0,0,0,0l4.4-0.8c0,0,3.5-0.4,5,3.8
			c0.6,2.2-0.1,4.5-1.8,5.9c-1.2,0.7-2.6,1.1-4,1.2l-1.4,0.3C131,223.7,130.3,223.2,130.2,222.6
			C130.2,222.6,130.2,222.6,130.2,222.6z"/>
		<path id="Path_1331" class="st12" d="M138.5,239.5l-2.9-7.6c-0.2-0.6,0.1-1.4,0.7-1.6c0,0,0,0,0,0l4.2-1.5c0,0,3.4-1,5.5,2.9
			c0.9,2,0.6,4.4-0.8,6.1c-1.1,0.9-2.4,1.5-3.8,1.8l-1.3,0.5C139.4,240.5,138.7,240.2,138.5,239.5
			C138.5,239.5,138.5,239.5,138.5,239.5z"/>
		<path id="Path_1332" class="st12" d="M140.4,255.1l-2.6-6.6c-0.2-0.6,0.1-1.2,0.6-1.4c0,0,0,0,0,0l3.7-1.3c0,0,3-0.9,4.8,2.6
			c0.8,1.8,0.5,3.9-0.7,5.4c-1,0.8-2.1,1.3-3.3,1.6l-1.2,0.5C141.2,255.9,140.6,255.6,140.4,255.1z"/>
		<path id="Path_1333" class="st2" d="M152.6,207.5c-1.7-2.9-3.7-5.7-5.9-8.2c-2.2-2.6-5.1-4.5-8.3-5.6c-2.5-0.7-5.1-0.8-7.6-1.3
			c-9.2-2.1-16-9.6-17.2-19c-0.1-1.1-0.1-2.4,0.8-3c0.8-0.4,1.7-0.5,2.6-0.2c5.8,1.2,11.4,3.8,17.3,4.5c4.1,0.5,8.3,0.1,12.3,1
			c4.5,1,8.4,3.5,12.2,6.1c6.3,4.4,12.2,9.5,17.6,15.1l-20.9,15.3C154.6,210.6,153.6,209,152.6,207.5z"/>
		<path id="Path_1334" class="st12" d="M125.7,174l-1.3,4.8c-0.1,0.4-0.8,0.5-1.5,0.2l-4.7-1.9c0,0-3.7-1.6-3.6-4.5c0,0,0.3-2.4,4-2
			c1.5,0.3,3.1,0.8,4.5,1.5l1.5,0.6C125.4,173,125.9,173.6,125.7,174z"/>
	</g>
</g>
</svg>
