<?xml version="1.0" encoding="utf-8"?>
<!-- Generator: Adobe Illustrator 24.0.2, SVG Export Plug-In . SVG Version: 6.00 Build 0)  -->
<svg version="1.1" id="Group_229" xmlns="http://www.w3.org/2000/svg" xmlns:xlink="http://www.w3.org/1999/xlink" x="0px" y="0px"
	 viewBox="0 0 366.3 366.3" style="enable-background:new 0 0 366.3 366.3;" xml:space="preserve">
<style type="text/css">
	.st0{fill:#E5F6FF;}
	.st1{fill:#E2574C;}
	.st2{fill:#E4E7E7;}
	.st3{fill:#324D5B;}
	.st4{fill:#F5F5F5;}
	.st5{fill:#CCD0D2;}
	.st6{fill:#DE6E65;}
	.st7{fill:#AEB2B4;}
	.st8{fill:#D96860;}
	.st9{fill:#B7BBBD;}
</style>
<g id="iconfinder_watch_291047_1_" transform="translate(0 0)">
	<path id="Path_849" class="st0" d="M183.1,0C82,0,0,82,0,183.1c0,101.1,82,183.1,183.1,183.2s183.1-82,183.2-183.1c0,0,0,0,0,0
		C366.3,82,284.3,0,183.1,0z"/>
	<path id="Path_850" class="st1" d="M128.1,357.8c12,3.7,24.4,6.3,36.9,7.5V0.9c-12.5,1.2-24.9,3.7-36.9,7.5V357.8z"/>
	<path id="Path_851" class="st2" d="M201.6,0.9C195.5,0.3,189.4,0,183.1,0c-6.2,0-12.4,0.3-18.4,0.9v364.4
		c6.1,0.6,12.2,0.9,18.4,0.9c6.2,0,12.4-0.3,18.4-0.9C201.6,365.3,201.6,0.9,201.6,0.9z"/>
	<path id="Path_852" class="st3" d="M201.3,0.9v364.4c12.5-1.2,24.9-3.7,36.9-7.5V8.4C226.2,4.7,213.8,2.2,201.3,0.9z"/>
	<path id="Path_853" class="st4" d="M281.5,183.1c0-26.3-10.5-51.4-29.1-69.9V88.4c0-4-3.3-7.3-7.3-7.3h-3.6c-2,0-3.6,1.6-3.6,3.6
		c0,0,0,0,0,0v16.6c-33.1-22.1-76.2-22.1-109.3,0V84.8c0-2-1.6-3.6-3.6-3.6h-3.6c-4,0-7.3,3.3-7.3,7.3v24.8
		c-38.6,38.2-38.9,100.5-0.6,139.1c0.2,0.2,0.4,0.4,0.6,0.6v24.9c-0.1,4,3.1,7.2,7.1,7.3c0.1,0,0.2,0,0.2,0h3.6c2,0,3.6-1.6,3.6-3.6
		c0,0,0,0,0,0v-16.6c33.1,22.1,76.2,22.1,109.3,0v16.6c0,2,1.6,3.6,3.6,3.6c0,0,0,0,0,0h3.6c4,0.1,7.2-3.1,7.3-7.1
		c0-0.1,0-0.1,0-0.2V253C271,234.5,281.5,209.4,281.5,183.1z"/>
	<path id="Path_854" class="st5" d="M183.1,98.3c46.8,0,84.8,38,84.8,84.8s-38,84.8-84.8,84.8s-84.8-38-84.8-84.8c0,0,0,0,0,0
		C98.3,136.3,136.3,98.3,183.1,98.3C183.1,98.3,183.1,98.3,183.1,98.3z"/>
	<path id="Path_855" class="st6" d="M199.1,161.9l-58.9,58.9c-1.4,1.5-1.4,3.8,0,5.3c1.4,1.4,3.8,1.4,5.2,0l58.9-58.9
		c1.5-1.5,1.5-3.8,0-5.3S200.5,160.5,199.1,161.9z"/>
	<path id="Path_856" class="st7" d="M183.2,197.9c-8.1,0-14.7-6.6-14.8-14.7c0-3,0.9-6,2.7-8.5c-6.7,4.6-8.4,13.8-3.7,20.5
		c4.6,6.7,13.8,8.4,20.5,3.7c1.5-1,2.7-2.3,3.7-3.7C189.1,196.9,186.2,197.9,183.2,197.9z"/>
	<path id="Path_857" class="st3" d="M183,179.6h59c2,0,3.7,1.6,3.7,3.7c0,2-1.6,3.7-3.7,3.7l0,0h-59c-2,0-3.7-1.6-3.7-3.7
		C179.3,181.2,181,179.6,183,179.6z M157.9,148.4l30.4,30.4c2.6,2.8,2.5,7.1-0.2,9.8c-2.7,2.5-6.8,2.5-9.5,0l-30.4-30.4
		c-2.8-2.6-2.9-7-0.3-9.8c2.6-2.8,7-2.9,9.8-0.3C157.7,148.2,157.8,148.3,157.9,148.4L157.9,148.4z"/>
	<path id="Path_858" class="st2" d="M183.1,168.4c8.2,0,14.8,6.6,14.8,14.8c0,8.2-6.6,14.8-14.8,14.8c-8.2,0-14.8-6.6-14.8-14.8
		C168.4,175,175,168.4,183.1,168.4L183.1,168.4z"/>
	<path id="Path_859" class="st3" d="M183.1,175.8c4.1,0,7.4,3.3,7.4,7.4c0,4.1-3.3,7.4-7.4,7.4c-4.1,0-7.4-3.3-7.4-7.4c0,0,0,0,0,0
		C175.8,179.1,179.1,175.8,183.1,175.8z"/>
	<path id="Path_860" class="st8" d="M170.5,190.5l-3.7,3.7c1.3,2.2,3.1,4,5.3,5.3l3.7-3.7C173.6,194.5,171.8,192.7,170.5,190.5z"/>
	<path id="Path_861" class="st9" d="M183,98.5c-23.4,0-45.8,9.7-61.8,26.7c34.1-32.1,87.8-30.4,119.8,3.7
		c30.7,32.6,30.7,83.5,0,116.2c34.1-32.1,35.8-85.7,3.7-119.8C228.8,108.1,206.4,98.5,183,98.5z"/>
</g>
</svg>
