<?xml version="1.0" encoding="utf-8"?>
<!-- Generator: Adobe Illustrator 24.0.2, SVG Export Plug-In . SVG Version: 6.00 Build 0)  -->
<svg version="1.1" id="Layer_1" xmlns="http://www.w3.org/2000/svg" xmlns:xlink="http://www.w3.org/1999/xlink" x="0px" y="0px"
	 viewBox="0 0 366.3 366.3" style="enable-background:new 0 0 366.3 366.3;" xml:space="preserve">
<style type="text/css">
	.st0{fill:#E5F6FF;}
	.st1{fill:#3D5F96;}
	.st2{fill:#5575A6;}
	.st3{fill:#4D4D4F;}
	.st4{fill:#FFFAD1;}
	.st5{fill:#ECE1C7;}
	.st6{fill:#F16C6A;}
	.st7{fill:#C6494C;}
</style>
<path id="Path_1335" class="st0" d="M183.1,0C82,0,0,82,0,183.1c0,101.1,82,183.1,183.1,183.2s183.1-82,183.2-183.1c0,0,0,0,0,0
	C366.3,82,284.3,0,183.1,0z"/>
<g>
	<g>
		<g>
			<g>
				<path class="st1" d="M280,67.2H109.6c-11,0-19.9,8.9-19.9,19.9v170.4c0,11,8.9,19.9,19.9,19.9H280c11,0,19.9-8.9,19.9-19.9V87
					C299.9,76.1,291,67.2,280,67.2z"/>
				<path class="st2" d="M274.6,85.2H114.9c-4,0-7.2,3.2-7.2,7.2v159.7c0,4,3.2,7.2,7.2,7.2h159.7c4,0,7.2-3.2,7.2-7.2V92.4
					C281.8,88.5,278.6,85.2,274.6,85.2z"/>
				<g>
					<polygon class="st3" points="112.2,277.3 117.5,294.2 142.4,294.2 147.5,277.3 					"/>
					<polygon class="st3" points="277.4,277.3 272,294.2 247.2,294.2 242.1,277.3 					"/>
				</g>
				<g>
					<g>
						<path class="st3" d="M284.4,148h-5.2c-2.3,0-4.2-1.9-4.2-4.2v-32.7c0-2.3,1.9-4.2,4.2-4.2h5.2c2.3,0,4.2,1.9,4.2,4.2v32.7
							C288.6,146.1,286.7,148,284.4,148z"/>
					</g>
					<g>
						<g>
							<path class="st3" d="M284.4,237.5h-5.2c-2.3,0-4.2-1.9-4.2-4.2v-32.7c0-2.3,1.9-4.2,4.2-4.2h5.2c2.3,0,4.2,1.9,4.2,4.2v32.7
								C288.6,235.7,286.7,237.5,284.4,237.5z"/>
						</g>
					</g>
				</g>
				<g>
					<circle class="st4" cx="194.8" cy="172.3" r="59"/>
					
						<ellipse transform="matrix(0.2311 -0.9729 0.9729 0.2311 -17.835 321.9597)" class="st3" cx="194.8" cy="172.3" rx="38.1" ry="38.1"/>
					<polygon class="st3" points="194.8,129.2 188.9,119.9 200.7,119.9 					"/>
					<g>
						<g>
							<rect x="193.4" y="141.9" class="st5" width="2.7" height="6.2"/>
						</g>
						<g>
							
								<rect x="177.4" y="147.1" transform="matrix(0.8091 -0.5877 0.5877 0.8091 -54.1511 133.7393)" class="st5" width="2.7" height="6.2"/>
						</g>
						<g>
							
								<rect x="167.5" y="160.8" transform="matrix(0.3091 -0.951 0.951 0.3091 -39.1538 273.7861)" class="st5" width="2.7" height="6.2"/>
						</g>
						<g>
							
								<rect x="165.8" y="179.3" transform="matrix(0.9511 -0.3089 0.3089 0.9511 -47.5571 60.9959)" class="st5" width="6.2" height="2.7"/>
						</g>
						<g>
							
								<rect x="175.7" y="193" transform="matrix(0.5879 -0.8089 0.8089 0.5879 -83.5265 224.6639)" class="st5" width="6.2" height="2.7"/>
						</g>
						<g>
							<rect x="193.4" y="196.4" class="st5" width="2.7" height="6.2"/>
						</g>
						<g>
							
								<rect x="209.5" y="191.2" transform="matrix(0.809 -0.5878 0.5878 0.809 -73.9588 161.0269)" class="st5" width="2.7" height="6.2"/>
						</g>
						<g>
							
								<rect x="219.4" y="177.6" transform="matrix(0.3089 -0.9511 0.9511 0.3089 -19.3278 334.7743)" class="st5" width="2.7" height="6.2"/>
						</g>
						<g>
							
								<rect x="217.6" y="162.5" transform="matrix(0.9511 -0.3089 0.3089 0.9511 -39.8185 76.1929)" class="st5" width="6.2" height="2.7"/>
						</g>
						<g>
							
								<rect x="207.7" y="148.9" transform="matrix(0.588 -0.8089 0.8089 0.588 -34.6477 232.4005)" class="st5" width="6.2" height="2.7"/>
						</g>
					</g>
				</g>
			</g>
		</g>
	</g>
	<g>
		<path class="st6" d="M142.9,215.5c-27.6-1.9-53.1-23.8-53.1-23.8s-25.5,21.9-53.1,23.8c0,0-9.4,82.5,53.1,101
			C152.4,298,142.9,215.5,142.9,215.5z"/>
		<path class="st7" d="M89.8,304.5c-19.7-7-32.8-23-38.7-47.5c-3-12.2-3.5-23.9-3.4-31.5c17.7-3.8,33.4-13.2,42.2-19.4
			c8.8,6.2,24.4,15.7,42.2,19.4c0.1,7.6-0.4,19.3-3.4,31.5C122.6,281.5,109.5,297.4,89.8,304.5z"/>
		<polygon class="st4" points="89.2,281.3 62.6,256.7 68.7,250.1 87.7,267.7 112.1,231.8 119.5,236.8 		"/>
	</g>
</g>
</svg>
