<svg xmlns="http://www.w3.org/2000/svg" width="62.637" height="78.297" viewBox="0 0 62.637 78.297">
  <path id="tags-solid" d="M60.917,27.641,35,1.72A5.872,5.872,0,0,0,30.844,0H5.872A5.872,5.872,0,0,0,0,5.872V30.844A5.872,5.872,0,0,0,1.72,35L27.641,60.917a5.872,5.872,0,0,0,8.3,0L60.917,35.946A5.872,5.872,0,0,0,60.917,27.641ZM13.7,19.574A5.872,5.872,0,1,1,19.574,13.7,5.872,5.872,0,0,1,13.7,19.574ZM76.577,35.946,51.605,60.917a5.872,5.872,0,0,1-8.3,0l-.044-.044L64.551,39.579a11.011,11.011,0,0,0,0-15.571L40.543,0H46.5a5.872,5.872,0,0,1,4.152,1.72L76.577,27.641a5.872,5.872,0,0,1,0,8.3Z" transform="translate(62.637) rotate(90)" fill="#fff"/>
</svg>
