<svg xmlns="http://www.w3.org/2000/svg" width="66.937" height="66.188" viewBox="0 0 66.937 66.188">
  <g id="bitcoincash_bch_bitcoin" data-name="bitcoincash bch bitcoin" transform="translate(12.016 -0.081) rotate(13)">
    <g id="bitcoincash_bch" data-name="bitcoincash bch">
      <ellipse id="Эллипс_5" data-name="Эллипс 5" cx="28" cy="27.5" rx="28" ry="27.5" transform="translate(0.365 -0.001)" fill="#ff9d4d"/>
      <path id="Фигура_1_копия" data-name="Фигура 1 копия" d="M1111.177,381.442c-1.2,3.158-8.282,5.228-8.282,5.228l1.38,5.754-3.646.872-1.388-5.794-2.884.658,1.4,5.826-3.646.872-1.406-5.866-7.307,1.666-.29-4.6s1.329-.166,2.54-.406,1.237-1.614,1.075-2.286-3.3-13.762-3.63-15.153a2.269,2.269,0,0,0-2.422-1.651,26.268,26.268,0,0,0-2.64.835l-.918-3.836,7.1-1.7-1.424-5.946,3.643-.872,1.424,5.946,2.879-.689-1.424-5.946,3.643-.872,1.434,5.981c1.634-.265,4.787-.542,6.735.176,2.335.86,3.884,3.734,4.054,5.924s-2.15,4.571-2.15,4.571,3.643.253,5.193,2.2C1113.363,376.305,1111.714,380.023,1111.177,381.442Zm-20.171-16.464,1.747,7.289a15.013,15.013,0,0,0,5.088-1.624c1.939-1.225,2.766-2.44,2.478-4.042-.305-1.7-2.306-2.7-4.279-2.626A18.736,18.736,0,0,0,1091.007,364.977Zm2.427,10.979,1.886,7.864s5-.943,6.619-1.992,3.476-3.063,2.4-5.239-4.092-2.061-6.106-1.782A37.27,37.27,0,0,0,1093.434,375.956Z" transform="translate(-1067.79 -345.754)" fill="#fff" fill-rule="evenodd"/>
    </g>
  </g>
</svg>
