<svg xmlns="http://www.w3.org/2000/svg" width="62.637" height="71.586" viewBox="0 0 62.637 71.586">
  <path id="briefcase-solid" d="M44.741,74.5A2.236,2.236,0,0,1,42.5,76.741H29.082A2.236,2.236,0,0,1,26.845,74.5V67.793H0V87.926a6.881,6.881,0,0,0,6.711,6.711H64.874a6.881,6.881,0,0,0,6.711-6.711V67.793H44.741ZM64.874,45.422H53.689V38.711A6.881,6.881,0,0,0,46.978,32H24.608A6.881,6.881,0,0,0,17.9,38.711v6.711H6.711A6.881,6.881,0,0,0,0,52.133V63.319H71.586V52.133A6.881,6.881,0,0,0,64.874,45.422Zm-20.133,0h-17.9V40.948h17.9Z" transform="translate(94.637) rotate(90)" fill="#fff"/>
</svg>
