<svg xmlns="http://www.w3.org/2000/svg" width="90.708" height="83.543" viewBox="0 0 90.708 83.543"><path d="M104.9,107.809V107.8c-.518.033-3.183.193-9.117.193-4.743,0-8.081-.134-9.257-.2v.015c-18.254-.809-31.879-3.987-31.879-7.791s13.627-6.978,31.879-7.788v12.412c1.2.082,4.615.284,9.335.284,5.669,0,8.519-.236,9.042-.284V92.233c18.218.811,31.812,3.993,31.812,7.783s-13.6,6.973-31.812,7.785m-.009-16.857V79.829h25.42V62.891H61.091V79.829H86.514V90.936c-20.662.949-36.2,5.041-36.2,9.943s15.543,8.994,36.2,9.948v35.607H104.9v-35.61c20.624-.952,36.128-5.041,36.128-9.939s-15.5-8.986-36.128-9.939" transform="translate(-50.317 -62.891)" fill="#fff" fill-rule="evenodd"/></svg>