<svg xmlns="http://www.w3.org/2000/svg" width="64.151" height="88.742" viewBox="0 0 64.151 88.742"><path d="M90.9,44.374a20.3,20.3,0,0,0-6.933-3.015s3.447-2,4.855-3.995a15.181,15.181,0,0,0,2.233-6.7c.117-1.606.392-8.342-4.857-12.218-4.06-3-8.712-4.19-14.959-4.578V.278H62.861V13.71H56.477V.278H48.1V13.71H31.61v8.7h4.846c1.321,0,3.671.147,4.669,1.264s1.175,1.7,1.175,3.876,0,33.856,0,34.679a3.4,3.4,0,0,1-.862,2.506c-.7.666-1.409.822-3.094.822H33.333L31.61,75.626H48.1V89.02h8.38V75.626h6.383V89.02h8.381V75.405c2.166-.127,4.186-.291,5.365-.445A27.873,27.873,0,0,0,89.453,70.5c5.051-3.525,6.186-9.047,6.3-14.608S93.758,46.528,90.9,44.374ZM56.477,23.188s2.663-.235,5.287-.2a26.665,26.665,0,0,1,8.382,1.175c3.446,1.058,5.481,3.643,5.561,6.7a6.564,6.564,0,0,1-3.6,6.383,20.417,20.417,0,0,1-8.654,2.114c-3.054.118-6.971,0-6.971,0V23.188ZM75.236,63.25a26.606,26.606,0,0,1-9.477,2.271c-3.721.275-9.282.157-9.282.157V47.7s5.326-.273,9.478,0a26.834,26.834,0,0,1,9.2,2.116,7.042,7.042,0,0,1,4.309,6.618C79.466,60.548,77.153,62.193,75.236,63.25Z" transform="translate(-31.61 -0.278)" fill="#fff"/></svg>