<svg xmlns="http://www.w3.org/2000/svg" width="32" height="32" viewBox="0 0 32 32">
  <g id="ico-telegram" transform="translate(-396 -62)">
    <rect id="Rectangle_1" data-name="Rectangle 1" width="32" height="32" rx="4" transform="translate(396 62)" fill="#707070"/>
    <path id="telegram-brands" d="M10.837,8a10.837,10.837,0,0,0,0,21.674,10.983,10.983,0,0,0,5.2-1.327A10.839,10.839,0,0,0,10.837,8Zm5.322,7.424-1.778,8.381c-.131.594-.485.738-.979.459l-2.709-2L9.386,23.525a.684.684,0,0,1-.546.267l.192-2.757L14.053,16.5c.218-.192-.048-.3-.336-.109L7.511,20.3l-2.674-.835c-.581-.184-.594-.581.122-.861l3.222-1.242,7.226-2.786C15.892,14.4,16.316,14.69,16.159,15.424Z" transform="translate(401.163 59)" fill="#fff"/>
  </g>
</svg>
