<svg id="Classic" xmlns="http://www.w3.org/2000/svg" width="58" height="58" viewBox="0 0 58 58">
  <g id="Tether">
    <g id="Group_19" data-name="Group 19">
      <path id="Fill-1" d="M29,0A29,29,0,1,1,0,29,29,29,0,0,1,29,0" fill="#21b386" fill-rule="evenodd"/>
      <path id="Fill-3" d="M71.5,80.323v0c-.2.013-1.235.075-3.538.075-1.841,0-3.136-.052-3.593-.076v.006C57.284,80.011,52,78.777,52,77.3s5.288-2.708,12.372-3.022V79.1c.464.032,1.791.11,3.623.11,2.2,0,3.306-.092,3.509-.11V74.279c7.07.315,12.346,1.55,12.346,3.021S78.567,80.005,71.5,80.321m0-6.542V69.465h9.865V62.891H54.5v6.573h9.866v4.311c-8.018.368-14.048,1.956-14.048,3.859s6.032,3.49,14.048,3.861V95.313H71.5V81.494c8-.369,14.021-1.956,14.021-3.857S79.5,74.149,71.5,73.78" transform="translate(-38.917 -48.643)" fill="#fff" fill-rule="evenodd"/>
    </g>
  </g>
</svg>
