<svg xmlns="http://www.w3.org/2000/svg" xmlns:xlink="http://www.w3.org/1999/xlink" width="697.355" height="700.924" viewBox="0 0 697.355 700.924">
  <defs>
    <linearGradient id="linear-gradient" x1="0.504" y1="1.007" x2="0.504" y2="-0.007" gradientUnits="objectBoundingBox">
      <stop offset="0" stop-color="#9d68c2"/>
      <stop offset="1" stop-color="#ccedff"/>
    </linearGradient>
    <radialGradient id="radial-gradient" cx="0.5" cy="0.5" r="2.247" gradientTransform="translate(0.389 56.879) scale(0.223 0.222)" gradientUnits="objectBoundingBox">
      <stop offset="0" stop-color="#be9dea"/>
      <stop offset="0.388" stop-color="#e0bff5"/>
      <stop offset="1" stop-color="#fff"/>
    </radialGradient>
    <linearGradient id="linear-gradient-2" x1="0.346" y1="0.984" x2="0.532" y2="0.038" gradientUnits="objectBoundingBox">
      <stop offset="0" stop-color="#cbc1f7"/>
      <stop offset="1" stop-color="#e8dcf7"/>
    </linearGradient>
    <linearGradient id="linear-gradient-3" x1="0.321" y1="0.985" x2="0.557" y2="-0.029" xlink:href="#linear-gradient-2"/>
    <linearGradient id="linear-gradient-4" x1="0.5" y1="1" x2="0.5" gradientUnits="objectBoundingBox">
      <stop offset="0" stop-color="#be9dea"/>
      <stop offset="1" stop-color="#9e8cef"/>
    </linearGradient>
    <linearGradient id="linear-gradient-6" x1="0.5" y1="1" x2="0.5" y2="0" xlink:href="#linear-gradient"/>
    <linearGradient id="linear-gradient-8" x1="0.399" y1="1.015" x2="0.646" y2="-0.022" xlink:href="#linear-gradient-2"/>
    <linearGradient id="linear-gradient-11" x1="0.347" y1="1" x2="0.597" y2="0.003" xlink:href="#linear-gradient-2"/>
    <linearGradient id="linear-gradient-13" x1="0.5" y1="1" x2="0.5" gradientUnits="objectBoundingBox">
      <stop offset="0" stop-color="#8da4e5"/>
      <stop offset="1" stop-color="#755cbb"/>
    </linearGradient>
    <linearGradient id="linear-gradient-14" x1="0.403" y1="0.986" x2="0.689" y2="0.002" xlink:href="#linear-gradient-2"/>
    <linearGradient id="linear-gradient-15" x1="46.719" y1="1" x2="46.719" gradientUnits="objectBoundingBox">
      <stop offset="0" stop-color="#b9acf4"/>
      <stop offset="1" stop-color="#e1d1f5"/>
    </linearGradient>
    <linearGradient id="linear-gradient-17" x1="0.5" y1="1" x2="0.5" y2="0" xlink:href="#linear-gradient-15"/>
    <linearGradient id="linear-gradient-19" x1="0.5" y1="1" x2="0.5" gradientUnits="objectBoundingBox">
      <stop offset="0" stop-color="#45ffcd"/>
      <stop offset="1" stop-color="#22e0ff"/>
    </linearGradient>
    <linearGradient id="linear-gradient-20" x1="63.103" y1="1" x2="63.103" y2="0" xlink:href="#linear-gradient-19"/>
    <linearGradient id="linear-gradient-21" x1="0.459" y1="1.009" x2="0.574" y2="0.009" xlink:href="#linear-gradient-2"/>
    <linearGradient id="linear-gradient-22" x1="0.5" y1="1" x2="0.5" gradientUnits="objectBoundingBox">
      <stop offset="0" stop-color="#0665bd"/>
      <stop offset="1" stop-color="#1a1f77"/>
    </linearGradient>
    <linearGradient id="linear-gradient-24" y1="0.5" x2="1" y2="0.5" gradientUnits="objectBoundingBox">
      <stop offset="0" stop-color="#8879ea"/>
      <stop offset="1" stop-color="#9e8cef"/>
    </linearGradient>
    <linearGradient id="linear-gradient-26" x1="0.485" y1="1.11" x2="0.508" y2="-0.23" gradientUnits="objectBoundingBox">
      <stop offset="0" stop-color="#5e36cc"/>
      <stop offset="1" stop-color="#6c4a96"/>
    </linearGradient>
    <linearGradient id="linear-gradient-27" x1="0.429" y1="0.998" x2="0.603" y2="0.007" xlink:href="#linear-gradient-2"/>
    <linearGradient id="linear-gradient-29" x1="0.424" y1="1.025" x2="0.561" y2="-0.03" xlink:href="#linear-gradient-2"/>
    <linearGradient id="linear-gradient-33" x1="57.472" y1="1" x2="57.472" y2="0" xlink:href="#linear-gradient-19"/>
    <linearGradient id="linear-gradient-34" x1="0.479" y1="1.014" x2="0.646" y2="0.003" xlink:href="#linear-gradient-4"/>
    <linearGradient id="linear-gradient-35" x1="5.923" y1="10.969" x2="5.923" y2="9.867" gradientUnits="objectBoundingBox">
      <stop offset="0" stop-color="#dd1a8f"/>
      <stop offset="1" stop-color="#fe117e"/>
    </linearGradient>
    <linearGradient id="linear-gradient-36" y1="0.5" x2="1" y2="0.5" gradientUnits="objectBoundingBox">
      <stop offset="0"/>
      <stop offset="1" stop-color="#6a9bff"/>
    </linearGradient>
    <linearGradient id="linear-gradient-38" x1="0.5" y1="1" x2="0.5" y2="0" xlink:href="#linear-gradient"/>
    <radialGradient id="radial-gradient-2" cx="0.517" cy="0.845" r="0.763" gradientTransform="translate(0.017) scale(0.966 1)" xlink:href="#linear-gradient-19"/>
    <linearGradient id="linear-gradient-42" x1="0.5" y1="1" x2="0.5" gradientUnits="objectBoundingBox">
      <stop offset="0" stop-color="#d4e2ff"/>
      <stop offset="1"/>
    </linearGradient>
    <linearGradient id="linear-gradient-44" x1="0.387" y1="1.009" x2="0.615" y2="-0.008" xlink:href="#linear-gradient-2"/>
    <linearGradient id="linear-gradient-47" x1="0.304" y1="1.005" x2="0.639" y2="0.009" xlink:href="#linear-gradient-2"/>
    <linearGradient id="linear-gradient-49" x1="0.5" y1="1" x2="0.5" gradientUnits="objectBoundingBox">
      <stop offset="0" stop-color="#d93de3"/>
      <stop offset="1" stop-color="#ff6dba"/>
    </linearGradient>
    <linearGradient id="linear-gradient-50" x1="4.911" y1="2.432" x2="4.911" y2="1.433" gradientUnits="objectBoundingBox">
      <stop offset="0"/>
      <stop offset="1" stop-color="#00e3ff"/>
    </linearGradient>
    <linearGradient id="linear-gradient-51" y1="0.5" x2="1" y2="0.5" gradientUnits="objectBoundingBox">
      <stop offset="0"/>
      <stop offset="1" stop-color="#d4e2ff"/>
    </linearGradient>
    <linearGradient id="linear-gradient-53" x1="0" y1="0.5" x2="1" y2="0.5" xlink:href="#linear-gradient-42"/>
    <linearGradient id="linear-gradient-54" x1="1.262" y1="1.695" x2="1.262" y2="0.683" xlink:href="#linear-gradient-2"/>
  </defs>
  <g id="Group_727" data-name="Group 727" transform="translate(-817 517.575)">
    <g id="Group_48" data-name="Group 48" transform="translate(1239.25 -1076.71)">
      <path id="Path_469" data-name="Path 469" d="M-249.233,726.367a.974.974,0,0,0,.211.15A.463.463,0,0,1-249.233,726.367Z" transform="translate(415.248 533.542)" opacity="0.3" fill="url(#linear-gradient)" style="mix-blend-mode: multiply;isolation: isolate"/>
      <g id="Group_47" data-name="Group 47" transform="translate(-422.249 504.062)">
        <g id="Group_44" data-name="Group 44" transform="translate(0 69.155)">
          <path id="Path_470" data-name="Path 470" d="M178.32,921.315c-8.949,17.752-19.411,32.569-31.114,43.208a80.705,80.705,0,0,1-10.669,8.3,65.918,65.918,0,0,1-10.7,5.661c-53.34,22.049-107.958-28.122-168.976-22.2-51.147,4.978-87.953,33.4-120.583,57.253-11.526,8.446-22.549,16.327-33.514,22.376-3.084,1.717-6.195,3.288-9.275,4.682-3.322,1.479-6.848,2.873-10.612,4.148a.028.028,0,0,1-.027.031l-.031-.031c-47.268,16.208-127.1,15.617-162.485-19.261-37.043-36.541-82.03-154.961,19.853-307.49,113.2-169.537,422.5-192.98,505.152-136.91C230.864,639.047,227.427,823.907,178.32,921.315Z" transform="translate(422.249 -453.74)" fill="#e5f6ff"/>
          <g id="Group_42" data-name="Group 42" transform="translate(565.257)">
            <path id="Path_471" data-name="Path 471" d="M-230.793,614.609a78.857,78.857,0,0,0,22.09-28.146,13.854,13.854,0,0,0,1.608-5.545c.048-3.754-2.706-7.021-5.882-9.024-7.769-4.893-18.551-3.811-25.793,1.833s-10.911,15.226-10.261,24.385c.357,5.029,2.077,10.217,5.919,13.488s10.1,3.948,13.838.561a2.349,2.349,0,0,0-3.546-1.717Z" transform="translate(272.549 -417.882)" fill="#e5f6ff"/>
            <path id="Path_472" data-name="Path 472" d="M-227.027,685.236a78.87,78.87,0,0,0,22.087-28.142,13.873,13.873,0,0,0,1.612-5.549c.048-3.754-2.71-7.021-5.885-9.02-7.769-4.9-18.551-3.815-25.789,1.829s-10.911,15.226-10.265,24.385c.357,5.032,2.081,10.221,5.92,13.491s10.1,3.948,13.838.558a2.348,2.348,0,0,0-3.543-1.717Z" transform="translate(281.581 -248.373)" fill="#e5f6ff"/>
            <path id="Path_473" data-name="Path 473" d="M-236.415,582.065a14.621,14.621,0,0,0,12.176-7.2c-2.55-4.206-6.827-7.7-11.737-7.936s-10.044,3.733-9.87,8.65,7.12,8.381,10.561,4.869Z" transform="translate(280.357 -422.371)" fill="#e5f6ff"/>
            <path id="Path_474" data-name="Path 474" d="M-234.807,563.569a7.511,7.511,0,0,0,6.565.85,7.632,7.632,0,0,0-1.153-2.832,2.631,2.631,0,0,0-2.683-1.091c-1.35.391-1.836,2.013-2.108,3.39l-.649-.966Z" transform="translate(306.799 -437.957)" fill="#e5f6ff"/>
            <path id="Path_475" data-name="Path 475" d="M-234.926,567.076a3.43,3.43,0,0,1-1.54,1.357c-.445-1.731.687-3.441,1.829-4.811.639-.762,1.554-1.581,2.5-1.261.656.221,1.01.918,1.544,1.357,1.071.884,3.053,1,3.2,2.377a1.7,1.7,0,0,1-1.374,1.662,4.96,4.96,0,0,1-2.322-.16q-2.5-.581-5-1.159Z" transform="translate(302.644 -433.471)" fill="#e5f6ff"/>
            <path id="Path_476" data-name="Path 476" d="M-214.362,537.627c1.408-.306,1.122-2.683-.2-3.25s-2.829.047-4.131.656a5.046,5.046,0,0,0,4.4,3.468Z" transform="translate(345.529 -501.001)" fill="#e5f6ff" opacity="0.5"/>
            <path id="Path_477" data-name="Path 477" d="M-228.106,528.119a1.3,1.3,0,0,1-1.285-1.278,2.443,2.443,0,0,1,.847-1.778,2.35,2.35,0,0,1,1.006-.615,1.7,1.7,0,0,1,2.013,1.38,1.822,1.822,0,0,1-1.52,1.962,1.966,1.966,0,0,1-2.084-1.421Z" transform="translate(319.859 -524.402)" fill="#e5f6ff"/>
            <path id="Path_478" data-name="Path 478" d="M-236.33,555.937a2.011,2.011,0,0,0,2.584,2.292,3.506,3.506,0,0,0-.082-2.2,1.7,1.7,0,0,0-1.792-1.05,1.139,1.139,0,0,0-.694,1.727Z" transform="translate(302.756 -451.092)" fill="#e5f6ff"/>
            <path id="Path_479" data-name="Path 479" d="M-237.6,567.944a5.732,5.732,0,0,0,4.488,2.207q-.189-2.117-.374-4.23a3.847,3.847,0,0,0-.517-1.9,2.275,2.275,0,0,0-3.4-.017,3.2,3.2,0,0,0-.177,3.655Z" transform="translate(299.031 -431.18)" fill="#e5f6ff"/>
            <path id="Path_480" data-name="Path 480" d="M-227.367,532.422l-.034-1.435a1.738,1.738,0,0,0-2.108.52,1.447,1.447,0,0,0,.459,2.033,1.242,1.242,0,0,0,1.741-.955Z" transform="translate(319.015 -508.971)" fill="#e5f6ff" opacity="0.5"/>
            <path id="Path_481" data-name="Path 481" d="M-231.136,560.939c-.789-.5-1.812.415-1.935,1.343a27.62,27.62,0,0,0,.221,2.788,3.367,3.367,0,0,1-1.244,2.509,1.618,1.618,0,0,1-1.561.374,2.023,2.023,0,0,1-.806-.765,10.107,10.107,0,0,1-2.084-5.049,4.726,4.726,0,0,1,2.421-4.61,3.708,3.708,0,0,1,3.655.371,3.7,3.7,0,0,1,1.459,3.369Z" transform="translate(297.868 -445.66)" fill="#e5f6ff"/>
            <path id="Path_482" data-name="Path 482" d="M-231.076,566.659a2.264,2.264,0,0,0,3.131.01,3.244,3.244,0,0,0,.721-3.244c-.146-.493-.517-1.034-1.027-.973a1.293,1.293,0,0,0-.792.649q-1.234,1.765-2.465,3.529Z" transform="translate(314.782 -433.088)" fill="#e5f6ff"/>
            <path id="Path_483" data-name="Path 483" d="M-222.324,553.475a3.808,3.808,0,0,1-1.547-5.838c1.639.836,3.366,1.754,4.27,3.356s.5,4.073-1.241,4.668l-2.992-1.187Z" transform="translate(331.18 -468.636)" fill="#e5f6ff"/>
            <path id="Path_484" data-name="Path 484" d="M-253.413,596.4a.985.985,0,0,1-1.36.415,2.316,2.316,0,0,1-.962-1.251,2.821,2.821,0,0,1-.258-1.275,1.923,1.923,0,0,1,1.731-1.642,2.43,2.43,0,0,1,2.186,1.139,1.559,1.559,0,0,1,.272,1.193.853.853,0,0,1-.932.663Z" transform="translate(256 -360.633)" fill="#e5f6ff"/>
            <path id="Path_485" data-name="Path 485" d="M-232.368,555.723l1.5-.041a3.156,3.156,0,0,0-.33-2.234c-.466-.615-1.656-.643-1.86.1a1.585,1.585,0,0,0,.092.857l.8,2.659Z" transform="translate(310.983 -455.792)" fill="#e5f6ff"/>
            <path id="Path_486" data-name="Path 486" d="M-228.581,551.191a9.05,9.05,0,0,0,3.359-1.428,3.088,3.088,0,0,0,1.2-3.237,2.734,2.734,0,0,0-1.132-1.387,3.532,3.532,0,0,0-4.791,1.183,3.535,3.535,0,0,0,1.448,4.716Z" transform="translate(317.577 -475.815)" fill="#e5f6ff"/>
            <path id="Path_487" data-name="Path 487" d="M-225.52,547.7l1.649-1.877a4.4,4.4,0,0,0-1.387-1.3,2.358,2.358,0,0,0-.925,3.162Z" transform="translate(326.885 -476.105)" fill="#e5f6ff"/>
            <path id="Path_488" data-name="Path 488" d="M-212.378,581.092a31.553,31.553,0,0,0,3.3-13.933,5.576,5.576,0,0,0-.347-2.285,4.5,4.5,0,0,0-3.655-2.288,9.237,9.237,0,0,0-9.061,4.995,11.472,11.472,0,0,0,.367,10.585,7.725,7.725,0,0,0,4.417,3.906,4.345,4.345,0,0,0,5.121-2.122.936.936,0,0,0-1.574-.027Z" transform="translate(334.562 -432.914)" fill="#e5f6ff"/>
            <path id="Path_489" data-name="Path 489" d="M-248.474,565.7a7.516,7.516,0,0,0,5.77-3.254,7.726,7.726,0,0,0-2.621-1.578,2.633,2.633,0,0,0-2.8.734c-.847,1.119-.265,2.71.34,3.975l-1.095-.381Z" transform="translate(273.083 -437.172)" fill="#e5f6ff"/>
            <path id="Path_490" data-name="Path 490" d="M-240.852,563.172a2.966,2.966,0,0,0,1.411-1.255,3.15,3.15,0,0,0-.024-1.833,27.976,27.976,0,0,1-.575-5.046q-2.652,3.3-5.3,6.6a1.648,1.648,0,0,1-.486.459c-.69.37-1.469-.326-2.247-.391-1.142-.095-1.918,1.132-2.244,2.23C-252.643,571.754-243.912,564.872-240.852,563.172Z" transform="translate(268.698 -450.871)" fill="#e5f6ff"/>
            <path id="Path_491" data-name="Path 491" d="M-247.722,570.487a5.741,5.741,0,0,0,4.917-.921q-1.413-1.581-2.832-3.159a3.81,3.81,0,0,0-1.557-1.217,2.272,2.272,0,0,0-2.734,2.026,3.194,3.194,0,0,0,2.05,3.029Z" transform="translate(270.553 -426.705)" fill="#e5f6ff"/>
            <path id="Path_492" data-name="Path 492" d="M-244.244,565.716a2.256,2.256,0,0,0,2.513-1.867,3.241,3.241,0,0,0-1.363-3.029c-.411-.306-1.034-.52-1.4-.163a1.3,1.3,0,0,0-.248.993q.071,2.152.143,4.3Z" transform="translate(283.001 -437.836)" fill="#e5f6ff"/>
            <path id="Path_493" data-name="Path 493" d="M-239.7,571.329a9.052,9.052,0,0,0,3.359-1.431,3.086,3.086,0,0,0,1.2-3.237,2.726,2.726,0,0,0-1.132-1.384,3.534,3.534,0,0,0-4.791,1.18,3.538,3.538,0,0,0,1.448,4.719Z" transform="translate(290.895 -427.483)" fill="#e5f6ff"/>
            <path id="Path_494" data-name="Path 494" d="M-222.924,560.595c.2-1.227-1.017-2.183-2.108-2.774s-2.377-1.336-2.472-2.574a1.09,1.09,0,0,1,.33-.928c.677-.554,1.571.292,2.366.656a9.12,9.12,0,0,0,2.05.394,4.172,4.172,0,0,1,3.213,3.41,2.36,2.36,0,0,1-2,1.54,2.354,2.354,0,0,1-2.207-1.231Z" transform="translate(324.382 -453.04)" fill="#e5f6ff"/>
            <path id="Path_495" data-name="Path 495" d="M-224,551.6c.194-1.231-1.017-2.186-2.111-2.778s-2.373-1.333-2.468-2.574a1.078,1.078,0,0,1,.326-.925c.677-.554,1.571.289,2.366.653a9.161,9.161,0,0,0,2.05.4,4.168,4.168,0,0,1,3.213,3.41,2.353,2.353,0,0,1-2,1.537,2.353,2.353,0,0,1-2.2-1.228Z" transform="translate(321.806 -474.617)" fill="#e5f6ff"/>
            <path id="Path_496" data-name="Path 496" d="M-221.58,544.764a6.65,6.65,0,0,0,1.782-2.424,1.17,1.17,0,0,0,.119-.473.936.936,0,0,0-.517-.741,1.942,1.942,0,0,0-2.166.224,2.414,2.414,0,0,0-.8,2.078,1.635,1.635,0,0,0,.534,1.119.917.917,0,0,0,1.166.007.2.2,0,0,0-.3-.133Z" transform="translate(334.791 -484.823)" fill="#e5f6ff"/>
            <path id="Path_497" data-name="Path 497" d="M-247.63,580.444a7.5,7.5,0,0,0,5.766-3.254,7.793,7.793,0,0,0-2.618-1.578,2.639,2.639,0,0,0-2.805.734c-.847,1.122-.262,2.713.343,3.978l-1.1-.381Z" transform="translate(275.102 -401.781)" fill="#e5f6ff"/>
            <path id="Path_498" data-name="Path 498" d="M-252.7,574.216a2.012,2.012,0,0,0,3.444.286,3.512,3.512,0,0,0-1.387-1.714,1.7,1.7,0,0,0-2.06.231,1.136,1.136,0,0,0,.476,1.8Z" transform="translate(263.278 -408.847)" fill="#e5f6ff"/>
            <path id="Path_499" data-name="Path 499" d="M-243,568.552a2.011,2.011,0,0,0,3.441.286,3.5,3.5,0,0,0-1.384-1.717,1.7,1.7,0,0,0-2.064.234,1.139,1.139,0,0,0,.479,1.8Z" transform="translate(286.573 -422.448)" fill="#e5f6ff"/>
            <path id="Path_500" data-name="Path 500" d="M-246.4,576.6c-.932.068-1.2,1.414-.745,2.23s1.309,1.34,1.85,2.1a3.373,3.373,0,0,1,.5,2.75,1.621,1.621,0,0,1-1.023,1.238,2.034,2.034,0,0,1-1.1-.133,10.087,10.087,0,0,1-4.7-2.795,4.728,4.728,0,0,1-.819-5.141,3.705,3.705,0,0,1,3.145-1.894,3.7,3.7,0,0,1,3.189,1.826Z" transform="translate(263.476 -403.058)" fill="#e5f6ff"/>
            <path id="Path_501" data-name="Path 501" d="M-223.641,554.089c-.932.068-1.2,1.414-.745,2.234s1.306,1.336,1.846,2.1a3.368,3.368,0,0,1,.507,2.754,1.622,1.622,0,0,1-1.023,1.234,2.037,2.037,0,0,1-1.1-.133,10.109,10.109,0,0,1-4.7-2.791,4.734,4.734,0,0,1-.819-5.144,3.712,3.712,0,0,1,3.145-1.894,3.7,3.7,0,0,1,3.186,1.826Z" transform="translate(318.111 -457.085)" fill="#e5f6ff"/>
            <path id="Path_502" data-name="Path 502" d="M-220.769,556.208c-.935.068-1.2,1.414-.748,2.23s1.309,1.34,1.85,2.1a3.358,3.358,0,0,1,.5,2.754,1.618,1.618,0,0,1-1.02,1.238,2.033,2.033,0,0,1-1.1-.133,10.085,10.085,0,0,1-4.7-2.795,4.721,4.721,0,0,1-.819-5.141,3.7,3.7,0,0,1,3.145-1.894,3.7,3.7,0,0,1,3.186,1.826Z" transform="translate(325 -451.999)" fill="#e5f6ff"/>
            <path id="Path_503" data-name="Path 503" d="M-224.876,559.858c-.935.071-1.2,1.418-.748,2.234s1.309,1.336,1.85,2.1a3.356,3.356,0,0,1,.5,2.754,1.61,1.61,0,0,1-1.023,1.234,1.99,1.99,0,0,1-1.1-.129,10.113,10.113,0,0,1-4.7-2.795,4.723,4.723,0,0,1-.819-5.141,3.694,3.694,0,0,1,3.145-1.894,3.7,3.7,0,0,1,3.186,1.823Z" transform="translate(315.143 -443.232)" fill="#e5f6ff"/>
            <path id="Path_504" data-name="Path 504" d="M-243.995,526.446c-.935.068-1.2,1.415-.748,2.23s1.309,1.34,1.85,2.1a3.358,3.358,0,0,1,.5,2.754,1.615,1.615,0,0,1-1.023,1.238,2.026,2.026,0,0,1-1.1-.133,10.085,10.085,0,0,1-4.7-2.795,4.721,4.721,0,0,1-.819-5.141,3.7,3.7,0,0,1,3.145-1.894,3.7,3.7,0,0,1,3.186,1.826Z" transform="translate(269.257 -523.43)" fill="#e5f6ff"/>
            <path id="Path_505" data-name="Path 505" d="M-249.539,571.542l1.176-.932a3.147,3.147,0,0,0-1.6-1.588c-.741-.218-1.71.473-1.428,1.19a1.529,1.529,0,0,0,.585.629q1.117.826,2.237,1.652Z" transform="translate(266.93 -417.407)" fill="#e5f6ff"/>
            <path id="Path_506" data-name="Path 506" d="M-241.157,546.692a9.046,9.046,0,0,0,3.359-1.432,3.09,3.09,0,0,0,1.2-3.237,2.724,2.724,0,0,0-1.132-1.384,3.535,3.535,0,0,0-4.791,1.18,3.538,3.538,0,0,0,1.448,4.719Z" transform="translate(287.384 -486.613)" fill="#e5f6ff"/>
            <path id="Path_507" data-name="Path 507" d="M-237.089,574.409a2.479,2.479,0,0,1-4.185-.609,6.819,6.819,0,0,1,1.445-2.5,4.363,4.363,0,0,1,2.118,2.326Z" transform="translate(291.343 -411.849)" fill="#e5f6ff"/>
            <path id="Path_508" data-name="Path 508" d="M-234.2,545.213a5.267,5.267,0,0,0,1.737-1.173,1.77,1.77,0,0,0,.32-1.955c-.575-1.007-2.1-.826-3.074-1.462s-1.363-2.081-2.5-2.353-2.145.959-2.111,2.108a5.033,5.033,0,0,0,1.54,3,5.627,5.627,0,0,0,2.428,1.826,2.215,2.215,0,0,0,2.645-.966Z" transform="translate(294.827 -491.206)" fill="#e5f6ff" opacity="0.5"/>
            <path id="Path_509" data-name="Path 509" d="M-230.5,568.286a14.615,14.615,0,0,0,14.066,1.523c.479-4.893-.853-10.251-4.644-13.386s-10.278-3.023-13.083,1.017.68,10.975,5.539,10.224Z" transform="translate(306.008 -452.823)" fill="#e5f6ff"/>
            <path id="Path_510" data-name="Path 510" d="M-237.1,576.254a1.3,1.3,0,0,1-.262-1.8,2.435,2.435,0,0,1,1.741-.915,2.377,2.377,0,0,1,1.176.109,1.7,1.7,0,0,1,.782,2.312,1.822,1.822,0,0,1-2.39.66,1.966,1.966,0,0,1-.819-2.383Z" transform="translate(300.157 -406.52)" fill="#e5f6ff"/>
            <path id="Path_511" data-name="Path 511" d="M-231.372,570.093c-.224-1.224-1.683-1.724-2.914-1.921s-2.679-.473-3.179-1.612a1.077,1.077,0,0,1,0-.983c.452-.748,1.578-.245,2.448-.163a9.35,9.35,0,0,0,2.064-.306,4.167,4.167,0,0,1,4.162,2.152,2.351,2.351,0,0,1-1.38,2.115,2.348,2.348,0,0,1-2.485-.428Z" transform="translate(300.203 -426.788)" fill="#e5f6ff"/>
            <path id="Path_512" data-name="Path 512" d="M-236.191,556.535l.83-1.17a1.738,1.738,0,0,0-2-.847,1.447,1.447,0,0,0-.85,1.9,1.24,1.24,0,0,0,1.965.279Z" transform="translate(298.411 -452.299)" fill="#e5f6ff"/>
            <path id="Path_513" data-name="Path 513" d="M-238.053,565.649a.986.986,0,0,1-1.34-.483,2.305,2.305,0,0,1-.02-1.578,2.793,2.793,0,0,1,.558-1.176,1.927,1.927,0,0,1,2.37-.279,2.431,2.431,0,0,1,1.068,2.22,1.574,1.574,0,0,1-.5,1.122.856.856,0,0,1-1.142-.027Z" transform="translate(295.497 -434.522)" fill="#e5f6ff"/>
            <path id="Path_514" data-name="Path 514" d="M-249.986,565.985a14.621,14.621,0,0,0,9.646,10.353c3.563-3.39,6.059-8.313,5.239-13.162s-5.794-9.014-10.557-7.793-6.667,8.748-2.5,11.356Z" transform="translate(269.308 -450.56)" fill="#e5f6ff"/>
            <path id="Path_515" data-name="Path 515" d="M-245.626,572.044c1.408-.306,1.122-2.686-.2-3.25s-2.829.048-4.131.656a5.046,5.046,0,0,0,4.4,3.468Z" transform="translate(270.493 -418.399)" fill="#e5f6ff"/>
            <path id="Path_516" data-name="Path 516" d="M-231.936,573.272l.833-1.17a1.734,1.734,0,0,0-2-.846,1.442,1.442,0,0,0-.85,1.9,1.24,1.24,0,0,0,1.965.275Z" transform="translate(308.627 -412.133)" fill="#e5f6ff"/>
            <path id="Path_517" data-name="Path 517" d="M-233.433,580.324A34.236,34.236,0,0,0-223.5,568.4a6.058,6.058,0,0,0,.768-2.387,4.879,4.879,0,0,0-2.438-3.985,10.021,10.021,0,0,0-11.207.469,12.407,12.407,0,0,0-4.757,10.442,8.374,8.374,0,0,0,2.4,5.926c1.622,1.465,4.328,1.839,5.991.415a1.017,1.017,0,0,0-1.513-.789Z" transform="translate(291.652 -437.685)" fill="#e5f6ff"/>
            <path id="Path_518" data-name="Path 518" d="M-246.31,556.013a14.611,14.611,0,0,0,12.176-7.208c-2.547-4.2-6.824-7.694-11.737-7.932s-10.04,3.733-9.867,8.65,7.12,8.381,10.557,4.869Z" transform="translate(256.618 -484.897)" fill="#e5f6ff"/>
            <path id="Path_519" data-name="Path 519" d="M-225.46,545.957a7.5,7.5,0,0,0,5.77-3.254,7.775,7.775,0,0,0-2.621-1.578,2.632,2.632,0,0,0-2.8.734c-.847,1.122-.265,2.713.34,3.978l-1.095-.381Z" transform="translate(328.318 -484.552)" fill="#e5f6ff"/>
            <path id="Path_520" data-name="Path 520" d="M-217.838,543.431a2.931,2.931,0,0,0,1.411-1.255,3.138,3.138,0,0,0-.024-1.829,28.018,28.018,0,0,1-.575-5.049q-2.652,3.3-5.3,6.6a1.615,1.615,0,0,1-.486.462c-.69.367-1.469-.326-2.247-.391-1.142-.1-1.918,1.132-2.244,2.227C-229.629,552.013-220.9,545.134-217.838,543.431Z" transform="translate(323.933 -498.251)" fill="#e5f6ff"/>
            <path id="Path_521" data-name="Path 521" d="M-231.7,567.548l1.649-1.856a3.964,3.964,0,0,0-4.6-.435c-1.34.969-1.275,3.5.3,4,.976.313,2.628.408,2.3,1.377Z" transform="translate(304.969 -427.69)" fill="#e5f6ff"/>
            <path id="Path_522" data-name="Path 522" d="M-232.486,547.992a3.4,3.4,0,0,1-1.54,1.353c-.445-1.727.687-3.441,1.829-4.808.639-.765,1.554-1.584,2.5-1.265.656.224,1.01.918,1.544,1.357,1.071.884,3.05,1,3.2,2.377a1.7,1.7,0,0,1-1.374,1.663,4.962,4.962,0,0,1-2.322-.16q-2.5-.576-5-1.16Z" transform="translate(308.5 -479.28)" fill="#e5f6ff"/>
            <path id="Path_523" data-name="Path 523" d="M-237.267,542.746c1.408-.306,1.119-2.683-.2-3.25s-2.829.051-4.134.66a5.059,5.059,0,0,0,4.4,3.468Z" transform="translate(290.548 -488.712)" fill="#e5f6ff"/>
            <path id="Path_524" data-name="Path 524" d="M-231.3,538.95a1.3,1.3,0,0,1-1.285-1.278,2.43,2.43,0,0,1,.847-1.778,2.333,2.333,0,0,1,1.006-.615,1.7,1.7,0,0,1,2.013,1.38,1.828,1.828,0,0,1-1.52,1.962,1.966,1.966,0,0,1-2.084-1.421Z" transform="translate(312.198 -498.407)" fill="#e5f6ff" opacity="0.5"/>
            <path id="Path_525" data-name="Path 525" d="M-230.53,539.729a2.009,2.009,0,0,0,3.441.286,3.493,3.493,0,0,0-1.387-1.714,1.7,1.7,0,0,0-2.06.231,1.137,1.137,0,0,0,.479,1.8Z" transform="translate(316.493 -491.618)" fill="#e5f6ff"/>
            <path id="Path_526" data-name="Path 526" d="M-224.708,550.749a5.731,5.731,0,0,0,4.916-.925q-1.418-1.576-2.832-3.159a3.811,3.811,0,0,0-1.557-1.217,2.274,2.274,0,0,0-2.734,2.026,3.193,3.193,0,0,0,2.05,3.029Z" transform="translate(325.787 -474.084)" fill="#e5f6ff"/>
            <path id="Path_527" data-name="Path 527" d="M-236.191,538.929a2.633,2.633,0,0,1-2.438-1.432,2.629,2.629,0,0,1,.364-2.805c.445-.517,1.34-.8,1.778-.275a1.537,1.537,0,0,1,.265.8l.51,3.754-.66-.014Z" transform="translate(297.092 -501.038)" fill="#e5f6ff" opacity="0.5"/>
            <path id="Path_528" data-name="Path 528" d="M-237.636,535.03c.194-1.231-1.017-2.186-2.111-2.778s-2.373-1.333-2.468-2.574a1.08,1.08,0,0,1,.33-.925c.677-.554,1.571.289,2.366.653a9.08,9.08,0,0,0,2.05.4,4.168,4.168,0,0,1,3.213,3.407,2.355,2.355,0,0,1-2,1.54,2.355,2.355,0,0,1-2.207-1.228Z" transform="translate(289.074 -514.398)" fill="#e5f6ff" opacity="0.5"/>
            <path id="Path_529" data-name="Path 529" d="M-220.633,563.567c.194-1.231-1.017-2.186-2.111-2.778s-2.377-1.333-2.468-2.574a1.078,1.078,0,0,1,.326-.925c.677-.554,1.571.289,2.366.653a8.962,8.962,0,0,0,2.05.394,4.177,4.177,0,0,1,3.213,3.41,2.355,2.355,0,0,1-2,1.54,2.361,2.361,0,0,1-2.207-1.227Z" transform="translate(329.879 -445.908)" fill="#e5f6ff" opacity="0.5"/>
            <path id="Path_530" data-name="Path 530" d="M-236.3,530.392l1.17-.829a1.742,1.742,0,0,0-1.6-1.462,1.451,1.451,0,0,0-1.435,1.517,1.242,1.242,0,0,0,1.765.915Z" transform="translate(298.773 -515.526)" fill="#e5f6ff" opacity="0.5"/>
            <path id="Path_531" data-name="Path 531" d="M-224.23,542.113c-.935.068-1.2,1.415-.748,2.23s1.309,1.34,1.85,2.1a3.366,3.366,0,0,1,.5,2.754,1.616,1.616,0,0,1-1.023,1.234,2.038,2.038,0,0,1-1.105-.133,10.073,10.073,0,0,1-4.692-2.795,4.722,4.722,0,0,1-.823-5.141,3.717,3.717,0,0,1,3.148-1.894,3.7,3.7,0,0,1,3.186,1.826Z" transform="translate(316.69 -485.828)" fill="#e5f6ff"/>
            <path id="Path_532" data-name="Path 532" d="M-221.23,545.976a2.261,2.261,0,0,0,2.513-1.867,3.241,3.241,0,0,0-1.363-3.029c-.411-.309-1.034-.52-1.4-.163a1.3,1.3,0,0,0-.248.993l.143,4.3Z" transform="translate(338.235 -485.213)" fill="#e5f6ff"/>
            <path id="Path_533" data-name="Path 533" d="M-238.446,550.37a3.806,3.806,0,0,1-1.544-5.834c1.639.833,3.366,1.754,4.271,3.352s.5,4.073-1.241,4.668l-2.992-1.187Z" transform="translate(292.496 -476.079)" fill="#e5f6ff"/>
            <path id="Path_534" data-name="Path 534" d="M-227.364,537.055c.391-.309.782-.622,1.173-.932a3.153,3.153,0,0,0-1.6-1.588c-.741-.218-1.714.473-1.431,1.19a1.575,1.575,0,0,0,.585.629q1.122.826,2.237,1.653Z" transform="translate(320.144 -500.178)" fill="#e5f6ff" opacity="0.5"/>
            <path id="Path_535" data-name="Path 535" d="M-242.031,575.8a9.058,9.058,0,0,0,3.359-1.432,3.086,3.086,0,0,0,1.2-3.237,2.748,2.748,0,0,0-1.132-1.387,3.535,3.535,0,0,0-4.791,1.183,3.535,3.535,0,0,0,1.448,4.716Z" transform="translate(285.296 -416.763)" fill="#e5f6ff"/>
            <path id="Path_536" data-name="Path 536" d="M-248.427,552.818c.551-.625,1.1-1.251,1.649-1.877a4.395,4.395,0,0,0-1.387-1.3,2.354,2.354,0,0,0-.925,3.162Z" transform="translate(271.907 -463.815)" fill="#e5f6ff"/>
            <path id="Path_537" data-name="Path 537" d="M-254.026,588.818a1.305,1.305,0,0,1-1.285-1.282,2.411,2.411,0,0,1,.847-1.775,2.3,2.3,0,0,1,1-.619,1.705,1.705,0,0,1,2.013,1.38,1.825,1.825,0,0,1-1.52,1.965,1.969,1.969,0,0,1-2.084-1.421Z" transform="translate(257.65 -378.725)" fill="#e5f6ff"/>
            <path id="Path_538" data-name="Path 538" d="M-242.489,551.567l1.652-1.877a4.477,4.477,0,0,0-1.387-1.3,2.356,2.356,0,0,0-.928,3.162Z" transform="translate(286.159 -466.827)" fill="#e5f6ff"/>
            <path id="Path_539" data-name="Path 539" d="M-227.433,567.809c.915.207,1.567-1,1.37-1.914a27.1,27.1,0,0,0-1.149-2.553,3.375,3.375,0,0,1,.33-2.781,1.615,1.615,0,0,1,1.34-.877,1.976,1.976,0,0,1,1.017.449,10.107,10.107,0,0,1,3.669,4.053,4.733,4.733,0,0,1-.731,5.154,3.7,3.7,0,0,1-3.563.884,3.7,3.7,0,0,1-2.509-2.683Z" transform="translate(324.015 -439.729)" fill="#e5f6ff"/>
            <path id="Path_540" data-name="Path 540" d="M-239.961,564.419a5.147,5.147,0,0,0-2,.609,1.769,1.769,0,0,0-.884,1.771c.252,1.132,1.768,1.408,2.509,2.3s.69,2.394,1.693,2.985,2.332-.286,2.635-1.394a5.013,5.013,0,0,0-.588-3.325,5.6,5.6,0,0,0-1.782-2.455,2.209,2.209,0,0,0-2.812.143Z" transform="translate(287.493 -428.359)" fill="#e5f6ff"/>
            <path id="Path_541" data-name="Path 541" d="M-228.139,552.882a27.808,27.808,0,0,0-4.777,11.7,4.856,4.856,0,0,0-.01,2.04,3.968,3.968,0,0,0,2.873,2.492A8.157,8.157,0,0,0-221.472,566a10.121,10.121,0,0,0,1.125-9.279,6.825,6.825,0,0,0-3.318-4.009,3.835,3.835,0,0,0-4.753,1.153.828.828,0,0,0,1.37.238Z" transform="translate(311.124 -457.34)" fill="#e5f6ff"/>
            <path id="Path_542" data-name="Path 542" d="M-220.356,565.432a2.965,2.965,0,0,0,1.792.6,3.1,3.1,0,0,0,1.578-.932,28.573,28.573,0,0,1,4.09-3.009l-8.364-1.316a1.676,1.676,0,0,1-.643-.19c-.663-.415-.449-1.438-.779-2.149-.483-1.034-1.935-1.1-3.046-.833C-233.664,559.472-223.352,563.623-220.356,565.432Z" transform="translate(321.596 -445.039)" fill="#e5f6ff"/>
            <path id="Path_543" data-name="Path 543" d="M-230.02,554.231l1.227-.745a1.743,1.743,0,0,0-1.5-1.571,1.445,1.445,0,0,0-1.533,1.411,1.239,1.239,0,0,0,1.693,1.034Z" transform="translate(314.008 -458.377)" fill="#e5f6ff"/>
            <path id="Path_544" data-name="Path 544" d="M-225.165,557.889a2.261,2.261,0,0,0,2.87,1.251,3.25,3.25,0,0,0,1.948-2.69c.061-.513-.065-1.156-.558-1.3a1.283,1.283,0,0,0-.986.282q-1.831,1.127-3.662,2.261Z" transform="translate(329.074 -450.672)" fill="#e5f6ff"/>
            <path id="Path_545" data-name="Path 545" d="M-228.757,554.073a7.51,7.51,0,0,0,5.692,3.386A7.677,7.677,0,0,0-223,554.4a2.633,2.633,0,0,0-2.03-2.064c-1.394-.177-2.482,1.119-3.281,2.275l-.214-1.142Z" transform="translate(321.384 -457.399)" fill="#e5f6ff"/>
            <path id="Path_546" data-name="Path 546" d="M-228.3,551.112a3.411,3.411,0,0,1-1.941-.667c1.275-1.244,3.325-1.115,5.08-.8.979.173,2.149.561,2.339,1.537.133.68-.3,1.333-.411,2.016-.235,1.367.653,3.142-.469,3.954a1.7,1.7,0,0,1-2.125-.364,4.9,4.9,0,0,1-1.017-2.094q-.745-2.458-1.482-4.916Z" transform="translate(317.815 -464.329)" fill="#e5f6ff"/>
            <path id="Path_547" data-name="Path 547" d="M-228.036,560.125a5.726,5.726,0,0,0,3.244,3.808q.668-2.015,1.333-4.029a3.822,3.822,0,0,0,.282-1.955,2.272,2.272,0,0,0-3.118-1.363,3.191,3.191,0,0,0-1.608,3.284Z" transform="translate(323.115 -447.644)" fill="#e5f6ff"/>
            <path id="Path_548" data-name="Path 548" d="M-218.662,555.912c-.524-.775-1.829-.34-2.309.462a26.683,26.683,0,0,0-.9,2.649,3.377,3.377,0,0,1-2.139,1.809,1.625,1.625,0,0,1-1.581-.275,2.025,2.025,0,0,1-.435-1.023,10.123,10.123,0,0,1,.088-5.461,4.73,4.73,0,0,1,4.053-3.271,3.713,3.713,0,0,1,3.21,1.788,3.7,3.7,0,0,1,0,3.672Z" transform="translate(327.134 -461.043)" fill="#e5f6ff"/>
            <path id="Path_549" data-name="Path 549" d="M-241.131,559.913a9.033,9.033,0,0,0,2.914,2.2,3.087,3.087,0,0,0,3.4-.568,2.741,2.741,0,0,0,.639-1.673,3.535,3.535,0,0,0-3.41-3.57,3.537,3.537,0,0,0-3.369,3.6Z" transform="translate(291.686 -447.833)" fill="#e5f6ff"/>
            <path id="Path_550" data-name="Path 550" d="M-236.258,565.011a7.5,7.5,0,0,0,5.692,3.383,7.785,7.785,0,0,0,.065-3.057,2.637,2.637,0,0,0-2.03-2.067c-1.394-.177-2.485,1.122-3.281,2.275-.071-.381-.143-.758-.214-1.139Z" transform="translate(303.381 -431.154)" fill="#e5f6ff"/>
            <path id="Path_551" data-name="Path 551" d="M-226.545,553.389c.279-1.21-.86-2.251-1.911-2.917s-2.275-1.5-2.281-2.741a1.1,1.1,0,0,1,.391-.9c.717-.507,1.547.4,2.315.819a9.083,9.083,0,0,0,2.016.541,4.161,4.161,0,0,1,2.965,3.628,2.354,2.354,0,0,1-2.1,1.394,2.352,2.352,0,0,1-2.111-1.384Z" transform="translate(316.632 -470.931)" fill="#e5f6ff"/>
            <path id="Path_552" data-name="Path 552" d="M-250.208,567.232c.18-.445.36-.887.537-1.333a1.742,1.742,0,0,0-2.142-.357,1.447,1.447,0,0,0-.384,2.05,1.241,1.241,0,0,0,1.975-.187Z" transform="translate(264.467 -426.204)" fill="#e5f6ff"/>
            <path id="Path_553" data-name="Path 553" d="M-231.226,559.4l1.391.554a3.159,3.159,0,0,0,.581-2.179c-.18-.751-1.265-1.251-1.744-.646a1.517,1.517,0,0,0-.255.82c-.109.921-.214,1.839-.323,2.761Z" transform="translate(314.618 -446.492)" fill="#e5f6ff"/>
          </g>
          <g id="Group_43" data-name="Group 43" transform="translate(248.331 424.344)">
            <path id="Path_554" data-name="Path 554" d="M-285.977,670.575a53.786,53.786,0,0,0-22.056-10.435,9.391,9.391,0,0,0-3.93-.231c-2.5.534-4.26,2.863-5.11,5.277-2.081,5.906.265,12.91,5.114,16.871s11.774,4.957,17.765,3.142c3.295-1,6.484-2.927,8.078-5.974s1.1-7.317-1.72-9.289a1.6,1.6,0,0,0-.605,2.618Z" transform="translate(424.519 -623.825)" fill="#fff"/>
            <path id="Path_555" data-name="Path 555" d="M-308.568,669.123a9.966,9.966,0,0,0-6.634-7.008c-2.411,2.329-4.087,5.7-3.5,9s4,6.113,7.242,5.257,4.5-6,1.642-7.759Z" transform="translate(422.153 -618.228)" fill="#fff"/>
            <path id="Path_556" data-name="Path 556" d="M-321.866,663.38a5.123,5.123,0,0,0-.428-4.5,5.334,5.334,0,0,0-1.71,1.2,1.8,1.8,0,0,0-.32,1.948c.466.84,1.618.918,2.574.891l-.544.578Z" transform="translate(408.546 -625.987)" fill="#fff"/>
            <path id="Path_557" data-name="Path 557" d="M-319.451,664.146a2.333,2.333,0,0,1,1.135.819c-1.081.558-2.39.065-3.475-.49-.605-.309-1.289-.8-1.217-1.469.048-.469.459-.809.67-1.231.425-.847.2-2.179,1.095-2.489a1.168,1.168,0,0,1,1.316.663,3.444,3.444,0,0,1,.245,1.571l-.017,3.5Z" transform="translate(412.092 -625.12)" fill="#fff"/>
            <path id="Path_558" data-name="Path 558" d="M-342.226,652.9c-.418-.887-1.955-.34-2.132.626a3.577,3.577,0,0,0,1.061,2.652,3.446,3.446,0,0,0,1.642-3.451Z" transform="translate(360.79 -641.414)" fill="#fff" opacity="0.5"/>
            <path id="Path_559" data-name="Path 559" d="M-346.577,662.771a.886.886,0,0,1-.656,1.047,1.656,1.656,0,0,1-1.309-.292,1.592,1.592,0,0,1-.561-.575,1.164,1.164,0,0,1,.612-1.55,1.249,1.249,0,0,1,1.537.717,1.338,1.338,0,0,1-.632,1.6Z" transform="translate(349.212 -620.1)" fill="#fff"/>
            <path id="Path_560" data-name="Path 560" d="M-326.946,663.673a1.371,1.371,0,0,0,1.132-2.064,2.385,2.385,0,0,0-1.455.388,1.157,1.157,0,0,0-.425,1.35.775.775,0,0,0,1.251.2Z" transform="translate(400.658 -619.442)" fill="#fff"/>
            <path id="Path_561" data-name="Path 561" d="M-318.625,664.118a3.894,3.894,0,0,0,.789-3.318l-2.754.887a2.642,2.642,0,0,0-1.187.632,1.551,1.551,0,0,0,.5,2.268,2.18,2.18,0,0,0,2.455-.439Z" transform="translate(414.316 -621.386)" fill="#fff"/>
            <path id="Path_562" data-name="Path 562" d="M-343.886,660.954l-.949.238a1.189,1.189,0,0,0,.666,1.326.989.989,0,0,0,1.282-.615.846.846,0,0,0-.9-1.013Z" transform="translate(359.659 -621.194)" fill="#fff" opacity="0.5"/>
            <path id="Path_563" data-name="Path 563" d="M-324.081,661.786c-.214.6.547,1.142,1.183,1.084a17.841,17.841,0,0,0,1.822-.568,2.3,2.3,0,0,1,1.856.449,1.107,1.107,0,0,1,.486.979,1.367,1.367,0,0,1-.391.653,6.829,6.829,0,0,1-3.04,2.149,3.223,3.223,0,0,1-3.431-.915,2.522,2.522,0,0,1-.309-2.485,2.535,2.535,0,0,1,2.023-1.479Z" transform="translate(404.686 -619.336)" fill="#fff"/>
            <path id="Path_564" data-name="Path 564" d="M-320.388,659.248a1.545,1.545,0,0,0-.466-2.084,2.222,2.222,0,0,0-2.268.01c-.3.17-.609.5-.49.83a.868.868,0,0,0,.551.428c.908.371,1.812.738,2.72,1.1Z" transform="translate(410.591 -630.847)" fill="#fff"/>
            <path id="Path_565" data-name="Path 565" d="M-330.756,656.285A2.6,2.6,0,0,1-334.4,658.2a6.534,6.534,0,0,1,1.584-3.349c.928-.843,2.635-.945,3.295.122l-.337,2.169Z" transform="translate(384.752 -637.245)" fill="#fff"/>
            <path id="Path_566" data-name="Path 566" d="M-297.37,669.486a.667.667,0,0,1,.479.84,1.557,1.557,0,0,1-.683.83,1.838,1.838,0,0,1-.809.364,1.307,1.307,0,0,1-1.353-.9,1.655,1.655,0,0,1,.425-1.625,1.064,1.064,0,0,1,.755-.36.583.583,0,0,1,.581.517Z" transform="translate(467.79 -602.587)" fill="#fff"/>
            <path id="Path_567" data-name="Path 567" d="M-327.716,660.75c-.085-.33-.17-.66-.252-.99a2.156,2.156,0,0,0-1.438.558c-.34.4-.177,1.2.347,1.221a1.066,1.066,0,0,0,.554-.191l1.649-.935Z" transform="translate(396.319 -623.88)" fill="#fff"/>
            <path id="Path_568" data-name="Path 568" d="M-331.006,660.916a6.175,6.175,0,0,0-1.459-2.016,2.11,2.11,0,0,0-2.332-.309,1.879,1.879,0,0,0-.751.966,2.41,2.41,0,0,0,1.51,3.005,2.41,2.41,0,0,0,2.917-1.676Z" transform="translate(381.711 -627.242)" fill="#fff"/>
            <path id="Path_569" data-name="Path 569" d="M-334.069,657.437l-1.5-.816a3.043,3.043,0,0,0-.653,1.119,1.607,1.607,0,0,0,2.244.139Z" transform="translate(380.391 -631.414)" fill="#fff"/>
            <path id="Path_570" data-name="Path 570" d="M-312.908,649.812a21.578,21.578,0,0,0-9.765-.088,3.81,3.81,0,0,0-1.469.578,3.074,3.074,0,0,0-.969,2.774,6.3,6.3,0,0,0,4.692,5.27,7.81,7.81,0,0,0,6.98-1.843,5.247,5.247,0,0,0,1.931-3.526,2.966,2.966,0,0,0-2.183-3.087.642.642,0,0,0,.218,1.054Z" transform="translate(407.011 -649.207)" fill="#fff"/>
            <path id="Path_571" data-name="Path 571" d="M-318.439,671.7a5.108,5.108,0,0,0-3.033-3.342,5.228,5.228,0,0,0-.653,1.979,1.8,1.8,0,0,0,.911,1.754c.874.391,1.843-.234,2.594-.829l-.089.789Z" transform="translate(414.215 -603.242)" fill="#fff"/>
            <path id="Path_572" data-name="Path 572" d="M-320.454,669.973a2.017,2.017,0,0,0-1.051-.751,2.141,2.141,0,0,0-1.214.292,19.2,19.2,0,0,1-3.267,1.146l5.192,2.53a1.141,1.141,0,0,1,.381.251c.347.4,0,1.027.078,1.557.109.772,1.044,1.1,1.819,1.153C-312.967,676.515-318.863,671.748-320.454,669.973Z" transform="translate(404.955 -601.211)" fill="#fff"/>
            <path id="Path_573" data-name="Path 573" d="M-315.432,671.223a3.923,3.923,0,0,0-1.357-3.132c-.558.789-1.115,1.574-1.673,2.363a2.584,2.584,0,0,0-.575,1.217,1.551,1.551,0,0,0,1.761,1.513,2.177,2.177,0,0,0,1.7-1.819Z" transform="translate(421.625 -603.885)" fill="#fff"/>
            <path id="Path_574" data-name="Path 574" d="M-301.032,673.926l-.949.241a1.186,1.186,0,0,0,.663,1.323.987.987,0,0,0,1.285-.612.845.845,0,0,0-.9-1.013Z" transform="translate(462.51 -590.054)" fill="#fff"/>
            <path id="Path_575" data-name="Path 575" d="M-319.3,667.587a1.544,1.544,0,0,0-1.622-1.391,2.219,2.219,0,0,0-1.809,1.367c-.143.32-.19.765.105.959a.884.884,0,0,0,.7.013l2.839-.745Z" transform="translate(412.508 -608.437)" fill="#fff"/>
            <path id="Path_576" data-name="Path 576" d="M-315.935,665.267a6.137,6.137,0,0,0-1.459-2.02,2.1,2.1,0,0,0-2.332-.306,1.859,1.859,0,0,0-.751.962,2.416,2.416,0,0,0,1.51,3.009,2.417,2.417,0,0,0,2.921-1.68Z" transform="translate(417.882 -616.803)" fill="#fff"/>
            <path id="Path_577" data-name="Path 577" d="M-325.913,656.636c-.847.058-1.3,1.006-1.53,1.823s-.527,1.782-1.336,2.033a.742.742,0,0,1-.666-.078c-.469-.367-.044-1.088.078-1.673a6.073,6.073,0,0,0-.047-1.425,2.846,2.846,0,0,1,1.782-2.652,1.609,1.609,0,0,1,1.326,1.1,1.6,1.6,0,0,1-.483,1.653Z" transform="translate(396.134 -636.11)" fill="#fff"/>
            <path id="Path_578" data-name="Path 578" d="M-331.732,658.709c-.847.054-1.3,1.006-1.527,1.823s-.527,1.781-1.336,2.03a.742.742,0,0,1-.666-.078c-.473-.367-.044-1.088.078-1.673a6.441,6.441,0,0,0-.048-1.421,2.842,2.842,0,0,1,1.782-2.652,1.6,1.6,0,0,1,1.326,1.1,1.608,1.608,0,0,1-.483,1.652Z" transform="translate(382.174 -631.135)" fill="#fff"/>
            <path id="Path_579" data-name="Path 579" d="M-336.5,655.656a4.561,4.561,0,0,0-1.884-.82.777.777,0,0,0-.33-.007.639.639,0,0,0-.415.456,1.321,1.321,0,0,0,.473,1.4,1.653,1.653,0,0,0,1.5.217,1.119,1.119,0,0,0,.663-.523.623.623,0,0,0-.17-.779.137.137,0,0,0-.044.224Z" transform="translate(373.283 -635.749)" fill="#fff"/>
            <path id="Path_580" data-name="Path 580" d="M-308.757,668.913a5.123,5.123,0,0,0-3.036-3.342,5.286,5.286,0,0,0-.653,1.979,1.8,1.8,0,0,0,.911,1.754c.874.391,1.843-.235,2.594-.83l-.088.789Z" transform="translate(437.445 -609.933)" fill="#fff"/>
            <path id="Path_581" data-name="Path 581" d="M-312.284,672.1a1.372,1.372,0,0,0-.333-2.333,2.4,2.4,0,0,0-.932,1.18,1.159,1.159,0,0,0,.469,1.336.775.775,0,0,0,1.122-.592Z" transform="translate(434.685 -599.87)" fill="#fff"/>
            <path id="Path_582" data-name="Path 582" d="M-317.519,666.5a1.372,1.372,0,0,0-.333-2.333,2.379,2.379,0,0,0-.928,1.18,1.153,1.153,0,0,0,.466,1.336.773.773,0,0,0,1.122-.592Z" transform="translate(422.122 -613.305)" fill="#fff"/>
            <path id="Path_583" data-name="Path 583" d="M-311.4,670.329c.187.609,1.122.585,1.6.156a18.5,18.5,0,0,0,1.119-1.547,2.306,2.306,0,0,1,1.754-.751,1.106,1.106,0,0,1,.976.5,1.339,1.339,0,0,1,.078.751,6.86,6.86,0,0,1-1.146,3.546,3.226,3.226,0,0,1-3.295,1.323,2.531,2.531,0,0,1-1.737-1.805,2.53,2.53,0,0,1,.734-2.4Z" transform="translate(438.25 -603.658)" fill="#fff"/>
            <path id="Path_584" data-name="Path 584" d="M-329.809,658.591c.19.608,1.125.585,1.6.16a17.644,17.644,0,0,0,1.119-1.55,2.3,2.3,0,0,1,1.755-.748,1.105,1.105,0,0,1,.979.493,1.383,1.383,0,0,1,.078.755,6.893,6.893,0,0,1-1.149,3.543,3.226,3.226,0,0,1-3.295,1.323,2.526,2.526,0,0,1-1.734-1.805,2.531,2.531,0,0,1,.731-2.4Z" transform="translate(394.067 -631.822)" fill="#fff"/>
            <path id="Path_585" data-name="Path 585" d="M-328.831,656.364c.187.609,1.122.585,1.6.156a17.755,17.755,0,0,0,1.115-1.547,2.3,2.3,0,0,1,1.758-.751,1.111,1.111,0,0,1,.976.493,1.386,1.386,0,0,1,.078.755,6.893,6.893,0,0,1-1.149,3.546,3.225,3.225,0,0,1-3.295,1.323,2.526,2.526,0,0,1-1.734-1.805,2.528,2.528,0,0,1,.731-2.4Z" transform="translate(396.407 -637.174)" fill="#fff"/>
            <path id="Path_586" data-name="Path 586" d="M-325.784,658.54c.187.609,1.125.585,1.6.16a17.611,17.611,0,0,0,1.119-1.551,2.3,2.3,0,0,1,1.755-.748,1.1,1.1,0,0,1,.976.493,1.381,1.381,0,0,1,.082.755,6.9,6.9,0,0,1-1.149,3.543,3.226,3.226,0,0,1-3.295,1.323,2.52,2.52,0,0,1-1.734-1.805,2.523,2.523,0,0,1,.731-2.4Z" transform="translate(403.727 -631.942)" fill="#fff"/>
            <path id="Path_587" data-name="Path 587" d="M-345.115,676.3c.187.612,1.125.588,1.6.16a17.558,17.558,0,0,0,1.119-1.547,2.3,2.3,0,0,1,1.755-.751,1.1,1.1,0,0,1,.976.493,1.353,1.353,0,0,1,.082.755,6.883,6.883,0,0,1-1.149,3.543,3.219,3.219,0,0,1-3.295,1.323,2.514,2.514,0,0,1-1.734-1.805,2.517,2.517,0,0,1,.731-2.394Z" transform="translate(357.331 -589.31)" fill="#fff"/>
            <path id="Path_588" data-name="Path 588" d="M-314.575,670.171l-.8-.643a2.181,2.181,0,0,0-.816,1.306c-.031.527.575,1.068,1.01.772a1.072,1.072,0,0,0,.33-.483c.255-.582.507-1.159.762-1.738Z" transform="translate(428.473 -600.779)" fill="#fff"/>
            <path id="Path_589" data-name="Path 589" d="M-332.1,669.963a6.188,6.188,0,0,0-1.459-2.02,2.1,2.1,0,0,0-2.332-.306,1.858,1.858,0,0,0-.751.962,2.41,2.41,0,0,0,1.51,3.006,2.407,2.407,0,0,0,2.917-1.676Z" transform="translate(379.092 -605.533)" fill="#fff"/>
            <path id="Path_590" data-name="Path 590" d="M-314.534,662.031a1.7,1.7,0,0,1,.224,2.88,4.762,4.762,0,0,1-1.88-.585,2.983,2.983,0,0,1,1.227-1.761Z" transform="translate(428.466 -618.429)" fill="#fff"/>
            <path id="Path_591" data-name="Path 591" d="M-334.335,666.417a3.521,3.521,0,0,0-1.04-.979,1.215,1.215,0,0,0-1.35.082c-.581.534-.231,1.523-.507,2.264s-1.18,1.224-1.187,2.016.959,1.282,1.717,1.085a3.421,3.421,0,0,0,1.768-1.479,3.8,3.8,0,0,0,.843-1.887,1.509,1.509,0,0,0-1.04-1.615Z" transform="translate(375.115 -610.646)" fill="#fff" opacity="0.5"/>
            <path id="Path_592" data-name="Path 592" d="M-318.8,666.734a9.961,9.961,0,0,0-1.115-9.585c-3.325.422-6.688,2.118-8.2,5.114s-.459,7.29,2.652,8.544,7.2-2.108,5.96-5.226Z" transform="translate(398.206 -630.146)" fill="#fff"/>
            <path id="Path_593" data-name="Path 593" d="M-313.176,661.6a.889.889,0,0,1-1.156.445,1.652,1.652,0,0,1-.87-1.02,1.6,1.6,0,0,1-.105-.8,1.163,1.163,0,0,1,1.418-.874,1.249,1.249,0,0,1,.8,1.493,1.346,1.346,0,0,1-1.465.9Z" transform="translate(430.548 -624.937)" fill="#fff"/>
            <path id="Path_594" data-name="Path 594" d="M-317.826,660.975c-.779.333-.894,1.38-.836,2.227s.092,1.853-.592,2.356a.741.741,0,0,1-.653.149c-.568-.19-.4-1.013-.479-1.6a6.571,6.571,0,0,0-.517-1.329,2.839,2.839,0,0,1,.8-3.091,1.608,1.608,0,0,1,1.615.6,1.6,1.6,0,0,1,.092,1.717Z" transform="translate(416.751 -624.153)" fill="#fff"/>
            <path id="Path_595" data-name="Path 595" d="M-326.541,663.332l-.9-.377a1.189,1.189,0,0,0-.262,1.458.986.986,0,0,0,1.394.279.845.845,0,0,0-.112-1.35Z" transform="translate(400.481 -616.211)" fill="#fff"/>
            <path id="Path_596" data-name="Path 596" d="M-320.129,663.917a.671.671,0,0,1-.119.962,1.573,1.573,0,0,1-1.047.255,1.89,1.89,0,0,1-.864-.194,1.311,1.311,0,0,1-.544-1.533,1.664,1.664,0,0,1,1.316-1.047,1.062,1.062,0,0,1,.819.163.581.581,0,0,1,.156.761Z" transform="translate(412.674 -617.684)" fill="#fff"/>
            <path id="Path_597" data-name="Path 597" d="M-317.564,678.064a9.97,9.97,0,0,0,5.43-7.977c-2.791-1.856-6.443-2.774-9.544-1.5s-5.117,5.216-3.587,8.2,6.824,3.115,7.929-.051Z" transform="translate(405.428 -604.109)" fill="#fff"/>
            <path id="Path_598" data-name="Path 598" d="M-314.615,668.491c-.415-.887-1.955-.34-2.132.626a3.581,3.581,0,0,0,1.064,2.652,3.444,3.444,0,0,0,1.639-3.451Z" transform="translate(427.058 -604)" fill="#fff"/>
            <path id="Path_599" data-name="Path 599" d="M-316.054,657.97l-.9-.374a1.184,1.184,0,0,0-.259,1.455.986.986,0,0,0,1.394.279.847.847,0,0,0-.112-1.35Z" transform="translate(425.647 -629.073)" fill="#fff"/>
            <path id="Path_600" data-name="Path 600" d="M-310.032,665.666a23.326,23.326,0,0,0-9.428-4.8,4.144,4.144,0,0,0-1.7-.15,3.326,3.326,0,0,0-2.281,2.224,6.832,6.832,0,0,0,2,7.382,8.484,8.484,0,0,0,7.667,1.584,5.709,5.709,0,0,0,3.577-2.489,3.217,3.217,0,0,0-.629-4.05.7.7,0,0,0-.3,1.129Z" transform="translate(410.116 -621.687)" fill="#fff"/>
            <path id="Path_601" data-name="Path 601" d="M-324.4,679.637a9.961,9.961,0,0,0-6.634-7.007c-2.411,2.329-4.087,5.7-3.5,9s4,6.113,7.242,5.256,4.5-6,1.646-7.759Z" transform="translate(384.16 -592.991)" fill="#fff"/>
            <path id="Path_602" data-name="Path 602" d="M-335.041,659.38a5.122,5.122,0,0,0-3.036-3.342,5.289,5.289,0,0,0-.653,1.979,1.793,1.793,0,0,0,.911,1.754c.874.395,1.843-.234,2.594-.829l-.088.789Z" transform="translate(374.362 -632.813)" fill="#fff"/>
            <path id="Path_603" data-name="Path 603" d="M-337.059,657.651a2.011,2.011,0,0,0-1.051-.748,2.09,2.09,0,0,0-1.214.292,19.37,19.37,0,0,1-3.267,1.142l5.192,2.53a1.2,1.2,0,0,1,.381.251c.347.4,0,1.027.078,1.557.109.772,1.044,1.1,1.822,1.153C-329.572,664.192-335.468,659.426-337.059,657.651Z" transform="translate(365.103 -630.78)" fill="#fff"/>
            <path id="Path_604" data-name="Path 604" d="M-319.726,659.9l-1.482-.82a2.712,2.712,0,0,0,.4,3.128c.847.741,2.519.316,2.618-.806.058-.694-.126-1.809.568-1.737Z" transform="translate(415.685 -625.509)" fill="#fff"/>
            <path id="Path_605" data-name="Path 605" d="M-332.512,665.408a2.332,2.332,0,0,1,1.136.819c-1.085.558-2.394.065-3.475-.49-.605-.309-1.289-.8-1.217-1.469.047-.469.456-.809.67-1.231.425-.847.2-2.179,1.095-2.489a1.167,1.167,0,0,1,1.316.663,3.391,3.391,0,0,1,.241,1.567q-.005,1.755-.014,3.5Z" transform="translate(380.745 -622.091)" fill="#fff"/>
            <path id="Path_606" data-name="Path 606" d="M-335.362,667.361c-.415-.887-1.952-.34-2.128.629a3.565,3.565,0,0,0,1.061,2.649,3.446,3.446,0,0,0,1.642-3.451Z" transform="translate(377.271 -606.711)" fill="#fff"/>
            <path id="Path_607" data-name="Path 607" d="M-338.892,663.255a.884.884,0,0,1-.656,1.047,1.655,1.655,0,0,1-1.309-.292,1.589,1.589,0,0,1-.561-.574,1.16,1.16,0,0,1,.612-1.547,1.244,1.244,0,0,1,1.537.714,1.338,1.338,0,0,1-.632,1.6Z" transform="translate(367.656 -618.933)" fill="#fff" opacity="0.5"/>
            <path id="Path_608" data-name="Path 608" d="M-338.567,662.563a1.372,1.372,0,0,0-.333-2.333,2.419,2.419,0,0,0-.932,1.18,1.159,1.159,0,0,0,.469,1.336.773.773,0,0,0,1.122-.588Z" transform="translate(371.602 -622.749)" fill="#fff"/>
            <path id="Path_609" data-name="Path 609" d="M-332.037,658.9a3.921,3.921,0,0,0-1.357-3.131c-.558.789-1.115,1.574-1.673,2.363a2.616,2.616,0,0,0-.575,1.217,1.551,1.551,0,0,0,1.761,1.513,2.173,2.173,0,0,0,1.7-1.819Z" transform="translate(381.773 -633.456)" fill="#fff"/>
            <path id="Path_610" data-name="Path 610" d="M-338.221,666.5a1.792,1.792,0,0,1-.581,1.836,1.793,1.793,0,0,1-1.921.184c-.411-.221-.734-.772-.452-1.142a1.082,1.082,0,0,1,.493-.3c.806-.3,1.612-.6,2.417-.9l.092.442Z" transform="translate(368.244 -608.479)" fill="#fff" opacity="0.5"/>
            <path id="Path_611" data-name="Path 611" d="M-340.692,670.282c-.847.058-1.3,1.006-1.527,1.823s-.527,1.781-1.339,2.033a.742.742,0,0,1-.667-.078c-.469-.367-.041-1.088.078-1.673a6.266,6.266,0,0,0-.044-1.425,2.845,2.845,0,0,1,1.782-2.652,1.616,1.616,0,0,1,1.326,1.1,1.6,1.6,0,0,1-.486,1.649Z" transform="translate(360.667 -603.359)" fill="#fff" opacity="0.5"/>
            <path id="Path_612" data-name="Path 612" d="M-324.286,654.664c-.843.058-1.3,1.007-1.527,1.823s-.527,1.782-1.336,2.033a.74.74,0,0,1-.666-.078c-.473-.367-.044-1.088.078-1.673a6.263,6.263,0,0,0-.048-1.425A2.841,2.841,0,0,1-326,652.692a1.608,1.608,0,0,1,1.326,1.1,1.606,1.606,0,0,1-.483,1.652Z" transform="translate(400.045 -640.843)" fill="#fff" opacity="0.5"/>
            <path id="Path_613" data-name="Path 613" d="M-343.912,667.45c-.241-.218-.486-.435-.728-.653a1.183,1.183,0,0,0-.728,1.289.987.987,0,0,0,1.224.724.849.849,0,0,0,.34-1.312Z" transform="translate(358.386 -606.99)" fill="#fff" opacity="0.5"/>
            <path id="Path_614" data-name="Path 614" d="M-337.682,660.794c.187.608,1.122.585,1.6.16s.69-1.074,1.119-1.547a2.293,2.293,0,0,1,1.754-.751,1.1,1.1,0,0,1,.976.493,1.352,1.352,0,0,1,.078.755,6.857,6.857,0,0,1-1.146,3.543,3.225,3.225,0,0,1-3.295,1.323,2.531,2.531,0,0,1-1.737-1.805,2.533,2.533,0,0,1,.734-2.4Z" transform="translate(375.167 -626.535)" fill="#fff"/>
            <path id="Path_615" data-name="Path 615" d="M-335.9,655.266a1.544,1.544,0,0,0-1.622-1.391,2.219,2.219,0,0,0-1.809,1.367c-.143.32-.187.765.105.959a.882.882,0,0,0,.7.014l2.839-.745Z" transform="translate(372.656 -638.008)" fill="#fff"/>
            <path id="Path_616" data-name="Path 616" d="M-330.383,667.472a2.6,2.6,0,0,1-3.648,1.911,6.511,6.511,0,0,1,1.588-3.349c.925-.843,2.632-.945,3.291.122l-.337,2.169Z" transform="translate(385.647 -610.396)" fill="#fff"/>
            <path id="Path_617" data-name="Path 617" d="M-340.859,660.638l-.8-.639a2.162,2.162,0,0,0-.816,1.305c-.031.524.575,1.064,1.01.769a1.07,1.07,0,0,0,.33-.483l.762-1.737Z" transform="translate(365.39 -623.659)" fill="#fff" opacity="0.5"/>
            <path id="Path_618" data-name="Path 618" d="M-312.612,666.141a6.142,6.142,0,0,0-1.459-2.016,2.111,2.111,0,0,0-2.332-.309,1.886,1.886,0,0,0-.751.962,2.412,2.412,0,0,0,1.51,3.009,2.41,2.41,0,0,0,2.917-1.676Z" transform="translate(425.857 -614.699)" fill="#fff"/>
            <path id="Path_619" data-name="Path 619" d="M-327.205,671.9l-1.5-.816a3.009,3.009,0,0,0-.653,1.122,1.606,1.606,0,0,0,2.241.136Z" transform="translate(396.872 -596.711)" fill="#fff"/>
            <path id="Path_620" data-name="Path 620" d="M-302.3,670.836a.887.887,0,0,1-.656,1.047,1.645,1.645,0,0,1-1.309-.3,1.567,1.567,0,0,1-.561-.574,1.161,1.161,0,0,1,.612-1.547,1.247,1.247,0,0,1,1.537.714,1.342,1.342,0,0,1-.632,1.6Z" transform="translate(455.486 -600.745)" fill="#fff"/>
            <path id="Path_621" data-name="Path 621" d="M-328.934,668.134c-.5-.272-1-.541-1.5-.813a3.052,3.052,0,0,0-.656,1.119,1.607,1.607,0,0,0,2.244.136Z" transform="translate(392.715 -605.733)" fill="#fff"/>
            <path id="Path_622" data-name="Path 622" d="M-320.3,658.48c0-.639-.9-.894-1.482-.622a18.114,18.114,0,0,0-1.523,1.149,2.292,2.292,0,0,1-1.9.2,1.1,1.1,0,0,1-.789-.758,1.371,1.371,0,0,1,.146-.744,6.91,6.91,0,0,1,2.139-3.05,3.228,3.228,0,0,1,3.539-.3,2.525,2.525,0,0,1,1.125,2.237,2.522,2.522,0,0,1-1.4,2.074Z" transform="translate(404.909 -637.811)" fill="#fff"/>
            <path id="Path_623" data-name="Path 623" d="M-320.571,667.05a3.562,3.562,0,0,0,.707,1.241,1.215,1.215,0,0,0,1.312.32c.717-.34.67-1.387,1.153-2.016s1.486-.823,1.727-1.578-.541-1.506-1.323-1.544a3.432,3.432,0,0,0-2.122.894,3.8,3.8,0,0,0-1.363,1.557,1.5,1.5,0,0,0,.517,1.846Z" transform="translate(417.893 -614.972)" fill="#fff"/>
            <path id="Path_624" data-name="Path 624" d="M-329.491,664.268a18.963,18.963,0,0,0,8.5,1.411,3.355,3.355,0,0,0,1.357-.3,2.707,2.707,0,0,0,1.224-2.288,5.562,5.562,0,0,0-3.369-5.236,6.9,6.9,0,0,0-6.341.656,4.638,4.638,0,0,0-2.162,2.812,2.607,2.607,0,0,0,1.482,2.985.565.565,0,0,0-.048-.945Z" transform="translate(394.514 -629.643)" fill="#fff"/>
            <path id="Path_625" data-name="Path 625" d="M-322.716,657.86a2.023,2.023,0,0,0,.129-1.282,2.137,2.137,0,0,0-.857-.908,19.339,19.339,0,0,1-2.621-2.264q.194,2.876.391,5.76a1.139,1.139,0,0,1-.031.456c-.177.5-.891.517-1.312.843-.615.479-.435,1.452-.1,2.152C-324.668,667.611-323.464,660.128-322.716,657.86Z" transform="translate(401.505 -639.13)" fill="#fff"/>
            <path id="Path_626" data-name="Path 626" d="M-329.006,659.678l-.68-.7a1.19,1.19,0,0,0-.819,1.238.984.984,0,0,0,1.17.806.844.844,0,0,0,.432-1.282Z" transform="translate(394.086 -625.766)" fill="#fff"/>
            <path id="Path_627" data-name="Path 627" d="M-326.993,656.9a1.542,1.542,0,0,0,.4-2.1,2.218,2.218,0,0,0-2.084-.888c-.347.034-.758.214-.779.564a.891.891,0,0,0,.333.615l2.06,2.091Z" transform="translate(396.62 -637.948)" fill="#fff"/>
            <path id="Path_628" data-name="Path 628" d="M-329.076,660.489a5.117,5.117,0,0,0,1.391-4.3,5.284,5.284,0,0,0-2.044.418,1.8,1.8,0,0,0-1.068,1.662c.1.956,1.122,1.483,2.009,1.84l-.728.313Z" transform="translate(393.395 -632.445)" fill="#fff"/>
            <path id="Path_629" data-name="Path 629" d="M-331.062,661.467a2.324,2.324,0,0,1-.15,1.391c-1.02-.66-1.244-2.043-1.3-3.257-.031-.677.048-1.513.67-1.785.432-.194.932-.007,1.4-.034.945-.051,1.992-.908,2.7-.285a1.164,1.164,0,0,1,.078,1.469,3.405,3.405,0,0,1-1.238.993l-3.047,1.727Z" transform="translate(389.274 -629.857)" fill="#fff"/>
            <path id="Path_630" data-name="Path 630" d="M-325.241,658.423a3.9,3.9,0,0,0,2.04-2.734l-2.88-.275a2.6,2.6,0,0,0-1.343.105,1.554,1.554,0,0,0-.435,2.281,2.179,2.179,0,0,0,2.428.574Z" transform="translate(399.702 -634.399)" fill="#fff"/>
            <path id="Path_631" data-name="Path 631" d="M-329.247,654.543c-.439.466.047,1.268.656,1.466a17.464,17.464,0,0,0,1.9.2,2.312,2.312,0,0,1,1.527,1.149,1.1,1.1,0,0,1,.054,1.095,1.358,1.358,0,0,1-.615.442,6.893,6.893,0,0,1-3.645.768,3.227,3.227,0,0,1-2.785-2.2,2.522,2.522,0,0,1,.7-2.4,2.524,2.524,0,0,1,2.441-.554Z" transform="translate(389.972 -636.764)" fill="#fff"/>
            <path id="Path_632" data-name="Path 632" d="M-323.3,668.283a6.237,6.237,0,0,0,1.027-2.271,2.107,2.107,0,0,0-.894-2.176,1.852,1.852,0,0,0-1.207-.173,2.409,2.409,0,0,0-1.86,2.805,2.41,2.41,0,0,0,2.907,1.7Z" transform="translate(404.225 -614.59)" fill="#fff"/>
            <path id="Path_633" data-name="Path 633" d="M-320.67,663.821a5.121,5.121,0,0,0,1.391-4.294,5.27,5.27,0,0,0-2.043.418,1.8,1.8,0,0,0-1.068,1.663c.092.952,1.119,1.482,2.009,1.836l-.728.316Z" transform="translate(413.57 -624.439)" fill="#fff"/>
            <path id="Path_634" data-name="Path 634" d="M-330.157,660.054c-.85,0-1.367.915-1.652,1.714s-.653,1.738-1.479,1.931a.738.738,0,0,1-.656-.126c-.445-.4.031-1.088.194-1.663a6.193,6.193,0,0,0,.054-1.421,2.839,2.839,0,0,1,1.965-2.52,1.6,1.6,0,0,1,1.244,1.187,1.608,1.608,0,0,1-.6,1.615Z" transform="translate(385.408 -628.176)" fill="#fff"/>
            <path id="Path_635" data-name="Path 635" d="M-317.3,670.921l-.966-.156a1.182,1.182,0,0,0,.085,1.479.99.99,0,0,0,1.421-.054.849.849,0,0,0-.425-1.289Z" transform="translate(422.957 -597.467)" fill="#fff"/>
            <path id="Path_636" data-name="Path 636" d="M-325.421,659.381l.16-1.01a2.13,2.13,0,0,0-1.537-.058c-.473.235-.639,1.03-.167,1.258a1.061,1.061,0,0,0,.585.044l1.884-.2Z" transform="translate(401.932 -627.649)" fill="#fff"/>
          </g>
        </g>
        <ellipse id="Ellipse_7" data-name="Ellipse 7" cx="138.67" cy="30.858" rx="138.67" ry="30.858" transform="translate(178.73 685.613)" opacity="0.5" fill="url(#radial-gradient)" style="mix-blend-mode: multiply;isolation: isolate"/>
        <g id="Group_46" data-name="Group 46" transform="translate(70.832)">
          <path id="Path_638" data-name="Path 638" d="M-280.836,716.544c-4.036,23.6-21.975,78.116-38.064,72.37-3.475-1.231-7.116-5.634-10.734-12.108-10.985-19.676-21.8-58.382-27.16-84.562-2.914-14.267-4.233-24.834-3.053-26.544,7.174-10.622,75.311,35.428,79.374,40.559C-279.714,707.238-279.88,711.053-280.836,716.544Z" transform="translate(500.155 -119.929)" fill="url(#linear-gradient-2)"/>
          <path id="Path_639" data-name="Path 639" d="M-249.446,690.736c-.251,2.186-.561,4.458-.867,6.814-4.821,35.847-14.773,88.486-25.48,107.628-2.55,4.6-5.158,7.259-7.735,7.317a6.04,6.04,0,0,1-2.074-.309c-2.411-.7-4.961-2.662-7.568-5.58v-.027c-16.228-18.217-34.558-73.546-35.2-90.057-.085-2.043.112-3.5.619-4.2,9.248-12.556,76.263-55.414,79.993-50.311C-246.784,663.383-247.511,674.79-249.446,690.736Z" transform="translate(576.676 -125.99)" fill="url(#linear-gradient-3)"/>
          <path id="Path_640" data-name="Path 640" d="M-359.7,665.987c-7.541,9.857,53.918,54.466,79.833,42.814C-279.869,708.8-349.682,652.89-359.7,665.987Z" transform="translate(500.007 -120.206)" fill="url(#linear-gradient-4)"/>
          <path id="Path_641" data-name="Path 641" d="M-328.358,716.208c-2.043,5.025,68.933-6.5,80.6-54.492C-247.756,661.715-309.117,668.9-328.358,716.208Z" transform="translate(576.659 -125.689)" fill="url(#linear-gradient-4)"/>
          <path id="Path_642" data-name="Path 642" d="M-332.969,707.126c-3.448,4.263.813,59.477,14.069,81.788-3.475-1.231-7.116-5.634-10.734-12.108-2.159-9.67-5.352-24.021-8.381-38.342-3.866-18.442-13.733-37.363-18.778-46.22-2.914-14.267-4.233-24.834-3.053-26.544,7.174-10.622,75.311,35.428,79.374,40.559.758.979.592,4.794-.364,10.285C-280.836,716.544-329.521,702.9-332.969,707.126Z" transform="translate(500.155 -119.929)" opacity="0.3" fill="url(#linear-gradient-6)" style="mix-blend-mode: multiply;isolation: isolate"/>
          <path id="Path_643" data-name="Path 643" d="M-315.333,682.732c-2.9.894-3.57,24.014,1.261,25.293S-308.634,680.672-315.333,682.732Z" transform="translate(602.571 -75.502)" fill="#fff"/>
          <path id="Path_644" data-name="Path 644" d="M-249.446,690.736s-38.818,11.492-47.788,29.907c-8.969,18.387-5.607,62.112,4.063,85.936-16.228-18.217-34.558-73.546-35.2-90.057-.085-2.043.112-3.5.619-4.2,9.248-12.556,76.263-55.414,79.993-50.311C-246.784,663.383-247.511,674.79-249.446,690.736Z" transform="translate(576.676 -125.99)" opacity="0.3" fill="url(#linear-gradient-6)" style="mix-blend-mode: multiply;isolation: isolate"/>
          <path id="Path_645" data-name="Path 645" d="M-281.051,634.253c-.085,20.489-2.941,50.113-12.247,74.05-15.389,39.634-38.512,89.523-39.213,91.094l-.027.027c-14.127,8.605-31.029,8.156-41.793,6.586a73.113,73.113,0,0,1-10.788-2.326s4.791-45.4,29.737-96.837a395.487,395.487,0,0,1,42.266-67.607,1.548,1.548,0,0,0,.2-.252c.139-.224.337-.449.507-.673.112-.139.194-.252.279-.364a1.284,1.284,0,0,0,.252-.337c.139-.17.251-.309.364-.449.031-.027.058-.058.058-.085l.054-.054c13.988-17.745,25.341-28.506,27.721-27.19C-282.255,610.623-280.994,620.32-281.051,634.253Z" transform="translate(440.53 -250.457)" fill="url(#linear-gradient-8)"/>
          <path id="Path_646" data-name="Path 646" d="M-385.058,684.933s18.194-30.009,36.955-26.116,15.4,23.634,15.4,23.634S-356.695,699.808-385.058,684.933Z" transform="translate(440.679 -133.48)" fill="url(#linear-gradient-4)"/>
          <path id="Path_647" data-name="Path 647" d="M-281.051,616.942c-.085,20.489-2.941,50.113-12.247,74.05-15.389,39.634-38.512,89.523-39.213,91.094l-.027.027-41.793,6.586a73.113,73.113,0,0,1-10.788-2.326s4.791-45.4,29.737-96.837a395.487,395.487,0,0,1,42.266-67.607c-7.875,10.4-40.835,55.666-49.692,94.12-10.091,43.752,30.607,26.908,47.254,0,16.623-26.908,34-99.108,34-99.108Z" transform="translate(440.53 -233.146)" opacity="0.3" fill="url(#linear-gradient-6)" style="mix-blend-mode: multiply;isolation: isolate"/>
          <path id="Path_648" data-name="Path 648" d="M-367.591,666c-3.315-1.244,13.808-40.008,19.119-40.362S-364.759,667.064-367.591,666Z" transform="translate(481.587 -212.272)" fill="#fff"/>
          <path id="Path_649" data-name="Path 649" d="M-365.813,638.851c-2.615-1.387-5.083,5.865-2.693,6.929S-362.859,640.418-365.813,638.851Z" transform="translate(478.079 -180.985)" fill="#fff"/>
          <path id="Path_650" data-name="Path 650" d="M-353.474,661.36c-9.714-1.584-23.824,7.507-28.231,15.667s-6.691,55.152,4.406,93.987c0,0,15.664,4.243,27.411,0s19.907-38.509,20.56-64.292S-337.484,663.971-353.474,661.36Z" transform="translate(439.994 -126.976)" fill="url(#linear-gradient-11)"/>
          <path id="Path_651" data-name="Path 651" d="M-374.183,764.181s-14.307-82.713,18.211-99.611c0,0,9.67,16.392,6.079,48.376S-358.988,761.244-374.183,764.181Z" transform="translate(459.255 -118.837)" fill="url(#linear-gradient-4)"/>
          <path id="Path_652" data-name="Path 652" d="M-377.026,696.92s8.357,12.213,14.069,14.209a14.356,14.356,0,0,0,10.17-.109l-21.1-37.55S-377.716,688.39-377.026,696.92Z" transform="translate(459.756 -97.476)" opacity="0.5" fill="url(#linear-gradient-13)" style="mix-blend-mode: multiply;isolation: isolate"/>
          <path id="Path_653" data-name="Path 653" d="M-376.162,693.592s4.631-22.913,18.469-28.506c0,0,12.859,12.679,9.595,61.959,0,0-7.178,9.462-17.3,0C-365.394,727.045-373.881,710.239-376.162,693.592Z" transform="translate(462.029 -117.598)" fill="url(#linear-gradient-14)"/>
          <path id="Path_654" data-name="Path 654" d="M-372.729,671.095c-4.7,0,2.448,20.8,4.9,20.315S-368.812,671.095-372.729,671.095Z" transform="translate(466.509 -103.176)" fill="#fff"/>
          <path id="Path_655" data-name="Path 655" d="M-310.682,546.482s-21.264-18.35-47.288-21.536c0,0-7.97,3.9-17.177,32.573s7.789,85.328,7.789,85.328Z" transform="translate(457.907 -453.941)" fill="url(#linear-gradient-15)"/>
          <path id="Path_656" data-name="Path 656" d="M-374.992,539.243s4.172-9.694,10.091-14.3c0,0,21.407,19.761,20.567,66.971l-6.174,6.389Z" transform="translate(464.837 -453.941)" fill="url(#linear-gradient-4)"/>
          <path id="Path_657" data-name="Path 657" d="M-306.356,546.482s21.264-18.35,47.291-21.536c0,0,7.966,3.9,17.174,32.573s-7.79,85.328-7.79,85.328Z" transform="translate(629.567 -453.941)" fill="url(#linear-gradient-17)"/>
          <path id="Path_658" data-name="Path 658" d="M-277.579,524.952s-21.063,22.573-21.063,58.95l8.143,5.134,23.722-49.1S-274.648,524.524-277.579,524.952Z" transform="translate(648.081 -453.947)" fill="url(#linear-gradient-4)"/>
          <path id="Path_659" data-name="Path 659" d="M-295.978,581.115s-5.6-31.07,14.845-53.9c0,0,23.1,10.887,32.661,51.249S-263.8,643.051-263.8,643.051Z" transform="translate(652.789 -448.505)" fill="url(#linear-gradient-19)"/>
          <path id="Path_660" data-name="Path 660" d="M-332.922,581.115s5.6-31.07-14.845-53.9c0,0-23.1,10.887-32.661,51.249s15.324,64.591,15.324,64.591Z" transform="translate(446.547 -448.505)" fill="url(#linear-gradient-20)"/>
          <path id="Path_661" data-name="Path 661" d="M-67.321,769.521c-47.451,66.539-270.477,61.606-299.514,7.793-18.948-35.15-16.874-87.983,1.374-136.614,23.936-63.819,75.76-120.44,144.488-120.44,80.891,0,143.03,80.584,161.751,154.189C-49.746,711.7-51.371,747.156-67.321,769.521Z" transform="translate(452.515 -465.188)" fill="url(#linear-gradient-21)"/>
          <path id="Path_662" data-name="Path 662" d="M-368.832,696.563c10.622,45.319,206.652,50.253,254.8,9.184s-21.186-186.972-127.4-180.6C-338.575,530.977-386.23,622.333-368.832,696.563Z" transform="translate(471.155 -453.947)" fill="#dfe3fb"/>
          <path id="Path_663" data-name="Path 663" d="M-369.132,694.944c10.622,45.319,206.655,50.253,254.8,9.183s-21.186-186.972-127.4-180.6C-338.875,529.358-386.53,620.714-369.132,694.944Z" transform="translate(470.435 -457.833)" fill="url(#linear-gradient-22)"/>
          <path id="Path_664" data-name="Path 664" d="M-67.321,684.523c-47.451,66.539-270.477,61.606-299.514,7.793-18.948-35.15-16.874-87.983,1.374-136.614a.027.027,0,0,1,.027-.027c-.785,2.859-19.479,71.024-.391,101.016,19.506,30.665,96.7,26.4,179.55,22.872C-103.423,676-76.011,663.977-62.109,640.6c10.962-18.387-.055-58.97-5.24-75.4l8.126,24.246C-49.746,626.7-51.371,662.158-67.321,684.523Z" transform="translate(452.515 -380.19)" opacity="0.3" fill="url(#linear-gradient-6)" style="mix-blend-mode: multiply;isolation: isolate"/>
          <path id="Path_665" data-name="Path 665" d="M-251.412,640.569c-46.36-.058-79.772-5.27-98.465-12.754h-.027c-12.277-4.906-18.221-10.764-17.35-16.789.53-3.672,9.642-6.9,23.964-9.53,42.1-7.623,129.239-9.922,176.191-2.8,4.036.615,7.79,1.289,11.183,2.047.728.166,1.428.337,2.1.5.14.027.252.055.391.085,8.1,1.989,13.848,4.427,16.4,7.4a6.262,6.262,0,0,1,1.316,2.3C-131.339,626.051-209.537,640.6-251.412,640.569Z" transform="translate(483.206 -287.241)" fill="url(#linear-gradient-24)"/>
          <path id="Path_666" data-name="Path 666" d="M-136.242,607.326a5.533,5.533,0,0,1-.785,1.4c-4.542,6.419-22.957,14.688-22.957,14.688s-70.772-28.955-128.144-16.089-61.748,20.489-61.748,20.489h-.027c-12.277-4.906-18.221-10.764-17.35-16.789.53-3.672,9.642-6.9,23.964-9.53,42.1-7.623,129.239-9.922,176.191-2.8,4.9.867,9.36,1.738,13.284,2.55.14.027.252.055.391.085C-142.3,603.739-135.712,605.868-136.242,607.326Z" transform="translate(483.206 -287.241)" opacity="0.5" fill="url(#linear-gradient-13)" style="mix-blend-mode: multiply;isolation: isolate"/>
          <path id="Path_667" data-name="Path 667" d="M-172.893,600.741c-10.962,10.482-63.513,19.533-93.478,19.506-53.7-.085-86.327-8.548-93.9-18.751C-314.552,593.226-215.665,591.21-172.893,600.741Z" transform="translate(500.181 -287.241)" fill="url(#linear-gradient-26)"/>
          <path id="Path_668" data-name="Path 668" d="M-176.534,797.752c-6.474,38.23-40.7,63.707-89.775,63.707-42.715,0-78.9-15.919-88.459-50.984-9.558-35.034-5.858-99.836,6.9-140.2A130.8,130.8,0,0,1-341,652.927l.027-.058a119.314,119.314,0,0,1,8.072-14.209.08.08,0,0,0,.031-.054c15.583-23.46,38.4-38.795,64.183-38.795,26.854,0,47.4,11.044,61.385,27.384a89.691,89.691,0,0,1,15.249,25.646,254.984,254.984,0,0,1,10.537,33.776,1.824,1.824,0,0,0,.058.336C-172.637,723.614-170.757,763.612-176.534,797.752Z" transform="translate(500.456 -274.261)" fill="url(#linear-gradient-27)"/>
          <path id="Path_669" data-name="Path 669" d="M-316,606.97s4.185,45.411,30.845,73.03C-285.159,680-292.544,637.669-316,606.97Z" transform="translate(606.412 -257.079)" fill="url(#linear-gradient-24)"/>
          <path id="Path_670" data-name="Path 670" d="M-167.2,620.154c-41.79,82.852-115.507,111.161-115.507,111.161-20.264-13.117-37.921-55.944-30.944-64.3l.031-.027a3.55,3.55,0,0,1,1.261-.983c89.914-43.024,116.822-87.646,116.822-87.646,12.135.87,19.088,7.963,23.039,16.089C-166.693,606.252-167.2,620.154-167.2,620.154Z" transform="translate(608.338 -325.742)" fill="url(#linear-gradient-29)"/>
          <path id="Path_671" data-name="Path 671" d="M-368.285,628.955s9.415-10.989,27.894-19.843,35.466-15.783,38.087-22.892-50.685-2.917-50.685-2.917l-26.534,11.516S-375.36,616.222-368.285,628.955Z" transform="translate(453.965 -316.829)" opacity="0.5" fill="url(#linear-gradient-13)" style="mix-blend-mode: multiply;isolation: isolate"/>
          <path id="Path_672" data-name="Path 672" d="M-276.442,578.86c-7.484,2-6.725,51.691,2.832,56.648s25.49-14.872,25.49-14.872S-249.887,571.778-276.442,578.86Z" transform="translate(689.254 -326.228)" fill="url(#linear-gradient-4)"/>
          <path id="Path_673" data-name="Path 673" d="M-320.736,583.6c7.082,12.478,54,1.387,56.648-6.018,3.539-9.915-9.564-41.069-34.347-38.237S-324.17,577.546-320.736,583.6Z" transform="translate(591.576 -419.83)" fill="url(#linear-gradient-19)"/>
          <path id="Path_674" data-name="Path 674" d="M-302.935,583.6c-7.079,12.478-54,1.387-56.645-6.018-3.543-9.915,9.564-41.069,34.344-38.237S-299.5,577.546-302.935,583.6Z" transform="translate(500.456 -419.83)" fill="url(#linear-gradient-33)"/>
          <path id="Path_675" data-name="Path 675" d="M-347.167,560.5s13.379,13.807,51.3,13.807,57.389-15.932,57.389-15.932-16.715,22.658-57.389,22.658S-347.167,560.5-347.167,560.5Z" transform="translate(531.619 -373.717)" fill="#2f95cd"/>
          <path id="Path_676" data-name="Path 676" d="M-337.483,546.522s13.753,8.85,4.736,29.349c0,0-64.251,34.993-60.531,73.125,3.1,31.821,91.873,16.416,91.873,16.416l3.186,10.622s-75.41,14.753-101.434-2.978c0,0-8.85-21.016,13.1-58.9S-337.483,546.522-337.483,546.522Z" transform="translate(401.417 -402.158)" fill="url(#linear-gradient-34)"/>
          <path id="Path_677" data-name="Path 677" d="M-373.839,590.509c-8.089,9.153,9.078,19.163,23.192,20.7,15.834,1.724,43.966-4.542,42.263-20.492S-354.877,569.058-373.839,590.509Z" transform="translate(462.617 -330.207)" fill="url(#linear-gradient-35)"/>
          <path id="Path_678" data-name="Path 678" d="M-362.07,576.484c-2.448,14.678,30.213,14.042,74.7,12.57,53.462-1.771,107.176,44.255,138.436,11.223,5.151-5.443-46.033-76.919-107.812-75.314S-359.948,563.737-362.07,576.484Z" transform="translate(495.542 -453.964)" opacity="0.5" fill="url(#linear-gradient-36)" style="mix-blend-mode: screen;isolation: isolate"/>
          <path id="Path_679" data-name="Path 679" d="M-353.08,584.266c-2.825,10.639,19.435,21.281,74.169,18.6,66.172-3.24,80.224-17.106,76.97-20.944-1.952-2.305-21.777,10.18-76.12-1.734C-313.952,572.321-350.108,573.073-353.08,584.266Z" transform="translate(516.859 -333.894)" opacity="0.5" fill="url(#linear-gradient-36)" style="mix-blend-mode: screen;isolation: isolate"/>
          <path id="Path_680" data-name="Path 680" d="M-287.138,561.469l-1.6-4.821C-288.427,557.573-287.838,559.225-287.138,561.469Z" transform="translate(671.856 -377.855)" opacity="0.3" fill="url(#linear-gradient-38)" style="mix-blend-mode: multiply;isolation: isolate"/>
          <path id="Path_681" data-name="Path 681" d="M-176.534,760.3c-6.474,38.23-40.7,63.707-89.775,63.707-42.715,0-78.9-15.919-88.459-50.984-9.558-35.034-5.858-99.836,6.9-140.2A130.8,130.8,0,0,1-341,615.474l.027-.058s-25.84,85.685-5.185,140.259,116.907,53.421,149.476,17.153c31-34.5,16.677-115.564,15.222-123.327C-172.637,686.161-170.757,726.159-176.534,760.3Z" transform="translate(500.456 -236.809)" opacity="0.3" fill="url(#linear-gradient-6)" style="mix-blend-mode: multiply;isolation: isolate"/>
          <path id="Path_682" data-name="Path 682" d="M-357.492,709.332c7.307-51.307,48.464-86.086,94.178-81.771,49.277,4.651,75.767,51.691,75.056,92.053s-30.206,71.87-83.08,71.87S-364.323,757.314-357.492,709.332Z" transform="translate(505.016 -208.527)" fill="url(#linear-gradient-4)"/>
          <path id="Path_683" data-name="Path 683" d="M-357.356,710.579c7.3-51.307,48.461-86.086,94.175-81.768,49.28,4.651,75.767,51.691,75.059,92.05s-30.209,71.874-83.08,71.874S-364.187,758.564-357.356,710.579Z" transform="translate(505.342 -205.527)" fill="url(#radial-gradient-2)"/>
          <path id="Path_684" data-name="Path 684" d="M-226.283,627.2c-10.455,16.4-68,25.942-101.26,22.906-28.955-2.642-24.562-10.458-24.338-11.441a.08.08,0,0,0,.031-.054c15.583-23.46,38.4-38.795,64.183-38.795C-260.814,599.811-240.271,610.855-226.283,627.2Z" transform="translate(519.431 -274.261)" opacity="0.5" fill="url(#linear-gradient-13)" style="mix-blend-mode: multiply;isolation: isolate"/>
          <path id="Path_685" data-name="Path 685" d="M-319.765,616.271c-2.672.881-2.8,22.454,0,25.929s7.3,2.4,8.8-2.676S-315.719,614.935-319.765,616.271Z" transform="translate(592.458 -234.913)" fill="#fff"/>
          <path id="Path_686" data-name="Path 686" d="M-318.321,625.568c-2.23.531-2.489,5.879-1.458,7.752s4.91,1.469,5.539-.8S-316.074,625.034-318.321,625.568Z" transform="translate(595.958 -212.535)" fill="#fff"/>
          <path id="Path_687" data-name="Path 687" d="M-349.38,673.424s11.812,20.563,55.795,20.737,61.871-26.024,61.871-26.024-20.291,13.226-49.311,5.287S-338.748,661.017-349.38,673.424Z" transform="translate(526.307 -116.117)" opacity="0.72" fill="url(#linear-gradient-42)" style="mix-blend-mode: screen;isolation: isolate"/>
          <path id="Path_688" data-name="Path 688" d="M-321.91,523.239c-4.7,1.095,34.728,21.951,36.323,19.472S-308.908,520.213-321.91,523.239Z" transform="translate(591.302 -458.783)" fill="#fff"/>
          <path id="Path_689" data-name="Path 689" d="M-298.242,530.241c-3.927,2.121-3.614,6.358,4.522,5.3s12.56-7.436,11.676-8.677S-293.829,527.857-298.242,530.241Z" transform="translate(643.166 -450.191)" fill="#fff"/>
          <path id="Path_690" data-name="Path 690" d="M-167.2,617.4c-41.79,82.852-115.507,111.161-115.507,111.161-20.264-13.117-37.921-55.944-30.944-64.3l.031-.027a10.871,10.871,0,0,1,1.261-.983s13.155,48.308,51.691,34.908c45.724-15.9,64.431-95.365,64.431-95.365V579.507L-172.5,591.7C-166.693,603.5-167.2,617.4-167.2,617.4Z" transform="translate(608.338 -322.992)" opacity="0.3" fill="url(#linear-gradient-6)" style="mix-blend-mode: multiply;isolation: isolate"/>
          <path id="Path_691" data-name="Path 691" d="M-280.789,644.5s-.354,26.2,14.518,30.448,33.457-23.532,40.362-35.044,17.347-63.38,7.433-75.774-29.03-9.2-41.776,8.143C-260.252,572.277-280.078,622.2-280.789,644.5Z" transform="translate(690.929 -377.847)" fill="url(#linear-gradient-44)"/>
          <path id="Path_692" data-name="Path 692" d="M-280.552,636.738s17.252-13.114,21.148-33.293,24.793-46.785,24.793-46.785-10.986-1.013-26.211,15.627S-280.552,636.738-280.552,636.738Z" transform="translate(691.498 -377.856)" fill="url(#linear-gradient-4)"/>
          <path id="Path_693" data-name="Path 693" d="M-271.063,562.263l13.179,4.971s-5.834,9.836-8.214,19.224-11.319,22.2-11.319,22.2Z" transform="translate(699.02 -364.378)" opacity="0.5" fill="url(#linear-gradient-13)" style="mix-blend-mode: multiply;isolation: isolate"/>
          <path id="Path_694" data-name="Path 694" d="M-276.883,626.416s-4.522-9.915-5.141-29.033,3.914-34.167,6.039-36.819,9.558-2.3,13.1,1.948,6.09,25.266,6.09,25.266S-261.562,621.812-276.883,626.416Z" transform="translate(687.829 -372.505)" fill="url(#linear-gradient-47)"/>
          <path id="Path_695" data-name="Path 695" d="M-274.332,572.888s8.857,29.2,30.186,40.885l2.74-4.413s-21.713-11.448-32.1-39.981Z" transform="translate(706.426 -347.3)" fill="url(#linear-gradient-4)"/>
          <path id="Path_696" data-name="Path 696" d="M-278.026,563.58c-2.139-.252-1.414,18.574,1.241,17.786S-275.017,563.937-278.026,563.58Z" transform="translate(694.555 -361.224)" fill="#fff"/>
          <path id="Path_697" data-name="Path 697" d="M-374.989,591.51c-.483,2.611,56.05,3.237,57.376-6.756S-371.273,571.334-374.989,591.51Z" transform="translate(464.838 -329.524)" fill="url(#linear-gradient-49)"/>
          <path id="Path_698" data-name="Path 698" d="M-370.263,617.768a144.094,144.094,0,0,1,.415-36.129c2.71-20.71,8.276-34.085,11.588-32.205s2.8,22.155,4.757,42.14c1.52,15.548,4.512,30.145,4.512,30.145S-363.3,635.4-370.263,617.768Z" transform="translate(474.008 -395.59)" opacity="0.2" fill="url(#linear-gradient-50)" style="mix-blend-mode: screen;isolation: isolate"/>
          <path id="Path_699" data-name="Path 699" d="M-352.627,673.309c8.687,13.859,44.432,6.477,84.716,10.407s47.155,17.038,55.652,14.382-4.927-63.3-65.114-67.409S-354.79,669.862-352.627,673.309Z" transform="translate(518.09 -200.813)" opacity="0.72" fill="url(#linear-gradient-51)" style="mix-blend-mode: screen;isolation: isolate"/>
          <path id="Path_704" data-name="Path 704" d="M-268.3,537.692s-7.49-9.282-17.7-6.817-10.887,34.636-4.777,35.432,8.694-17.789,13.376-20.713,12.859-1.785,12.859-1.785Z" transform="translate(657.578 -440.711)" opacity="0.72" fill="url(#linear-gradient-51)" style="mix-blend-mode: screen;isolation: isolate"/>
          <path id="Path_705" data-name="Path 705" d="M-379.718,553.612s3.941-4.468,12.791-3.016,13.95,19.612,18.483,17.786,1.207-31.253-10.761-39.9C-359.206,528.479-374.635,541.647-379.718,553.612Z" transform="translate(453.495 -445.461)" opacity="0.72" fill="url(#linear-gradient-53)" style="mix-blend-mode: screen;isolation: isolate"/>
          <path id="Path_706" data-name="Path 706" d="M-362.438,548.474s-31.308,35.17-29.4,37.679S-360.562,552.109-362.438,548.474Z" transform="translate(424.196 -397.473)" fill="url(#linear-gradient-54)"/>
        </g>
      </g>
    </g>
  </g>
</svg>
