<?xml version="1.0" encoding="utf-8"?>
<!-- Generator: Adobe Illustrator 24.0.2, SVG Export Plug-In . SVG Version: 6.00 Build 0)  -->
<svg version="1.1" id="Layer_1" xmlns="http://www.w3.org/2000/svg" xmlns:xlink="http://www.w3.org/1999/xlink" x="0px" y="0px"
	 viewBox="0 0 663 720" style="enable-background:new 0 0 663 720;" xml:space="preserve">
<style type="text/css">
	.st0{fill:#E5F6FF;}
	.st1{opacity:0.5;fill:#E5F6FF;enable-background:new    ;}
	.st2{fill:#FFFFFF;}
	.st3{opacity:0.5;fill:#FFFFFF;enable-background:new    ;}
	.st4{opacity:0.5;fill:url(#Ellipse_6_1_);enable-background:new    ;}
	.st5{fill:url(#Path_404_1_);}
	.st6{opacity:0.3;fill:url(#Path_405_1_);enable-background:new    ;}
	.st7{fill:url(#Path_406_1_);}
	.st8{fill:url(#Path_407_1_);}
	.st9{opacity:0.3;fill:url(#Path_408_1_);enable-background:new    ;}
	.st10{fill:url(#Path_409_1_);}
	.st11{fill:url(#Path_410_1_);}
	.st12{opacity:0.3;fill:url(#Path_412_1_);enable-background:new    ;}
	.st13{fill:url(#Path_413_1_);}
	.st14{fill:url(#Path_414_1_);}
	.st15{opacity:0.3;fill:url(#Path_415_1_);enable-background:new    ;}
	.st16{fill:url(#Path_418_1_);}
	.st17{fill:url(#Path_419_1_);}
	.st18{fill:url(#Path_420_1_);}
	.st19{fill:url(#Path_422_1_);}
	.st20{fill:url(#Path_423_1_);}
	.st21{fill:url(#Path_424_1_);}
	.st22{fill:url(#Path_426_1_);}
	.st23{opacity:0.3;fill:url(#Path_427_1_);enable-background:new    ;}
	.st24{fill:url(#Path_428_1_);}
	.st25{fill:url(#Path_429_1_);}
	.st26{opacity:0.5;fill:url(#Path_430_1_);enable-background:new    ;}
	.st27{opacity:0.72;fill:url(#Path_433_1_);enable-background:new    ;}
	.st28{opacity:0.72;fill:url(#Path_434_1_);enable-background:new    ;}
	.st29{fill:url(#Path_435_1_);}
	.st30{fill:url(#Path_436_1_);}
	.st31{fill:url(#Path_437_1_);}
	.st32{fill:#22E0FF;}
	.st33{fill:#2F95CD;}
	.st34{fill:url(#Path_440_1_);}
	.st35{fill:url(#Path_441_1_);}
	.st36{fill:url(#Path_442_1_);}
	.st37{fill:url(#Path_443_1_);}
	.st38{fill:url(#Path_444_1_);}
	.st39{opacity:0.5;fill:url(#Path_445_1_);enable-background:new    ;}
	.st40{fill:url(#Path_446_1_);}
	.st41{opacity:0.5;fill:url(#Path_447_1_);enable-background:new    ;}
	.st42{opacity:0.5;fill:url(#Path_448_1_);enable-background:new    ;}
	.st43{fill:url(#Path_449_1_);}
	.st44{opacity:0.5;fill:url(#Path_450_1_);enable-background:new    ;}
	.st45{fill:url(#Path_451_1_);}
	.st46{fill:url(#Path_452_1_);}
	.st47{opacity:0.5;fill:#D9D2EC;enable-background:new    ;}
	.st48{opacity:0.5;fill:url(#Path_456_1_);enable-background:new    ;}
	.st49{opacity:0.5;fill:url(#Path_457_1_);enable-background:new    ;}
	.st50{opacity:0.2;fill:url(#Path_458_1_);enable-background:new    ;}
	.st51{opacity:0.5;fill:url(#Path_459_1_);enable-background:new    ;}
	.st52{fill:url(#Path_460_1_);}
	.st53{fill:url(#Path_461_1_);}
	.st54{fill:url(#Path_462_1_);}
	.st55{opacity:0.72;fill:url(#Path_463_1_);enable-background:new    ;}
	.st56{opacity:0.72;fill:url(#Path_464_1_);enable-background:new    ;}
	.st57{opacity:0.5;fill:url(#Path_465_1_);enable-background:new    ;}
	.st58{fill:url(#Path_466_1_);}
	.st59{fill:url(#Path_468_1_);}
</style>
<g id="pic-tether" transform="translate(-58.242 -515.064)">
	<g id="Group_100">
		<g id="Group_38" transform="translate(58.242 515.064)">
			<path id="Path_236" class="st0" d="M592,517.5c-9.7,19-20.5,30.4-32.5,36.4c-18.4,9.3-38.9,5.6-60.1-2.3
				c-0.6-0.2-1.4-0.4-1.9-0.8c-2.9-1.2-5.8-2.3-8.7-3.5c-33.3-14.1-67.7-35.6-97.5-32.7c-13.5,1.4-28.4,7-44.3,14.5
				c-14.3,6.8-29.4,14.9-45.3,22.6c-2.9,1.4-5.6,2.7-8.5,4.1c-7.3,3.5-14.9,6.8-22.6,9.9c-43.1,17-91.1,24.6-142.5-7.2
				c-36-22-108.1-147.4-25.5-271c91.7-137.5,336.7-135.4,407.5-96.3C635.3,260.5,631.8,438.6,592,517.5z"/>
			<g id="Group_36" transform="translate(4.628)">
				<path id="Path_237" class="st0" d="M488.2,114.7c-3.1,9.7-3.7,20.1-2.1,30.2c0.2,1.5,0.8,3.3,1.5,4.6c1.7,2.7,5.2,3.7,8.3,3.5
					c7.7-0.2,14.9-6.2,17.2-13.5c2.3-7.3,0.4-15.9-4.3-22c-2.7-3.3-6.4-6.2-10.4-6.6c-4.3-0.4-8.9,1.9-10.1,6.2
					c0.8,0.8,1.9,1,2.7,0.2c0.2-0.2,0.4-0.4,0.6-0.6L488.2,114.7z"/>
				<path id="Path_238" class="st0" d="M66.5,557c-3.1,9.7-3.7,20.1-2.1,30.2c0.2,1.5,0.8,3.3,1.5,4.6c1.7,2.7,5.2,3.7,8.3,3.5
					c7.7-0.2,14.9-6.2,17.2-13.5c2.3-7.3,0.4-15.9-4.3-22c-2.7-3.3-6.4-6.2-10.4-6.6c-4.3-0.4-8.9,1.9-10.1,6.2
					c0.8,0.8,1.9,1,2.7,0.2c0.2-0.2,0.4-0.4,0.6-0.6L66.5,557z"/>
				<path id="Path_239" class="st0" d="M504,141.8c-3.5,2.5-5.4,6.6-5.2,10.8c3.9,1.7,8.5,2.1,12,0c3.5-2.1,5.2-7.3,2.9-10.8
					c-2.3-3.5-8.9-2.5-9.7,1.5V141.8z"/>
				<path id="Path_240" class="st0" d="M500.5,178.7c-1.9,0-3.9,1-5,2.5c0.6,0.6,1.4,1.2,2.1,1.4c0.8,0.4,1.7,0.2,2.3-0.6
					c0.8-1,0.4-2.3-0.2-3.3l1,0.4L500.5,178.7z"/>
				<path id="Path_241" class="st0" d="M499.8,171.2c0-0.6,0.2-1.2,0.4-1.7c1.2,1,1.2,2.7,1,4.3c0,0.8-0.4,1.9-1.2,2.1
					c-0.6,0.2-1.2-0.2-1.7-0.2c-1.2-0.2-2.5,0.8-3.3-0.2c-0.4-0.6-0.4-1.4,0.2-1.7c0.4-0.4,1.2-0.8,1.7-1c1.4-0.6,2.7-1,4.1-1.5
					L499.8,171.2z"/>
				<path id="Path_242" class="st1" d="M501.1,269c-0.8,1,0.6,2.3,1.7,2.1c1.2-0.2,1.9-1.4,2.5-2.3c-1.4-1-3.3-1.2-4.6-0.4
					L501.1,269z"/>
				<path id="Path_243" class="st0" d="M544.4,273.5c0.6-0.4,1.2-0.2,1.5,0.2c0.4,0.6,0.4,1.2,0.2,1.7c0,0.4-0.2,0.6-0.4,1
					c-0.6,0.6-1.5,0.6-2.1,0l0,0c-0.6-0.6-0.4-1.5,0.2-2.1c0.6-0.6,1.5-0.6,2.1,0L544.4,273.5z"/>
				<path id="Path_244" class="st0" d="M514.3,190.7c-0.4-0.8-1.4-1.4-2.3-1c-0.2,0.2-0.6,0.2-0.6,0.6c0.2,0.6,0.6,1.2,1.2,1.5
					c0.6,0.4,1.4,0.4,1.7-0.2c0.4-0.4,0.4-1,0-1.4l-0.2-0.2L514.3,190.7z"/>
				<path id="Path_245" class="st0" d="M502.7,166.1c-1.4-0.4-2.9-0.2-4.3,0.6c0.8,1,1.5,1.9,2.3,2.7c0.4,0.4,0.8,0.8,1.4,1.2
					c1,0.2,2.1-0.4,2.3-1.4V169c0-1.2-0.6-2.1-1.5-2.7L502.7,166.1z"/>
				<path id="Path_246" class="st1" d="M535.2,259.6l0.8,1c0.8-0.2,1.2-0.6,1.2-1.4c0-0.6-0.6-1.2-1.2-1.2l0,0
					c-0.6,0.2-1,0.6-0.8,1.2C535,259.2,535,259.4,535.2,259.6L535.2,259.6z"/>
				<path id="Path_247" class="st0" d="M509,183.5c0.8,0,1.2-1.2,0.8-1.9c-0.4-0.6-1-1.4-1.5-1.9c-0.4-0.8-0.6-1.5-0.4-2.3
					c0.2-0.4,0.4-0.8,1-1c0.4,0,0.6,0,1,0.2c1.5,0.4,2.9,1.4,3.9,2.5c1,1.2,1.2,2.9,0.4,4.4c-1,1.4-2.7,1.9-4.3,1
					c-0.6-0.4-1-0.8-1.2-1.2L509,183.5z"/>
				<path id="Path_248" class="st0" d="M488.7,178.7c-1-0.2-1.9,0.4-2.1,1.5c-0.2,1,0.2,1.9,1,2.7c0.4,0.2,0.8,0.4,1.2,0.2
					c0.2-0.2,0.2-0.6,0.2-0.8c0-1.2,0-2.5,0-3.7H488.7z"/>
				<path id="Path_249" class="st0" d="M494,224.7c1.7-0.4,3.5,0.8,3.9,2.5c0,0.2,0,0.6,0,0.8c-1.5,0.2-3.3,0.4-4.6-0.4
					c-1.4-0.8-2.3-2.7-1.4-3.9c1-0.2,1.7-0.4,2.7-0.6L494,224.7z"/>
				<path id="Path_250" class="st0" d="M497.1,68.9c0-0.4,0.2-1,0.8-1l0,0c0.4,0,1,0.2,1.4,0.4c0.4,0.2,0.6,0.4,0.8,0.8
					c0.4,0.8,0.2,1.5-0.4,1.9c-0.6,0.4-1.4,0.6-2.1,0.2c-0.4-0.2-0.6-0.4-0.8-0.8c-0.2-0.4,0-0.8,0.4-1V68.9z"/>
				<path id="Path_251" class="st0" d="M508.1,199.8l-1,0.8c0.2,0.6,0.8,1.2,1.4,1.4c0.6,0.2,1.5-0.4,1.2-1
					c-0.2-0.2-0.2-0.4-0.4-0.6l-1.7-1.5L508.1,199.8z"/>
				<path id="Path_252" class="st0" d="M512.3,221.8c-0.8,0.8-1.4,1.5-1.7,2.5c-0.4,1,0,2.1,0.8,2.9c0.4,0.4,1,0.4,1.4,0.4
					c1.5,0,2.9-1.4,2.9-2.9c0-1.5-1.4-2.9-2.9-2.9C512.5,222,512.5,222,512.3,221.8L512.3,221.8z"/>
				<path id="Path_253" class="st0" d="M505.6,230.3l-0.2,2.1c0.6,0.2,1,0.2,1.5,0.2c0.6-1,0.2-2.1-0.8-2.7L505.6,230.3z"/>
				<path id="Path_254" class="st0" d="M454.9,186.6c0.6,4.1,1.9,7.9,4.3,11.4c0.4,0.6,0.8,1,1.4,1.4c1.2,0.6,2.5,0.6,3.7-0.2
					c2.7-1.5,4.4-4.6,4.1-7.7c-0.4-3.1-2.5-5.8-5.2-7.2c-1.5-0.8-3.3-1.2-5-0.6c-1.7,0.6-2.7,2.1-2.5,3.9c0.4,0.2,1,0,1-0.4
					c0-0.2,0-0.2,0-0.4L454.9,186.6z"/>
				<path id="Path_255" class="st0" d="M532.3,154.3c-1.5,1.2-2.5,3.1-2.5,5c0.8,0.2,1.7,0,2.5-0.2s1.5-1,1.5-1.9
					c0-1.2-1.2-1.9-2.1-2.7l1-0.2H532.3z"/>
				<path id="Path_256" class="st0" d="M537.7,167.3c-0.4,0.4-0.4,1-0.4,1.5c0.2,0.6,0.4,1,1,1.4c1,1,1.9,2.1,2.7,3.3l0.6-7.2
					c0-0.2,0-0.4,0.2-0.6c0.4-0.6,1.2-0.4,1.7-0.8c0.8-0.4,0.8-1.7,0.6-2.7C541.9,155.7,539,164.6,537.7,167.3z"/>
				<path id="Path_257" class="st0" d="M526.5,142.9c-1.4,0.4-2.5,1.5-3.1,2.9c1.2,0.4,2.3,0.6,3.5,1c0.6,0.2,1.2,0.2,1.7,0.2
					c1-0.4,1.5-1.5,1-2.5c0,0,0-0.2-0.2-0.2c-0.6-1-1.7-1.4-2.9-1.2L526.5,142.9z"/>
				<path id="Path_258" class="st0" d="M522.8,161.5c-1,0.4-1.4,1.5-1,2.5c0.4,1,1.4,1.5,2.3,1.5c0.4,0,1-0.2,1-0.6
					c0-0.4,0-0.6-0.4-0.8l-2.1-2.9L522.8,161.5z"/>
				<path id="Path_259" class="st0" d="M506.5,156.3c-0.8,0.8-1.4,1.5-1.7,2.5c-0.4,1,0,2.1,0.8,2.9c0.4,0.4,1,0.4,1.4,0.4
					c1.5,0,2.9-1.4,2.7-2.9c-0.2-1.5-1.4-2.9-2.9-2.7C506.7,156.5,506.5,156.5,506.5,156.3L506.5,156.3z"/>
				<path id="Path_260" class="st0" d="M488.5,205.2c0.4,1,1.7,1,2.7,1c1-0.2,2.3-0.2,2.9,0.6c0.2,0.2,0.2,0.6,0.2,0.8
					c-0.2,0.8-1.2,0.6-1.9,0.6c-0.6,0.2-1.2,0.4-1.5,0.8c-1.4,0.6-2.9,0.2-3.9-0.8c-0.2-1,0.4-2.1,1.4-2.3c0.4-0.2,1,0,1.4,0.2
					L488.5,205.2z"/>
				<path id="Path_261" class="st0" d="M505.4,224.9c0.4,1,1.7,1,2.7,1s2.3-0.2,2.9,0.6c0.2,0.2,0.2,0.6,0.2,0.8
					c-0.2,0.8-1.2,0.6-1.9,0.6c-0.6,0.2-1.2,0.4-1.5,0.8c-1.4,0.6-2.9,0.2-3.9-1c-0.2-1,0.4-2.1,1.4-2.3c0.4-0.2,1,0,1.4,0.2
					L505.4,224.9z"/>
				<path id="Path_262" class="st0" d="M502.7,244.1c-0.2,0.8-0.2,1.7-0.2,2.5c0,0.2,0,0.2,0.2,0.4c0.2,0.2,0.4,0.4,0.8,0.2
					c0.6,0,1.2-0.6,1.4-1.2c0.2-0.6,0-1.4-0.4-1.7c-0.2-0.2-0.6-0.4-1-0.6c-0.4,0-0.8,0.2-0.8,0.6h0.2l0,0L502.7,244.1z"/>
				<path id="Path_263" class="st0" d="M506.5,120.7c-1.5,1.2-2.5,3.1-2.5,5c0.8,0.2,1.7,0,2.5-0.2s1.5-1,1.5-1.9
					c0-1.2-1.2-1.9-2.1-2.7l1-0.2H506.5z"/>
				<path id="Path_264" class="st0" d="M524.7,121.8c-0.8-0.4-1.9-0.2-2.3,0.6c-0.2,0.2-0.2,0.6-0.2,0.8c0.6,0.4,1.2,0.6,1.7,0.6
					c0.6,0,1.2-0.6,1.4-1.2c0-0.6-0.6-1.4-1.2-1L524.7,121.8z"/>
				<path id="Path_265" class="st0" d="M510.8,151.1c-0.8-0.4-1.9-0.2-2.3,0.6c-0.2,0.2-0.2,0.6-0.2,0.8c0.6,0.4,1.2,0.6,1.7,0.6
					s1.2-0.6,1.4-1.2c0-0.6-0.6-1.4-1.2-1L510.8,151.1z"/>
				<path id="Path_266" class="st0" d="M516.4,119.3c0.6-0.6,0.2-1.5-0.6-1.9c-0.8-0.2-1.5-0.4-2.3-0.6c-0.8-0.4-1.4-1-1.7-1.7
					c-0.2-0.4-0.2-1,0.2-1.4c0.2-0.2,0.6-0.4,0.8-0.4c1.5-0.6,3.1-0.6,4.6-0.2c1.5,0.4,2.7,1.5,3.1,3.3c0.2,1.7-1.2,3.1-2.7,3.3
					c-0.6,0-1.2,0-1.7-0.4H516.4z"/>
				<path id="Path_267" class="st0" d="M498.2,209.5c0.6-0.6,0.2-1.5-0.6-1.9c-0.8-0.4-1.5-0.4-2.3-0.6c-0.8-0.4-1.4-1-1.7-1.7
					c-0.2-0.4-0.2-1,0.2-1.4c0.2-0.2,0.6-0.4,0.8-0.4c1.5-0.6,3.1-0.6,4.6-0.2c1.5,0.4,2.7,1.5,3.1,3.3c0.2,1.7-1.2,3.1-2.7,3.3
					c-0.6,0-1.2,0-1.5-0.4H498.2z"/>
				<path id="Path_268" class="st0" d="M488.2,208.9c0.6-0.6,0.2-1.5-0.6-1.9c-0.8-0.2-1.5-0.4-2.3-0.6c-0.8-0.4-1.4-1-1.7-1.7
					c-0.2-0.4-0.2-1,0.2-1.4c0.2-0.2,0.6-0.4,0.8-0.4c1.5-0.6,3.1-0.6,4.6-0.2c1.5,0.4,2.7,1.5,3.1,3.3c0.2,1.7-1.2,3.1-2.7,3.3
					c-0.6,0-1.2,0-1.5-0.4H488.2z"/>
				<path id="Path_269" class="st0" d="M492,193.6c0.6-0.6,0.2-1.5-0.6-1.9s-1.5-0.4-2.3-0.6c-0.8-0.4-1.4-1-1.7-1.7
					c-0.2-0.4-0.2-1,0.2-1.4c0.2-0.2,0.6-0.4,0.8-0.4c1.5-0.6,3.1-0.6,4.6-0.2c1.5,0.4,2.7,1.5,3.1,3.3c0.2,1.7-1.2,3.1-2.7,3.3
					c-0.6,0-1.2,0-1.7-0.4H492z"/>
				<path id="Path_270" class="st0" d="M591.2,242.5c0.6-0.6,0.2-1.5-0.6-1.9c-0.8-0.2-1.5-0.4-2.3-0.6c-0.8-0.4-1.4-1-1.7-1.7
					c-0.2-0.4-0.2-1,0.2-1.4c0.2-0.2,0.6-0.4,0.8-0.4c1.5-0.6,3.1-0.6,4.6-0.2c1.5,0.4,2.7,1.5,3.1,3.3c0.2,1.7-1.2,3.1-2.7,3.3
					c-0.6,0-1.2,0-1.7-0.4H591.2z"/>
				<path id="Path_271" class="st0" d="M525.3,133.1c-0.2,0.4-0.2,0.8-0.4,1.2c0.6,0.4,1.2,0.4,1.9,0.4c0.6-0.2,1-1.2,0.4-1.5
					c-0.2-0.2-0.4-0.2-0.8-0.2c-0.8,0-1.5,0-2.3-0.2L525.3,133.1z"/>
				<path id="Path_272" class="st0" d="M549.7,212.4c-0.8,0.8-1.4,1.5-1.7,2.5c-0.4,1,0,2.1,0.8,2.9c0.4,0.4,1,0.4,1.5,0.4
					c1.5,0,2.9-1.4,2.9-2.9c0-1.5-1.4-2.9-2.9-2.9C549.9,212.6,549.7,212.6,549.7,212.4L549.7,212.4z"/>
				<path id="Path_273" class="st0" d="M495.5,144.7c0.2-1.2,1.2-1.9,2.3-1.9c0.4,0,0.6,0.2,1,0.4c0.2,0.8,0.2,1.5,0.2,2.5
					c-1,0.2-1.7-0.2-2.5-0.6L495.5,144.7z"/>
				<path id="Path_274" class="st1" d="M542.3,223.4c-0.4,0.6-0.6,1-0.6,1.5c-0.2,0.6,0.2,1.2,0.8,1.5c1,0.4,1.9-0.4,2.9-0.4
					c1,0,1.9,0.8,2.9,0.4c1-0.4,1-1.7,0.4-2.5c-0.6-0.8-1.5-1.2-2.5-1.4c-0.8-0.2-1.7-0.4-2.5-0.2c-0.8,0.2-1.5,1-1.4,1.9
					L542.3,223.4z"/>
				<path id="Path_275" class="st0" d="M502.9,187.4c-4.3,0-8.3,2.1-10.6,5.6c1.9,3.7,5.4,6.8,9.7,7.2c4.3,0.4,8.7-2.7,8.7-7
					c0-4.3-5.6-7.3-8.7-4.6L502.9,187.4z"/>
				<path id="Path_276" class="st0" d="M486,143.7c0.6,0,1,0.6,1,1.2c0,0.6-0.4,1.2-0.8,1.5c-0.2,0.2-0.6,0.4-1,0.4
					c-0.8,0.2-1.5-0.4-1.5-1.2l0,0c0-0.8,0.6-1.5,1.4-1.5c0.8,0,1.5,0.6,1.7,1.4L486,143.7z"/>
				<path id="Path_277" class="st0" d="M494.4,165c0.8,0.8,1.9,0.4,2.9,0c1-0.4,2.1-1,2.9-0.4c0.2,0.2,0.4,0.4,0.4,0.8
					c0,0.8-1,1-1.5,1.4c-0.4,0.4-1,0.8-1.4,1.2c-1.2,1-2.7,1.2-3.9,0.4c-0.6-1-0.4-2.1,0.6-2.7c0.4-0.2,1-0.4,1.4-0.4L494.4,165z"/>
				<path id="Path_278" class="st0" d="M517.6,189.2v1.2c0.6,0.4,1.4,0.2,1.7-0.4c0.4-0.6,0.2-1.4-0.2-1.7l0,0
					c-0.6-0.2-1.2,0-1.4,0.4C517.6,188.8,517.4,188.8,517.6,189.2L517.6,189.2z"/>
				<path id="Path_279" class="st0" d="M508.1,168.1c0.2-0.4,0.8-0.6,1.2-0.4l0,0c0.4,0.2,0.6,0.6,0.8,1.2c0.2,0.4,0.2,0.8,0.2,1.2
					c-0.2,0.8-0.8,1.4-1.5,1.4c-0.8,0-1.4-0.4-1.7-1c-0.2-0.4-0.2-0.6-0.2-1s0.4-0.6,0.8-0.6L508.1,168.1z"/>
				<path id="Path_280" class="st0" d="M542.3,161.1c-3.1-2.9-7.5-3.9-11.6-2.7c-1,4.1-0.4,8.7,2.5,11.8c2.9,3.1,8.3,3.5,11,0.4
					c2.7-3.1,0.6-9.3-3.7-9.1L542.3,161.1z"/>
				<path id="Path_281" class="st0" d="M520.3,136.9c-0.8,1,0.6,2.3,1.7,2.1c1.2-0.2,1.9-1.4,2.5-2.3c-1.4-1-3.3-1.2-4.6-0.4
					L520.3,136.9z"/>
				<path id="Path_282" class="st0" d="M480.6,156.3v1.2c0.6,0.4,1.4,0.2,1.7-0.4c0.4-0.6,0.2-1.4-0.2-1.7l0,0
					c-0.6-0.2-1.2,0-1.4,0.4C480.6,155.9,480.6,155.9,480.6,156.3L480.6,156.3z"/>
				<path id="Path_283" class="st0" d="M502.1,160.3c-1.4,4.3-1.9,8.7-1.4,13.2c0,0.8,0.2,1.4,0.6,2.1c0.8,1.2,2.1,1.7,3.7,1.5
					c3.5-0.2,6.6-2.3,7.5-5.6c1-3.3,0.4-6.8-1.5-9.5c-1-1.5-2.7-2.7-4.4-3.1c-1.7-0.2-3.9,0.8-4.4,2.5c0.4,0.4,0.8,0.4,1.2,0.2
					l0.2-0.2L502.1,160.3z"/>
				<path id="Path_284" class="st0" d="M569.6,187.8c-3.5,2.5-5.4,6.6-5.2,10.8c3.9,1.7,8.5,2.1,12,0c3.5-2.1,5.2-7.3,2.9-10.8
					c-2.5-3.3-8.9-2.5-9.7,1.5V187.8z"/>
				<path id="Path_285" class="st0" d="M106.6,570.7c-3.5,2.5-5.4,6.6-5,10.8c3.9,1.7,8.5,2.1,12,0c3.5-2.1,5.2-7.3,2.9-10.8
					c-2.5-3.3-8.9-2.5-9.7,1.5L106.6,570.7z"/>
				<path id="Path_286" class="st0" d="M509.2,238.3c-1.5,1.2-2.5,3.1-2.5,5c0.8,0.2,1.7,0,2.5-0.2c0.8-0.2,1.5-1,1.5-1.9
					c0-1.2-1.2-1.9-2.1-2.7l1-0.2H509.2z"/>
				<path id="Path_287" class="st0" d="M514.7,251.2c-0.4,0.4-0.4,1-0.4,1.5c0.2,0.6,0.4,1,1,1.4c1,1,1.9,2.1,2.7,3.3l0.6-7.2
					c0-0.2,0-0.4,0.2-0.6c0.4-0.6,1.2-0.4,1.7-0.8c0.8-0.4,0.8-1.7,0.6-2.7C518.9,239.6,516,248.5,514.7,251.2z"/>
				<path id="Path_288" class="st0" d="M492.8,169.4c0,0.8-0.2,1.4-0.2,2.1c1.4,0.2,2.9-0.6,3.5-1.9c0.4-1.4-0.8-3.1-2.1-2.7
					c-0.8,0.2-2.1,1-2.3,0.2L492.8,169.4z"/>
				<path id="Path_289" class="st0" d="M524.5,220.5c0-0.6,0.2-1.2,0.4-1.7c1.2,1,1.2,2.7,1,4.3c0,0.8-0.4,1.9-1.2,2.1
					c-0.6,0.2-1.2-0.2-1.7-0.2c-1.2-0.2-2.5,0.8-3.3-0.2c-0.4-0.6-0.4-1.4,0.2-1.7c0.4-0.4,1.2-0.8,1.7-1c1.4-0.6,2.7-1,4.1-1.5
					H524.5z"/>
				<path id="Path_290" class="st0" d="M547.5,219.9c-0.8,1,0.6,2.3,1.7,2.1c1.2-0.2,1.9-1.4,2.5-2.3c-1.4-1-3.3-1.2-4.6-0.4
					L547.5,219.9z"/>
				<path id="Path_291" class="st1" d="M534.6,242.5c0.6-0.4,1.2-0.2,1.5,0.2c0.4,0.6,0.4,1.2,0.2,1.7c0,0.4-0.2,0.6-0.4,1
					c-0.6,0.6-1.5,0.6-2.1,0l0,0c-0.6-0.6-0.4-1.5,0.2-2.1c0.6-0.6,1.5-0.6,2.1,0L534.6,242.5z"/>
				<path id="Path_292" class="st0" d="M527.4,239.6c-0.8-0.4-1.9-0.2-2.3,0.6c-0.2,0.2-0.2,0.6-0.2,0.8c0.6,0.4,1.2,0.6,1.7,0.6
					s1.2-0.6,1.4-1.2c0-0.6-0.6-1.4-1.2-1L527.4,239.6z"/>
				<path id="Path_293" class="st0" d="M503.2,226.7c-1.4,0.4-2.5,1.5-3.1,2.9c1.2,0.4,2.3,0.6,3.5,1c0.6,0.2,1.2,0.2,1.7,0.2
					c1-0.4,1.5-1.5,1-2.5c0,0,0-0.2-0.2-0.2c-0.6-1-1.7-1.4-2.9-1.2L503.2,226.7z"/>
				<path id="Path_294" class="st1" d="M549.9,234.8c1-0.8,2.3-0.6,3.1,0.4c0.4,0.4,0.6,1,0.4,1.5c0,0.6-0.6,1.2-1.2,1
					c-0.2,0-0.4-0.2-0.6-0.4l-2.1-2.3L549.9,234.8L549.9,234.8z"/>
				<path id="Path_295" class="st1" d="M564.6,242.5c0.4,1,1.7,1,2.7,1c1,0,2.3-0.2,2.9,0.6c0.2,0.2,0.2,0.6,0.2,0.8
					c-0.2,0.8-1.2,0.6-1.9,0.6c-0.6,0.2-1.2,0.4-1.5,0.8c-1.4,0.6-2.9,0.2-3.9-0.8c-0.2-1,0.4-2.1,1.4-2.3c0.4-0.2,1,0,1.4,0.2
					L564.6,242.5z"/>
				<path id="Path_296" class="st1" d="M478.3,201.9c0.4,1,1.7,1,2.7,1s2.3-0.2,2.9,0.6c0.2,0.2,0.2,0.6,0.2,0.8
					c-0.2,0.8-1.2,0.6-1.9,0.6c-0.6,0.2-1.2,0.4-1.5,0.8c-1.4,0.6-2.9,0.2-3.9-0.8c-0.2-1,0.4-2.1,1.4-2.3c0.4-0.2,1,0,1.4,0.2
					L478.3,201.9z"/>
				<path id="Path_297" class="st1" d="M559.5,251.8c-0.2,0.4-0.2,0.8-0.4,1.2c0.4,0.6,1.2,0.6,1.7,0.2c0.6-0.4,0.8-1.2,0.4-1.7l0,0
					c-0.4-0.4-1.2-0.4-1.5,0C559.7,251.4,559.7,251.4,559.5,251.8L559.5,251.8z"/>
				<path id="Path_298" class="st0" d="M518.9,236.9c0.6-0.6,0.2-1.5-0.6-1.9c-0.8-0.2-1.5-0.4-2.3-0.6c-0.8-0.4-1.4-1-1.7-1.7
					c-0.2-0.4-0.2-1,0.2-1.4c0.2-0.2,0.6-0.4,0.8-0.4c1.5-0.6,3.1-0.6,4.6-0.2c1.5,0.4,2.7,1.5,3.1,3.3c0.2,1.7-1.2,3.1-2.7,3.3
					c-0.6,0-1.2,0-1.7-0.4H518.9z"/>
				<path id="Path_299" class="st0" d="M499.6,245.4c-1,0.4-1.4,1.5-1,2.5c0.4,1,1.4,1.5,2.3,1.5c0.4,0,1-0.2,1-0.6s0-0.6-0.4-0.8
					c-0.8-1-1.4-1.9-2.1-2.9L499.6,245.4z"/>
				<path id="Path_300" class="st0" d="M537.3,206.2c1.7-0.4,3.5,0.8,3.9,2.5c0,0.2,0,0.6,0,0.8c-1.5,0.2-3.3,0.4-4.6-0.4
					c-1.4-0.8-2.3-2.7-1.4-3.9c1-0.2,1.7-0.4,2.7-0.6L537.3,206.2z"/>
				<path id="Path_301" class="st1" d="M528,250.7c-0.2,0.4-0.2,0.8-0.4,1.2c0.6,0.4,1.2,0.4,1.9,0.4c0.6-0.2,1-1.2,0.4-1.5
					c-0.2-0.2-0.4-0.2-0.8-0.2c-0.8,0-1.5,0-2.3-0.2L528,250.7z"/>
				<path id="Path_302" class="st0" d="M504.8,141.8c-0.8,0.8-1.4,1.5-1.7,2.5c-0.4,1,0,2.1,0.8,2.9c0.4,0.4,1,0.4,1.5,0.4
					c1.5,0,2.9-1.4,2.9-2.9c0-1.5-1.4-2.9-2.9-2.9C505,142,505,142,504.8,141.8L504.8,141.8z"/>
				<path id="Path_303" class="st0" d="M551.8,181.4l-0.2,2.1c0.6,0.2,1,0.2,1.5,0.2c0.6-1,0.2-2.1-0.8-2.7L551.8,181.4z"/>
				<path id="Path_304" class="st0" d="M508.5,87.2c0.6-0.4,1.2-0.2,1.5,0.4c0.4,0.6,0.4,1.2,0.2,1.7c0,0.4-0.2,0.6-0.4,1
					c-0.6,0.6-1.5,0.6-2.1,0l0,0c-0.6-0.6-0.4-1.5,0.2-2.1c0.6-0.6,1.5-0.6,2.1,0L508.5,87.2z"/>
				<path id="Path_305" class="st0" d="M539.8,194c0,0.8-0.2,1.4-0.2,2.1c0.6,0.2,1,0.2,1.5,0.2c0.6-1,0.2-2.1-0.8-2.7L539.8,194z"
					/>
				<path id="Path_306" class="st0" d="M482.2,188.6c-0.8,0.2-0.6,1.4,0,1.9c0.6,0.4,1.4,0.8,1.9,1.2c0.6,0.6,1,1.4,1.2,2.1
					c0,0.4-0.2,1-0.6,1.2c-0.2,0.2-0.6,0.2-1,0.2c-1.5,0-3.1-0.4-4.4-1.2c-1.4-0.8-2.1-2.3-1.9-3.9c0.4-1.7,1.9-2.7,3.7-2.3
					c0.6,0.2,1.2,0.4,1.5,0.8H482.2z"/>
				<path id="Path_307" class="st0" d="M512.7,159.9c0.4-0.4,0.8-0.8,1.2-1.4c0.2-0.6,0.2-1.2-0.2-1.7c-0.8-0.6-1.9-0.2-2.9-0.4
					c-1-0.2-1.5-1.4-2.5-1.4s-1.5,1.4-1.2,2.3c0.4,1,1.2,1.5,1.9,2.1c0.8,0.6,1.5,0.8,2.3,1c1,0,1.7-0.6,1.9-1.4L512.7,159.9z"/>
				<path id="Path_308" class="st0" d="M507.1,205c0-3.7-0.6-7.2-2.1-10.4c-0.2-0.6-0.6-1-1-1.4c-1-0.6-2.1-0.8-3.3-0.4
					c-2.7,1-4.4,3.5-4.4,6.2c0,2.7,1.4,5.4,3.7,7c1.2,1,2.7,1.4,4.3,1.2c1.5-0.2,2.7-1.5,2.7-3.1c-0.4-0.2-0.8-0.2-1,0.2
					c0,0,0,0.2-0.2,0.2L507.1,205z"/>
				<path id="Path_309" class="st0" d="M482.6,196.1c-0.6,0-1.2,0.2-1.5,0.4c-0.4,0.4-0.6,1-0.6,1.4c-0.4,1.4-0.8,2.7-1.4,4.1
					l6.6-3.1c0.2,0,0.4-0.2,0.6-0.2c0.6,0,1,0.8,1.5,1.2c0.8,0.6,1.9-0.2,2.5-0.8C494.7,194,485.6,196.1,482.6,196.1z"/>
				<path id="Path_310" class="st0" d="M506.1,205.2l-0.6,1.2c0.4,0.6,1.2,0.8,1.7,0.4c0.6-0.4,0.8-1.2,0.4-1.7l0,0
					c-0.4-0.4-1-0.6-1.5-0.2C506.3,205,506.3,205,506.1,205.2L506.1,205.2z"/>
				<path id="Path_311" class="st0" d="M487,206.8c-0.8-0.6-1.9-0.4-2.5,0.4c-0.6,0.8-0.6,1.9,0,2.9c0.2,0.4,0.6,0.8,1,0.6
					c0.2-0.2,0.4-0.4,0.6-0.6c0.6-1.2,1-2.1,1.5-3.3H487z"/>
				<path id="Path_312" class="st0" d="M499.8,208.7c-1.7-0.8-3.9-0.6-5.6,0.4c0.4,0.8,0.8,1.5,1.4,2.1c0.6,0.6,1.5,0.8,2.3,0.6
					c1-0.6,1.2-1.9,1.2-3.1l0.8,0.8L499.8,208.7z"/>
				<path id="Path_313" class="st0" d="M506.5,214.1c0.6-0.4,1.2-0.4,1.7-0.4c-0.4,1.5-1.7,2.3-3.1,2.9c-0.8,0.4-1.7,0.6-2.3,0
					c-0.4-0.4-0.4-1.2-0.6-1.5c-0.4-1.2-1.9-1.9-1.5-3.1c0.4-0.6,1-1,1.7-0.8c0.6,0.2,1.2,0.6,1.7,1c1.2,1,2.3,1.7,3.3,2.7
					L506.5,214.1z"/>
				<path id="Path_314" class="st0" d="M490.7,198.8c-1.2-1-2.7-1.4-4.1-1.2c0.4,1.2,0.6,2.3,1,3.5c0.2,0.6,0.4,1.2,0.8,1.5
					c0.8,0.6,2.1,0.6,2.7-0.4c0,0,0-0.2,0.2-0.2c0.6-1,0.4-2.3-0.4-3.1L490.7,198.8z"/>
				<path id="Path_315" class="st0" d="M489.5,217.6c0.8,0.4,1.4-0.6,1.4-1.4c-0.2-0.8-0.4-1.5-0.6-2.3c-0.2-0.8,0.2-1.7,0.6-2.3
					c0.2-0.4,0.8-0.6,1.2-0.6c0.4,0,0.6,0.2,0.8,0.6c1.2,1,2.1,2.3,2.5,3.9c0.4,1.5,0,3.3-1.4,4.3c-1.4,1-3.3,0.6-4.3-0.8
					c-0.4-0.4-0.6-1-0.6-1.5L489.5,217.6z"/>
				<path id="Path_316" class="st0" d="M522,178.1c-1-0.2-2.1-0.4-3.1-0.2c-1,0.2-1.9,1-2.1,1.9c0,0.6,0,1,0.4,1.5
					c0.8,1.4,2.5,1.7,3.9,1c1.4-0.8,1.7-2.5,1-3.9C522,178.3,521.8,178.3,522,178.1L522,178.1z"/>
				<path id="Path_317" class="st0" d="M500,170.6c-1.7-0.8-3.9-0.6-5.6,0.4c0.4,0.8,0.8,1.5,1.4,2.1c0.6,0.6,1.5,0.8,2.3,0.6
					c1-0.6,1.2-1.9,1.2-3.1l0.8,0.8L500,170.6z"/>
				<path id="Path_318" class="st0" d="M508.3,217.4c0.4,1,1.7,1.2,2.7,1.2s2.3,0,2.9,0.8c0.2,0.2,0.2,0.6,0.2,0.8
					c-0.2,0.8-1.4,0.4-1.9,0.6c-0.6,0.2-1.2,0.4-1.7,0.6c-1.4,0.4-2.9,0-3.9-1.2c-0.2-1,0.6-2.1,1.5-2.3c0.6,0,1,0,1.4,0.2
					L508.3,217.4z"/>
				<path id="Path_319" class="st0" d="M533.6,140.8l0.2,1.2c0.6,0.2,1.4-0.2,1.7-0.8c0.2-0.6,0-1.4-0.6-1.5l0,0
					c-0.6-0.2-1.2,0.2-1.4,0.8C533.6,140.4,533.6,140.6,533.6,140.8L533.6,140.8z"/>
				<path id="Path_320" class="st0" d="M498.6,193l-1.2,0.2c0,0.6,0.2,1.4,0.6,1.7c0.4,0.4,1.5,0.2,1.5-0.4c0-0.2,0-0.6-0.2-0.8
					l-1.2-2.1L498.6,193z"/>
			</g>
			<g id="Group_37" transform="translate(18.493 393.085)">
				<path id="Path_321" class="st2" d="M129.4,115c2.5-6.6,3.3-13.5,2.7-20.5c0-1.2-0.4-2.1-0.8-3.3c-1.2-1.9-3.5-2.7-5.6-2.7
					c-5.2-0.2-10.3,3.7-12.2,8.5c-1.9,5-1,10.8,2.1,15.1c1.7,2.3,4.1,4.4,7,5c2.9,0.6,6.2-1,7-3.9c-0.4-0.6-1.4-0.8-1.9-0.2
					c-0.2,0.2-0.2,0.2-0.4,0.4L129.4,115z"/>
				<path id="Path_322" class="st2" d="M119.5,95.8c2.5-1.5,3.9-4.3,3.9-7.2c-2.5-1.4-5.6-1.7-8.1-0.4c-2.5,1.4-3.9,4.8-2.3,7.2
					s6,2.1,6.6-0.8L119.5,95.8z"/>
				<path id="Path_323" class="st2" d="M123.4,70.7c1.4,0,2.7-0.6,3.5-1.5c-0.4-0.4-1-0.8-1.4-1c-0.6-0.2-1.2-0.2-1.7,0.2
					c-0.6,0.6-0.4,1.5,0,2.3l-0.6-0.2L123.4,70.7z"/>
				<path id="Path_324" class="st2" d="M123.8,75.9c0,0.4-0.2,0.8-0.4,1.2c-0.8-0.8-0.6-1.9-0.6-2.9c0-0.6,0.4-1.2,0.8-1.4
					c0.4,0,0.8,0.2,1.2,0.2c0.8,0.2,1.7-0.4,2.3,0.2c0.2,0.4,0.2,1-0.2,1.2c-0.4,0.4-0.8,0.6-1.2,0.6c-1,0.4-1.9,0.6-2.9,1
					L123.8,75.9z"/>
				<path id="Path_325" class="st3" d="M126.5,9.2c0.6-0.6-0.2-1.7-1-1.5c-0.8,0.2-1.5,0.8-1.9,1.5c1,0.8,2.1,1,3.3,0.4L126.5,9.2z"
					/>
				<path id="Path_326" class="st2" d="M97.3,4.5c-0.4,0.2-0.8,0-1-0.2c-0.2-0.4-0.2-0.8-0.2-1.2c0-0.2,0.2-0.4,0.4-0.6
					c0.4-0.4,1-0.4,1.4,0l0,0c0.4,0.4,0.2,1.2-0.2,1.4c-0.4,0.4-1,0.2-1.5,0L97.3,4.5z"/>
				<path id="Path_327" class="st2" d="M114.5,62.2c0.2,0.6,1,1,1.5,0.8c0.2,0,0.4-0.2,0.4-0.4c-0.2-0.4-0.4-0.8-0.8-1.2
					c-0.4-0.2-0.8-0.2-1.2,0c-0.2,0.2-0.2,0.6,0,1l0.2,0.2L114.5,62.2z"/>
				<path id="Path_328" class="st2" d="M121.5,79.4c1,0.4,1.9,0.2,2.9-0.2l-1.4-1.9c-0.2-0.4-0.4-0.6-0.8-0.8
					c-0.8-0.2-1.4,0.2-1.7,0.8v0.2C120.3,78.2,120.7,78.8,121.5,79.4L121.5,79.4z"/>
				<path id="Path_329" class="st3" d="M103.1,14.2l-0.4-0.8c-0.4,0-0.8,0.4-1,1c0,0.4,0.4,0.8,0.8,1l0,0c0.4,0,0.8-0.4,0.6-0.8
					C103.1,14.4,103.1,14.4,103.1,14.2L103.1,14.2z"/>
				<path id="Path_330" class="st2" d="M117.8,67.2c-0.6,0-0.8,0.8-0.6,1.2c0.2,0.6,0.6,0.8,1,1.4c0.2,0.6,0.4,1.2,0.2,1.5
					c0,0.4-0.4,0.6-0.6,0.6c-0.2,0-0.4,0-0.6-0.2c-1-0.4-1.9-1-2.5-1.9c-0.6-1-0.8-2.1-0.2-3.1c0.6-1,1.9-1.2,2.9-0.6
					C117.6,66.6,117.8,67,117.8,67.2L117.8,67.2z"/>
				<path id="Path_331" class="st2" d="M131.5,71.3c0.8,0.2,1.4-0.2,1.5-1c0.2-0.6,0-1.4-0.6-1.7c-0.2-0.2-0.6-0.4-0.8-0.2
					c-0.2,0.2-0.2,0.4-0.2,0.6l-0.2,2.5L131.5,71.3z"/>
				<path id="Path_332" class="st2" d="M129.8,39.5c-1.2,0.2-2.3-0.6-2.5-1.9c0-0.2,0-0.4,0-0.6c1-0.2,2.1,0,3.1,0.4
					c1,0.6,1.4,1.9,0.8,2.7c-0.6,0.2-1.2,0.2-1.7,0.4L129.8,39.5z"/>
				<path id="Path_333" class="st2" d="M121.5,145.9c0,0.4-0.2,0.6-0.6,0.6l0,0c-0.4,0-0.6-0.2-0.8-0.4s-0.4-0.4-0.6-0.6
					c-0.2-0.4,0-1,0.4-1.4c0.4-0.2,1-0.4,1.4,0c0.2,0.2,0.4,0.2,0.6,0.6c0,0.2,0,0.6-0.2,0.6L121.5,145.9z"/>
				<path id="Path_334" class="st2" d="M119.1,56c0.2-0.2,0.6-0.4,0.8-0.4c-0.2-0.4-0.4-0.8-0.8-1c-0.4-0.2-1,0.2-1,0.6
					c0,0.2,0.2,0.4,0.4,0.4c0.4,0.4,0.8,0.8,1.2,1.2L119.1,56z"/>
				<path id="Path_335" class="st2" d="M117,40.9c0.6-0.4,1-1,1.2-1.7c0.4-0.6,0.2-1.4-0.4-1.9c-0.2-0.2-0.6-0.4-1-0.4
					c-1.2,0-1.9,0.8-1.9,1.9C114.9,39.7,115.9,40.7,117,40.9C117,40.7,117,40.7,117,40.9L117,40.9z"/>
				<path id="Path_336" class="st2" d="M122,35.3l0.2-1.4c-0.4-0.2-0.8-0.2-1.2-0.2c-0.4,0.6-0.2,1.5,0.4,1.9L122,35.3z"/>
				<path id="Path_337" class="st2" d="M154.9,67.2c-0.2-2.7-1-5.4-2.5-7.9c-0.2-0.4-0.6-0.8-0.8-1c-0.8-0.4-1.7-0.4-2.5,0
					c-1.9,1-3.1,2.9-3.1,5.2c0.2,2.1,1.4,4.1,3.3,5.2c1,0.6,2.1,1,3.3,0.6c1.2-0.2,1.9-1.4,1.9-2.5c-0.2-0.2-0.6,0-0.8,0.2v0.2
					H154.9z"/>
				<path id="Path_338" class="st2" d="M100.8,86.1c1.2-0.8,1.7-1.9,1.9-3.3c-0.6-0.2-1.2-0.2-1.7,0s-1,0.6-1.2,1.2
					c0,0.8,0.6,1.4,1.4,1.9l-0.6,0.2L100.8,86.1z"/>
				<path id="Path_339" class="st2" d="M97.7,77.2c0.2-0.4,0.4-0.6,0.4-1c0-0.4-0.2-0.6-0.6-1c-0.6-0.8-1.2-1.5-1.7-2.3
					c-0.2,1.5-0.4,3.3-0.8,4.8c0,0.2,0,0.2-0.2,0.4c-0.2,0.4-0.8,0.2-1.2,0.4C93,79,93,79.8,93.2,80.3C94.4,84.8,96.7,79,97.7,77.2z
					"/>
				<path id="Path_340" class="st2" d="M104.4,94.3c1-0.2,1.7-1,2.1-1.9c-0.8-0.2-1.5-0.6-2.3-0.8c-0.4-0.2-0.8-0.2-1.2-0.2
					c-0.8,0.2-1,1-0.8,1.7v0.2C102.7,93.9,103.5,94.3,104.4,94.3L104.4,94.3z"/>
				<path id="Path_341" class="st2" d="M105.6,143l-0.4-0.8c-0.4,0-0.8,0.4-1,1c0,0.4,0.4,0.8,0.8,1l0,0c0.4,0,0.6-0.4,0.6-0.8
					C105.6,143.2,105.6,143.2,105.6,143L105.6,143z"/>
				<path id="Path_342" class="st2" d="M107.7,81.7c0.6-0.2,1-1,0.8-1.7c-0.2-0.6-1-1-1.5-1.2c-0.4,0-0.6,0-0.8,0.4
					c0,0.2,0,0.4,0.2,0.6c0.4,0.8,1,1.4,1.4,2.1V81.7z"/>
				<path id="Path_343" class="st2" d="M118.6,85.9c0.6-0.4,1-1,1.2-1.7c0.2-0.6,0.2-1.4-0.4-1.9c-0.2-0.2-0.6-0.4-1-0.4
					c-1.2,0-1.9,0.8-1.9,1.9C116.4,84.8,117.2,85.8,118.6,85.9C118.4,85.8,118.4,85.8,118.6,85.9L118.6,85.9z"/>
				<path id="Path_344" class="st2" d="M132.7,53.1c-0.2-0.6-1.2-0.8-1.9-0.8s-1.5,0-1.9-0.6c-0.2-0.2-0.2-0.4-0.2-0.6
					c0.2-0.4,0.8-0.4,1.4-0.4c0.4,0,0.8-0.2,1.2-0.4c1-0.4,1.9,0,2.5,0.8c0.2,0.8-0.4,1.4-1,1.5c-0.4,0-0.8,0-1-0.2L132.7,53.1z"/>
				<path id="Path_345" class="st2" d="M121.9,39c-0.2-0.6-1.2-0.8-1.9-0.8c-0.8,0-1.5,0-1.9-0.6c-0.2-0.2-0.2-0.4-0.2-0.6
					c0.2-0.4,0.8-0.4,1.4-0.4c0.4,0,0.8-0.2,1.2-0.4c1-0.4,1.9,0,2.5,0.8c0.2,0.8-0.4,1.4-1,1.5c-0.4,0-0.6,0-1-0.2L121.9,39z"/>
				<path id="Path_346" class="st2" d="M124.6,26c0.2-0.6,0.2-1.2,0.2-1.7v-0.2c-0.2-0.2-0.4-0.2-0.4-0.2c-0.4,0-0.8,0.4-1,0.8
					c-0.2,0.4,0,1,0.2,1.4c0.2,0.2,0.4,0.4,0.6,0.4C124.2,26.2,124.4,26.2,124.6,26C124.4,25.8,124.4,25.8,124.6,26
					c-0.2-0.2-0.2-0.2-0.2-0.2L124.6,26z"/>
				<path id="Path_347" class="st2" d="M117,110.1c1.2-0.8,1.7-1.9,1.9-3.3c-0.6-0.2-1.2-0.2-1.7,0c-0.6,0.2-1,0.6-1.2,1.2
					c0,0.8,0.6,1.4,1.4,1.9l-0.6,0.2H117z"/>
				<path id="Path_348" class="st2" d="M104.8,108.6c0.6,0.4,1.4,0.2,1.5-0.4c0.2-0.2,0.2-0.4,0.2-0.6c-0.4-0.2-0.8-0.4-1.2-0.4
					s-0.8,0.4-1,0.8c0,0.4,0.4,1,0.8,0.8L104.8,108.6z"/>
				<path id="Path_349" class="st2" d="M115.5,89.2c0.6,0.4,1.4,0.2,1.5-0.4c0.2-0.2,0.2-0.4,0.2-0.6c-0.4-0.2-0.8-0.4-1.2-0.4
					c-0.4,0-0.8,0.4-1,0.8c0,0.4,0.4,1,0.8,0.8L115.5,89.2z"/>
				<path id="Path_350" class="st2" d="M110.4,110.7c-0.4,0.4-0.2,1,0.4,1.4c0.6,0.2,1,0.4,1.5,0.6c0.6,0.2,1,0.6,1.2,1.2
					c0.2,0.4,0,0.6-0.2,1c-0.2,0.2-0.4,0.2-0.6,0.2c-1,0.4-2.1,0.4-3.1,0c-1-0.4-1.7-1.2-1.9-2.3c0-1.2,0.8-2.1,1.9-2.1
					c0.4,0,0.8,0,1.2,0.2H110.4z"/>
				<path id="Path_351" class="st2" d="M126.1,50c-0.4,0.4-0.2,1,0.4,1.4c0.6,0.2,1,0.4,1.5,0.6s1,0.6,1,1.2c0.2,0.4,0,0.6-0.2,1
					c-0.2,0.2-0.4,0.2-0.6,0.2c-1,0.4-2.1,0.4-3.1,0c-1-0.4-1.7-1.2-1.9-2.3c0-1.2,0.8-2.1,1.9-2.1c0.4,0,0.8,0,1.2,0.2L126.1,50z"
					/>
				<path id="Path_352" class="st2" d="M133.1,50.6c-0.4,0.4-0.2,1,0.2,1.4c0.4,0.2,1,0.2,1.5,0.6c0.6,0.2,1,0.6,1.2,1.2
					c0.2,0.4,0,0.6-0.2,1c-0.2,0.2-0.4,0.2-0.6,0.2c-1,0.4-2.1,0.4-3.1,0c-1-0.4-1.7-1.2-1.9-2.3c0-1.2,0.8-2.1,1.9-2.1
					c0.4,0,0.8,0,1.2,0.2L133.1,50.6z"/>
				<path id="Path_353" class="st2" d="M129.8,60.8c-0.4,0.4-0.2,1,0.4,1.4c0.6,0.2,1,0.4,1.5,0.6c0.6,0.2,1,0.6,1.2,1.2
					c0.2,0.4,0,0.6-0.2,1c-0.2,0.2-0.4,0.2-0.6,0.2c-1,0.4-2.1,0.4-3.1,0c-1-0.4-1.7-1.2-1.9-2.3c0-1.2,0.8-2.1,1.9-2.1
					c0.4,0,0.8,0,1.2,0.2L129.8,60.8L129.8,60.8z"/>
				<path id="Path_354" class="st2" d="M64,23.7c-0.4,0.4-0.2,1,0.4,1.4c0.6,0.2,1,0.4,1.5,0.6c0.6,0.2,1,0.6,1,1.2
					c0.2,0.4,0,0.6-0.2,1c-0.2,0.2-0.4,0.2-0.6,0.2c-1,0.4-2.1,0.4-3.1,0c-1-0.4-1.7-1.2-1.9-2.3c0-1.2,0.8-2.1,1.9-2.1
					c0.4,0,0.8,0,1.2,0.2L64,23.7z"/>
				<path id="Path_355" class="st2" d="M104.8,101l0.4-0.8c-0.4-0.2-0.8-0.4-1.4-0.4c-0.4,0.2-0.8,0.8-0.4,1c0.2,0,0.4,0.2,0.4,0.2
					l1.5,0.2L104.8,101z"/>
				<path id="Path_356" class="st2" d="M91.3,45.9c0.6-0.4,1-1,1.2-1.7c0.4-0.6,0.2-1.4-0.4-1.9c-0.2-0.2-0.6-0.4-1-0.4
					c-1.2,0-1.9,0.8-1.9,1.9s0.8,1.9,1.9,1.9C91.1,45.7,91.3,45.7,91.3,45.9L91.3,45.9z"/>
				<path id="Path_357" class="st2" d="M125.5,94.3c-0.2,0.8-0.8,1.4-1.5,1.2c-0.2,0-0.4-0.2-0.6-0.2c-0.2-0.6-0.2-1.2,0-1.7
					c0.6,0,1.2,0.2,1.7,0.6L125.5,94.3z"/>
				<path id="Path_358" class="st3" d="M96.7,38.6c0.2-0.4,0.4-0.8,0.6-1.2c0-0.4,0-0.8-0.4-1.2c-0.6-0.4-1.4,0.2-1.9,0.2
					c-0.6,0-1.4-0.6-1.9-0.4c-0.6,0.2-0.8,1-0.6,1.5v0.2c0.4,0.6,1,1,1.7,1c0.6,0.2,1.2,0.2,1.7,0.2c0.6-0.2,1-0.6,1-1.2L96.7,38.6z
					"/>
				<path id="Path_359" class="st2" d="M122.2,64.7c2.9,0.2,5.6-1.2,7.3-3.5c-1.2-2.5-3.5-4.8-6.2-5.2c-2.9-0.4-6,1.5-6.2,4.4
					c-0.2,2.9,3.5,5.2,5.8,3.5L122.2,64.7z"/>
				<path id="Path_360" class="st2" d="M132.1,95.2c-0.4,0-0.8-0.4-0.6-0.8c0-0.4,0.2-0.8,0.6-1c0.2-0.2,0.4-0.2,0.6-0.4
					c0.6,0,1,0.4,1.2,1l0,0c0,0.6-0.4,1-1,1c-0.6,0-1-0.4-1.2-1L132.1,95.2z"/>
				<path id="Path_361" class="st2" d="M127.1,80.3c-0.4-0.6-1.4-0.4-1.9,0c-0.6,0.4-1.5,0.6-2.1,0.2c-0.2-0.2-0.2-0.2-0.2-0.6
					c0-0.6,0.8-0.6,1.2-0.8c0.4-0.2,0.6-0.4,1-0.8c0.8-0.6,1.9-0.6,2.7-0.2c0.4,0.6,0.2,1.4-0.4,1.7c-0.2,0.2-0.6,0.2-1,0.2
					L127.1,80.3z"/>
				<path id="Path_362" class="st2" d="M112.4,62.9v-0.8c-0.4-0.2-1-0.2-1.2,0.2c-0.4,0.4-0.2,1,0.2,1.2l0,0c0.4,0.2,0.8,0,1-0.2
					C112.2,63.3,112.4,63.1,112.4,62.9L112.4,62.9z"/>
				<path id="Path_363" class="st2" d="M117.8,77.8c-0.2,0.2-0.6,0.4-0.8,0.2l0,0c-0.2-0.2-0.4-0.4-0.4-0.8c0-0.2-0.2-0.6,0-0.8
					c0.2-0.6,0.6-0.8,1.2-0.8c0.6,0,1,0.4,1.2,0.8c0.2,0.2,0.2,0.4,0,0.8c0,0.2-0.4,0.4-0.6,0.4L117.8,77.8z"/>
				<path id="Path_364" class="st2" d="M94.4,81.3c2.1,2.1,5,2.9,7.9,2.3c0.8-2.7,0.6-6-1.4-8.1c-1.9-2.1-5.6-2.7-7.5-0.8
					c-1.9,1.9-0.8,6.4,2.1,6.4L94.4,81.3z"/>
				<path id="Path_365" class="st2" d="M108.3,98.5c0.6-0.6-0.2-1.7-1-1.5c-0.8,0.2-1.5,0.8-1.9,1.5c1,0.8,2.1,1,3.3,0.4L108.3,98.5
					z"/>
				<path id="Path_366" class="st2" d="M136.4,86.9v-0.8c-0.4-0.2-1-0.2-1.2,0.2c-0.4,0.4-0.2,1,0.2,1.2l0,0c0.4,0.2,0.8,0,1-0.2
					C136.2,87.1,136.4,87.1,136.4,86.9L136.4,86.9z"/>
				<path id="Path_367" class="st2" d="M121.7,83.2c1.2-2.7,1.5-5.8,1.4-8.9c0-0.6-0.2-1-0.4-1.4c-0.6-0.8-1.4-1.4-2.3-1.2
					c-2.3,0-4.4,1.4-5.4,3.5c-0.8,2.1-0.6,4.6,0.8,6.6c0.6,1.2,1.7,1.9,2.9,2.3c1.4,0.4,2.5-0.4,3.1-1.5c-0.2-0.2-0.6-0.4-0.8-0.2
					l-0.2,0.2L121.7,83.2z"/>
				<path id="Path_368" class="st2" d="M76.8,62c2.5-1.5,3.9-4.3,3.9-7.2c-2.5-1.4-5.6-1.7-8.1-0.4c-2.5,1.4-3.9,4.8-2.3,7.2
					c1.5,2.3,6,2.1,6.6-0.8V62z"/>
				<path id="Path_369" class="st2" d="M119.7,29.9c1.2-0.8,1.7-1.9,1.9-3.3c-0.6-0.2-1.2-0.2-1.7,0c-0.6,0.2-1,0.6-1.2,1.2
					c0,0.8,0.6,1.4,1.4,1.9l-0.6,0.2L119.7,29.9z"/>
				<path id="Path_370" class="st2" d="M116.6,20.8c0.2-0.4,0.4-0.6,0.4-1c0-0.4-0.2-0.6-0.6-1c-0.6-0.8-1.2-1.5-1.7-2.3
					c-0.2,1.5-0.4,3.3-0.8,4.8c0,0.2,0,0.2-0.2,0.4c-0.2,0.4-0.8,0.2-1.2,0.4c-0.6,0.2-0.6,1.2-0.4,1.7
					C113.3,28.5,115.7,22.5,116.6,20.8z"/>
				<path id="Path_371" class="st2" d="M128.2,77.4l0.2-1.4c-1-0.2-1.9,0.2-2.3,1.2c-0.4,1,0.4,2.1,1.4,1.9c0.6-0.2,1.4-0.6,1.5,0
					L128.2,77.4z"/>
				<path id="Path_372" class="st2" d="M108.7,41.3c0,0.4-0.2,0.8-0.4,1.2c-0.8-0.8-0.6-1.9-0.6-2.9c0-0.6,0.4-1.2,0.8-1.4
					c0.4,0,0.8,0.2,1.2,0.2c0.8,0.2,1.7-0.4,2.3,0.2c0.2,0.4,0.2,1-0.2,1.2c-0.4,0.4-0.8,0.6-1.2,0.6l-2.9,1L108.7,41.3z"/>
				<path id="Path_373" class="st2" d="M93,40.7c0.6-0.6-0.2-1.7-1-1.5c-0.8,0.2-1.5,0.8-1.9,1.5c1,0.8,2.1,1,3.3,0.4L93,40.7z"/>
				<path id="Path_374" class="st3" d="M102.7,26c-0.4,0.2-0.8,0-1-0.2c-0.2-0.4-0.2-0.8-0.2-1.2c0-0.2,0.2-0.4,0.4-0.6
					c0.4-0.4,1-0.4,1.4,0l0,0c0.4,0.4,0.2,1.2-0.2,1.4c-0.4,0.4-1,0.2-1.5,0L102.7,26z"/>
				<path id="Path_375" class="st2" d="M107.5,28.1c0.6,0.4,1.4,0.2,1.5-0.4c0.2-0.2,0.2-0.4,0.2-0.6c-0.4-0.2-0.8-0.4-1.2-0.4
					c-0.4,0-0.8,0.4-1,0.8c0,0.4,0.4,1,0.8,0.8L107.5,28.1z"/>
				<path id="Path_376" class="st2" d="M123.4,37.8c1-0.2,1.7-1,2.1-1.9c-0.8-0.2-1.5-0.6-2.3-0.8c-0.4-0.2-0.8-0.2-1.2-0.2
					c-0.8,0.2-1,1-0.8,1.7v0.2C121.7,37.6,122.4,38,123.4,37.8L123.4,37.8z"/>
				<path id="Path_377" class="st3" d="M92.1,30.4c-0.8,0.4-1.5,0.2-2.1-0.4c-0.2-0.4-0.4-0.8-0.2-1.2c0-0.4,0.4-0.8,0.8-0.6
					c0.2,0,0.2,0.2,0.4,0.4l1.4,1.7L92.1,30.4L92.1,30.4z"/>
				<path id="Path_378" class="st3" d="M82.2,24.8c-0.2-0.6-1.2-0.8-1.9-0.8s-1.5,0-1.9-0.6c-0.2-0.2-0.2-0.4-0.2-0.6
					c0.2-0.4,0.8-0.4,1.4-0.4c0.4,0,0.8-0.2,1.2-0.4c1-0.4,1.9,0,2.5,0.8c0.2,0.8-0.4,1.4-1,1.5c-0.4,0-0.8,0-1-0.2L82.2,24.8z"/>
				<path id="Path_379" class="st3" d="M139.6,55.8c-0.2-0.6-1.2-0.8-1.9-0.8s-1.5,0-1.9-0.6c-0.2-0.2-0.2-0.4-0.2-0.6
					c0.2-0.4,0.8-0.4,1.4-0.4c0.4,0,0.8-0.2,1.2-0.4c1-0.4,1.9,0,2.5,0.8c0.2,0.8-0.4,1.4-1,1.5c-0.4,0-0.8,0-1-0.2L139.6,55.8z"/>
				<path id="Path_380" class="st3" d="M86.1,18.6c0.2-0.2,0.2-0.6,0.4-0.8c-0.4-0.4-0.8-0.4-1.2-0.2c-0.4,0.2-0.6,0.8-0.2,1.2l0,0
					c0.2,0.4,0.8,0.4,1,0C85.9,18.8,86.1,18.8,86.1,18.6L86.1,18.6z"/>
				<path id="Path_381" class="st2" d="M113.1,30.2c-0.4,0.4-0.2,1,0.2,1.4c0.4,0.2,1,0.2,1.5,0.6c0.6,0.2,1,0.6,1.2,1.2
					c0.2,0.4,0,0.6-0.2,1c-0.2,0.2-0.4,0.2-0.6,0.2c-1,0.4-2.1,0.4-3.1,0s-1.7-1.2-1.9-2.3c0-1.2,0.8-2.1,1.9-2.1
					c0.4,0,0.8,0,1.2,0.2L113.1,30.2z"/>
				<path id="Path_382" class="st2" d="M126.7,25.2c0.6-0.2,1-1,0.8-1.7c-0.2-0.6-1-1-1.5-1.2c-0.4,0-0.6,0-0.8,0.4
					c0,0.2,0,0.4,0.2,0.6c0.4,0.8,1,1.4,1.4,2.1L126.7,25.2z"/>
				<path id="Path_383" class="st2" d="M99.4,50.6c-1.2,0.2-2.3-0.6-2.5-1.9c0-0.2,0-0.4,0-0.6c1-0.2,2.1,0,3.1,0.4
					c1,0.6,1.4,1.9,0.8,2.7L99,51.5L99.4,50.6z"/>
				<path id="Path_384" class="st3" d="M107.5,20.6l0.4-0.8c-0.4-0.2-0.8-0.4-1.4-0.4c-0.4,0.2-0.8,0.8-0.4,1c0.2,0,0.4,0.2,0.4,0.2
					l1.5,0.2L107.5,20.6z"/>
				<path id="Path_385" class="st2" d="M119.1,95.8c0.6-0.4,1-1,1.2-1.7c0.4-0.6,0.2-1.4-0.4-1.9c-0.2-0.2-0.6-0.4-1-0.4
					c-1.2,0-1.9,0.8-1.9,1.9S117.8,95.6,119.1,95.8C119,95.6,119,95.6,119.1,95.8L119.1,95.8z"/>
				<path id="Path_386" class="st2" d="M88.6,66.8l0.2-1.4c-0.4-0.2-0.8-0.2-1.2-0.2c-0.4,0.6-0.2,1.5,0.4,1.9L88.6,66.8z"/>
				<path id="Path_387" class="st2" d="M114.5,132.8c-0.4,0.2-0.8,0-1-0.2c-0.2-0.4-0.2-0.8-0.2-1.2c0-0.2,0.2-0.4,0.4-0.6
					c0.4-0.4,1-0.4,1.4,0l0,0c0.4,0.4,0.2,1.2-0.2,1.4c-0.4,0.4-1,0.2-1.5,0L114.5,132.8z"/>
				<path id="Path_388" class="st2" d="M97.3,58.9l0.2-1.4c-0.4-0.2-0.8-0.2-1.2-0.2c-0.4,0.6-0.2,1.5,0.4,1.9L97.3,58.9z"/>
				<path id="Path_389" class="st2" d="M136.4,64.7c0.6-0.2,0.4-1,0.2-1.4c-0.4-0.4-1-0.6-1.4-1c-0.4-0.4-0.6-1-0.6-1.5
					c0-0.4,0.2-0.6,0.4-0.8c0.2,0,0.4-0.2,0.6,0c1.2,0,2.1,0.4,3.1,1c1,0.6,1.4,1.7,1.2,2.7c-0.4,1.2-1.4,1.7-2.5,1.5
					C136.7,65.1,136.4,64.9,136.4,64.7L136.4,64.7z"/>
				<path id="Path_390" class="st2" d="M114.5,83c-0.4,0.2-0.6,0.6-0.8,1c-0.2,0.4-0.2,0.8,0,1.2c0.4,0.6,1.4,0.2,1.9,0.4
					c0.6,0.2,1,1,1.7,1c0.6,0,1.2-0.8,1-1.5c-0.2-0.6-0.8-1.2-1.4-1.5c-0.4-0.4-1-0.6-1.5-0.8c-0.6,0-1.2,0.4-1.4,1L114.5,83z"/>
				<path id="Path_391" class="st2" d="M120.1,52.5c-0.2,2.5,0.2,4.8,1.2,7.2c0.2,0.4,0.4,0.8,0.6,1c0.6,0.6,1.4,0.6,2.1,0.4
					c1.9-0.6,3.1-2.1,3.3-4.1c0.2-1.9-0.8-3.7-2.1-4.8c-0.8-0.8-1.7-1-2.9-1c-1,0-1.9,1-1.9,1.9c0.2,0.2,0.6,0.2,0.6-0.2v-0.2
					L120.1,52.5z"/>
				<path id="Path_392" class="st2" d="M136.4,59.5c0.4,0,0.8,0,1.2-0.2c0.2-0.2,0.4-0.6,0.6-1c0.4-1,0.8-1.7,1.2-2.7l-4.4,1.7
					c-0.2,0-0.2,0-0.4,0c-0.4,0-0.6-0.6-1-0.8c-0.6-0.4-1.4,0-1.7,0.6C128,60.4,134.4,59.5,136.4,59.5z"/>
				<path id="Path_393" class="st2" d="M120.7,52.5l0.4-0.8c-0.2-0.4-0.8-0.6-1.2-0.4c-0.4,0.2-0.6,0.8-0.4,1.2l0,0
					c0.2,0.4,0.8,0.4,1,0.2C120.5,52.7,120.5,52.5,120.7,52.5L120.7,52.5z"/>
				<path id="Path_394" class="st2" d="M133.8,52.1c0.6,0.4,1.4,0.4,1.7-0.2c0.4-0.6,0.4-1.4,0.2-1.9c-0.2-0.2-0.4-0.6-0.6-0.4
					c-0.2,0-0.4,0.2-0.4,0.4c-0.4,0.8-0.8,1.5-1.2,2.1H133.8z"/>
				<path id="Path_395" class="st2" d="M125.1,50.4c1.2,0.6,2.7,0.6,3.9,0c-0.2-0.6-0.4-1.2-0.8-1.5c-0.4-0.4-1-0.6-1.5-0.4
					c-0.8,0.4-1,1.4-1,2.1l-0.4-0.6L125.1,50.4z"/>
				<path id="Path_396" class="st2" d="M120.7,46.3c-0.4,0.2-0.8,0.2-1.2,0.2c0.2-1,1.4-1.5,2.3-1.9c0.6-0.2,1.2-0.4,1.5,0
					c0.2,0.4,0.2,0.8,0.4,1.2c0.2,0.8,1.2,1.4,1,2.1c-0.2,0.4-0.8,0.6-1.2,0.4c-0.4-0.2-0.8-0.4-1.2-0.8c-0.8-0.6-1.5-1.4-2.1-1.9
					L120.7,46.3z"/>
				<path id="Path_397" class="st2" d="M130.9,57.3c0.8,0.8,1.7,1,2.7,1c-0.2-0.8-0.4-1.5-0.6-2.3c0-0.4-0.2-0.8-0.4-1
					c-0.6-0.4-1.4-0.4-1.9,0.2c0,0,0,0,0,0.2C130.4,55.8,130.6,56.6,130.9,57.3L130.9,57.3z"/>
				<path id="Path_398" class="st2" d="M132.5,44.8c-0.6-0.2-1,0.4-1,1s0.2,1,0.4,1.5c0,0.6-0.2,1.2-0.6,1.5
					c-0.2,0.2-0.6,0.4-0.8,0.4c-0.2,0-0.4-0.2-0.6-0.4c-0.8-0.8-1.4-1.7-1.5-2.7c-0.2-1,0.2-2.1,1-2.9c1-0.6,2.3-0.4,2.9,0.6
					C132.5,44.2,132.5,44.6,132.5,44.8L132.5,44.8z"/>
				<path id="Path_399" class="st2" d="M108.9,70.3c0.6,0.2,1.4,0.4,2.1,0.2c0.8,0,1.4-0.6,1.5-1.4c0-0.4,0-0.8-0.2-1
					c-0.6-1-1.7-1.4-2.7-0.8c-1,0.6-1.4,1.7-0.8,2.7C108.9,70.1,108.9,70.3,108.9,70.3L108.9,70.3z"/>
				<path id="Path_400" class="st2" d="M123.4,76.3c1.2,0.6,2.7,0.6,3.9,0c-0.2-0.6-0.4-1.2-0.8-1.5c-0.4-0.4-1-0.6-1.5-0.4
					c-0.8,0.4-1,1.4-1,2.1l-0.4-0.6L123.4,76.3z"/>
				<path id="Path_401" class="st2" d="M119.7,44c-0.2-0.8-1.2-0.8-1.7-1c-0.8,0-1.5,0-1.9-0.8c-0.2-0.2-0.2-0.4,0-0.6
					c0.2-0.4,1-0.2,1.4-0.2c0.4,0,0.8-0.2,1.2-0.4c1-0.2,1.9,0.2,2.5,1c0,0.8-0.4,1.4-1.2,1.5c-0.4,0-0.6,0-1-0.2L119.7,44z"/>
				<path id="Path_402" class="st2" d="M99.4,95.4c0-0.2,0-0.6-0.2-0.8c-0.4-0.2-1,0-1.2,0.4c-0.2,0.4,0,1,0.4,1.2l0,0
					c0.4,0.2,0.8,0,1-0.4C99.4,95.6,99.4,95.6,99.4,95.4L99.4,95.4z"/>
				<path id="Path_403" class="st2" d="M125.3,61l0.8-0.2c0-0.4,0-1-0.4-1.2c-0.4-0.4-1-0.2-1,0.2c0,0.2,0,0.4,0.2,0.4
					c0.2,0.6,0.4,1,0.6,1.5L125.3,61z"/>
			</g>
		</g>
		
			<radialGradient id="Ellipse_6_1_" cx="-212.5825" cy="-25.405" r="1.8717" gradientTransform="matrix(62.812 0 0 13.915 13763.2197 4459.5068)" gradientUnits="userSpaceOnUse">
			<stop  offset="0" style="stop-color:#BE9DEA"/>
			<stop  offset="0.388" style="stop-color:#E0BFF5"/>
			<stop  offset="1" style="stop-color:#FFFFFF"/>
		</radialGradient>
		<ellipse id="Ellipse_6" class="st4" cx="410.5" cy="1156.7" rx="117.4" ry="26.1"/>
		<g id="Group_40" transform="translate(167.49 516.322)">
			
				<linearGradient id="Path_404_1_" gradientUnits="userSpaceOnUse" x1="-550.4762" y1="3.002" x2="-550.3704" y2="2.2222" gradientTransform="matrix(124.5187 0 0 134.2081 68876.2031 38.2064)">
				<stop  offset="0" style="stop-color:#CBC1F7"/>
				<stop  offset="1" style="stop-color:#E8DCF7"/>
			</linearGradient>
			<path id="Path_404" class="st5" d="M391.9,389.7c0,0,0,23.4-9.5,38.1c-5.4,8.3-14.7,13.2-25.5,14.5c-8.7,1-17.6,0.2-26.1-2.5
				c-20.3-6.2-33.7-37.9-40.8-69c-7.2-31.1,10.1-40.6,12.6-39.6c4.4,1.5,15.9,16.2,28.6,29.6c6.6,6.8,13.5,13.2,20.3,17.2
				C363.7,385.1,377.6,389.1,391.9,389.7z"/>
			
				<linearGradient id="Path_405_1_" gradientUnits="userSpaceOnUse" x1="-549.048" y1="3.0152" x2="-549.048" y2="2.1821" gradientTransform="matrix(82.5007 0 0 134.2081 45619.4141 38.2064)">
				<stop  offset="0" style="stop-color:#9D68C2"/>
				<stop  offset="1" style="stop-color:#CCEDFF"/>
			</linearGradient>
			<path id="Path_405" class="st6" d="M356.9,442.3c-8.7,1-17.6,0.2-26.1-2.5c-20.3-6.2-33.7-37.9-40.8-69
				c-7.2-31.1,10.1-40.6,12.6-39.6c4.4,1.5,15.9,16.2,28.6,29.6c0,0-10.4,22.4-6,52.6C329.6,443.5,356.9,442.3,356.9,442.3z"/>
			
				<linearGradient id="Path_406_1_" gradientUnits="userSpaceOnUse" x1="-548.8556" y1="1.291" x2="-548.7133" y2="0.4464" gradientTransform="matrix(88.056 0 0 118.7555 48554.9063 230.9936)">
				<stop  offset="0" style="stop-color:#CBC1F7"/>
				<stop  offset="1" style="stop-color:#E8DCF7"/>
			</linearGradient>
			<path id="Path_406" class="st7" d="M245.3,524.7c0,20.3-7,68.3-21.3,65.8c-3.1-0.6-6.8-3.7-10.6-8.5
				c-12-14.9-26.7-45.4-34.8-66.5c-4.4-11.4-7.2-20.1-6.4-21.7c4.4-9.9,67.9,18.6,71.9,22.2C244.9,516.8,245.3,519.9,245.3,524.7z"
				/>
			
				<linearGradient id="Path_407_1_" gradientUnits="userSpaceOnUse" x1="-549.0212" y1="1.2018" x2="-549.0212" y2="0.1121" gradientTransform="matrix(87.6828 0 0 36.3043 48348.125 230.449)">
				<stop  offset="0" style="stop-color:#BE9DEA"/>
				<stop  offset="1" style="stop-color:#9E8CEF"/>
			</linearGradient>
			<path id="Path_407" class="st8" d="M172.2,493.8c-4.8,9.3,52.8,37.5,72.7,24.2C244.9,517.8,178.6,481.4,172.2,493.8z"/>
			
				<linearGradient id="Path_408_1_" gradientUnits="userSpaceOnUse" x1="-549.0394" y1="0.9222" x2="-549.0394" y2="3.172820e-02" gradientTransform="matrix(88.0556 0 0 118.6465 48554.6758 230.9877)">
				<stop  offset="0" style="stop-color:#9D68C2"/>
				<stop  offset="1" style="stop-color:#CCEDFF"/>
			</linearGradient>
			<path id="Path_408" class="st9" d="M200.6,524.3c-2.3,4.1,9.3,49.5,23.6,66.1c-3.1-0.6-6.8-3.7-10.6-8.5
				c-3.3-7.7-7.9-19.1-12.6-30.8c-5.8-14.9-16.8-29.2-22.4-35.8c-4.4-11.4-7.2-20.1-6.4-21.7c4.4-9.9,67.9,18.6,71.9,22.2
				c0.8,0.8,1.2,3.9,1.2,8.7C245.3,524.7,202.8,520.3,200.6,524.3z"/>
			
				<linearGradient id="Path_409_1_" gradientUnits="userSpaceOnUse" x1="-549.6053" y1="3.5245" x2="-549.4245" y2="2.6381" gradientTransform="matrix(89.8699 0 0 146.0274 49646 215.2156)">
				<stop  offset="0" style="stop-color:#CBC1F7"/>
				<stop  offset="1" style="stop-color:#E8DCF7"/>
			</linearGradient>
			<path id="Path_409" class="st10" d="M314.1,502.9c-0.6,1.7-1,3.7-1.5,5.6c-8.7,29.4-24,71.9-35.4,86.6c-2.7,3.5-5.2,5.4-7.3,5
				c-0.6,0-1.2-0.2-1.7-0.6c-1.9-1-3.9-2.9-5.6-5.6l0,0c-11.2-17.4-19.1-66-17.6-79.9c0.2-1.7,0.6-2.9,1.2-3.5
				c9.5-9.3,71-36.4,73.5-31.5C320,480.4,317.8,489.7,314.1,502.9z"/>
			
				<linearGradient id="Path_410_1_" gradientUnits="userSpaceOnUse" x1="-549.2708" y1="11.4763" x2="-549.2708" y2="10.4058" gradientTransform="matrix(89.5507 0 0 43.9224 49469.4961 216.0548)">
				<stop  offset="0" style="stop-color:#BE9DEA"/>
				<stop  offset="1" style="stop-color:#9E8CEF"/>
			</linearGradient>
			<path id="Path_410" class="st11" d="M244.7,514.1c-2.3,3.9,58.4,3.7,74.5-35C319.4,479.3,267.2,477.1,244.7,514.1z"/>
			<path id="Path_411" class="st2" d="M275.1,533c-2.5,0.4-6.2,19.5-2.3,21.3C276.8,556.1,281.1,532.3,275.1,533z"/>
			
				<linearGradient id="Path_412_1_" gradientUnits="userSpaceOnUse" x1="-549.2829" y1="4.1873" x2="-549.2829" y2="3.302" gradientTransform="matrix(89.8699 0 0 138.5364 49646 215.2438)">
				<stop  offset="0" style="stop-color:#9D68C2"/>
				<stop  offset="1" style="stop-color:#CCEDFF"/>
			</linearGradient>
			<path id="Path_412" class="st12" d="M314.1,502.9c0,0-34,4.4-43.9,18.8c-9.9,14.1-12.8,51.3-7.9,72.3
				c-11.2-17.4-19.1-66-17.6-79.9c0.2-1.7,0.6-2.9,1.2-3.5c9.5-9.3,71-36.4,73.5-31.5C320,480.4,317.8,489.7,314.1,502.9z"/>
			
				<linearGradient id="Path_413_1_" gradientUnits="userSpaceOnUse" x1="-549.6541" y1="2.3186" x2="-549.4482" y2="1.4547" gradientTransform="matrix(105.6987 0 0 200.2661 58228.3711 24.6671)">
				<stop  offset="0" style="stop-color:#CBC1F7"/>
				<stop  offset="1" style="stop-color:#E8DCF7"/>
			</linearGradient>
			<path id="Path_413" class="st13" d="M183.6,340.6c0,17.4-2.5,42.4-10.4,62.7c-13,33.5-32.5,75.8-33.3,77l0,0
				c-12,7.3-26.3,7-35.4,5.6c-3.1-0.4-6.2-1.2-9.1-1.9c0,0,4.1-38.5,25.1-82c10.1-20.3,21.9-39.5,35.8-57.2l0.2-0.2
				c0.2-0.2,0.2-0.4,0.4-0.6c0-0.2,0.2-0.2,0.2-0.4l0.2-0.2c0.2-0.2,0.2-0.2,0.4-0.4l0,0l0,0c11.8-15.1,21.5-24.2,23.4-23
				C182.6,320.5,183.8,328.8,183.6,340.6z"/>
			
				<linearGradient id="Path_414_1_" gradientUnits="userSpaceOnUse" x1="-546.1339" y1="8.9265" x2="-546.1339" y2="8.0932" gradientTransform="matrix(53.4155 0 0 32.9946 29290.0605 192.9566)">
				<stop  offset="0" style="stop-color:#BE9DEA"/>
				<stop  offset="1" style="stop-color:#9E8CEF"/>
			</linearGradient>
			<path id="Path_414" class="st14" d="M95.8,482.4c0,0,15.5-25.3,31.3-22c15.9,3.3,13,19.9,13,19.9S119.8,494.9,95.8,482.4z"/>
			
				<linearGradient id="Path_415_1_" gradientUnits="userSpaceOnUse" x1="-549.5703" y1="2.5006" x2="-549.5703" y2="1.6678" gradientTransform="matrix(105.697 0 0 174.441 58227.4336 49.6405)">
				<stop  offset="0" style="stop-color:#9D68C2"/>
				<stop  offset="1" style="stop-color:#CCEDFF"/>
			</linearGradient>
			<path id="Path_415" class="st15" d="M183.6,340.6c0,17.4-2.5,42.4-10.4,62.7c-13,33.5-32.5,75.8-33.3,77l0,0l-35.4,5.6
				c-3.1-0.4-6.2-1.2-9.1-1.9c0,0,4.1-38.5,25.1-82c10.1-20.3,21.9-39.5,35.8-57.2c-6.6,8.7-34.6,47.2-42,79.7
				c-8.5,36.9,25.9,22.8,40,0c14.1-22.8,28.8-83.9,28.8-83.9L183.6,340.6z"/>
			<path id="Path_416" class="st2" d="M145.3,399.8c-2.9-1,11.6-33.8,16.2-34.2C165.8,365.4,147.6,400.7,145.3,399.8z"/>
			<path id="Path_417" class="st2" d="M143.8,403.3c-2.1-1.2-4.3,5-2.3,5.8C143.6,410,146.3,404.6,143.8,403.3z"/>
			
				<linearGradient id="Path_418_1_" gradientUnits="userSpaceOnUse" x1="-548.2875" y1="3.6997" x2="-548.2875" y2="2.8664" gradientTransform="matrix(68.2469 0 0 119.737 37763.2305 -263.5374)">
				<stop  offset="0" style="stop-color:#B9ACF4"/>
				<stop  offset="1" style="stop-color:#E1D1F5"/>
			</linearGradient>
			<path id="Path_418" class="st16" d="M315.9,97.9c0,0,18-15.5,40-18.2c0,0,6.8,3.3,14.5,27.5s-6.6,72.1-6.6,72.1L315.9,97.9z"/>
			
				<linearGradient id="Path_419_1_" gradientUnits="userSpaceOnUse" x1="-543.1165" y1="6.1063" x2="-543.1165" y2="5.2742" gradientTransform="matrix(32.37 0 0 65.0891 17932.1582 -263.5435)">
				<stop  offset="0" style="stop-color:#BE9DEA"/>
				<stop  offset="1" style="stop-color:#9E8CEF"/>
			</linearGradient>
			<path id="Path_419" class="st17" d="M355.7,79.7c0,0-17.8,19.1-17.8,49.9l7,4.3L365,92.3C365,92.3,358.2,79.3,355.7,79.7z"/>
			
				<linearGradient id="Path_420_1_" gradientUnits="userSpaceOnUse" x1="-546.8013" y1="3.7391" x2="-546.8013" y2="2.9057" gradientTransform="matrix(51.1796 0 0 117.645 28349.9609 -255.7515)">
				<stop  offset="0" style="stop-color:#45FFCD"/>
				<stop  offset="1" style="stop-color:#22E0FF"/>
			</linearGradient>
			<path id="Path_420" class="st18" d="M344.1,131.7c0,0-4.6-26.3,12.6-45.6c0,0,19.5,9.3,27.7,43.3c8.1,34.2-13,54.7-13,54.7
				L344.1,131.7z"/>
			<path id="Path_421" class="st2" d="M334.3,87.4c-3.3,1.7-3.1,5.4,3.9,4.4c7-1,10.6-6.4,9.9-7.3C347,83.4,337.9,85.3,334.3,87.4z"
				/>
			
				<linearGradient id="Path_422_1_" gradientUnits="userSpaceOnUse" x1="-547.6784" y1="3.6931" x2="-547.6784" y2="2.8601" gradientTransform="matrix(68.2469 0 0 119.732 37513.7813 -258.8739)">
				<stop  offset="0" style="stop-color:#B9ACF4"/>
				<stop  offset="1" style="stop-color:#E1D1F5"/>
			</linearGradient>
			<path id="Path_422" class="st19" d="M164.8,101.8c0,0-18-15.5-40-18.2c0,0-6.8,3.3-14.5,27.5s6.6,72.1,6.6,72.1L164.8,101.8z"/>
			
				<linearGradient id="Path_423_1_" gradientUnits="userSpaceOnUse" x1="-541.738" y1="6.0941" x2="-541.738" y2="5.262" gradientTransform="matrix(32.362 0 0 65.093 17660.8867 -258.868)">
				<stop  offset="0" style="stop-color:#BE9DEA"/>
				<stop  offset="1" style="stop-color:#9E8CEF"/>
			</linearGradient>
			<path id="Path_423" class="st20" d="M124.8,83.6c0,0,17.8,19.1,17.8,49.9l-6.8,4.3l-20.1-41.4C115.7,96.3,122.3,83.2,124.8,83.6z
				"/>
			
				<linearGradient id="Path_424_1_" gradientUnits="userSpaceOnUse" x1="-545.8005" y1="3.669" x2="-545.8005" y2="2.8362" gradientTransform="matrix(51.0043 0 0 120.299 27953.9004 -251.0441)">
				<stop  offset="0" style="stop-color:#45FFCD"/>
				<stop  offset="1" style="stop-color:#22E0FF"/>
			</linearGradient>
			<path id="Path_424" class="st21" d="M136.4,135.8c0,0,4.6-26.3-12.6-45.6c0,0-19.5,9.3-27.7,43.3s15.3,56.9,15.3,56.9
				L136.4,135.8z"/>
			<path id="Path_425" class="st2" d="M146.5,91.3c3.3,1.7,3.1,5.4-3.9,4.4c-7-1-10.6-6.4-9.9-7.3C133.5,87.2,142.8,89.2,146.5,91.3
				z"/>
			
				<linearGradient id="Path_426_1_" gradientUnits="userSpaceOnUse" x1="-551.2549" y1="1.9622" x2="-551.1101" y2="1.1366" gradientTransform="matrix(189.8412 0 0 265.732 104881.9922 -7.536)">
				<stop  offset="0" style="stop-color:#CBC1F7"/>
				<stop  offset="1" style="stop-color:#E8DCF7"/>
			</linearGradient>
			<path id="Path_426" class="st22" d="M318.6,460.3c-5.4,32.3-34.4,54-76,54c-36.2,0-66.7-13.5-74.8-43.1
				c-8.1-29.6-5-84.5,5.8-118.6c1.5-5,3.5-9.9,5.8-14.7l0,0c1.9-4.3,4.3-8.1,6.8-12l0,0c13.2-19.9,32.5-32.9,54.3-32.9
				c22.6,0,40,9.3,52,23.2c5.4,6.4,9.9,13.7,13,21.7c3.7,9.3,6.6,18.8,8.9,28.6v0.2C321.9,397.7,323.4,431.5,318.6,460.3z"/>
			
				<linearGradient id="Path_427_1_" gradientUnits="userSpaceOnUse" x1="-551.1962" y1="2.2092" x2="-551.1962" y2="1.3766" gradientTransform="matrix(189.8416 0 0 211.843 104882.2344 46.2662)">
				<stop  offset="0" style="stop-color:#9D68C2"/>
				<stop  offset="1" style="stop-color:#CCEDFF"/>
			</linearGradient>
			<path id="Path_427" class="st23" d="M318.6,460.3c-5.4,32.3-34.4,54-76,54c-36.2,0-66.7-13.5-74.8-43.1
				c-8.1-29.6-5-84.5,5.8-118.6c1.5-5,3.5-9.9,5.8-14.7l0,0c0,0-21.9,72.5-4.4,118.7s98.8,45.3,126.5,14.5
				c26.3-29.2,14.1-97.9,13-104.2C321.9,397.7,323.4,431.5,318.6,460.3z"/>
			
				<linearGradient id="Path_428_1_" gradientUnits="userSpaceOnUse" x1="-551.0154" y1="2.5389" x2="-551.0154" y2="1.706" gradientTransform="matrix(172.6601 0 0 166.8487 95378.8984 86.9819)">
				<stop  offset="0" style="stop-color:#BE9DEA"/>
				<stop  offset="1" style="stop-color:#9E8CEF"/>
			</linearGradient>
			<path id="Path_428" class="st24" d="M169.3,441.2c6.2-43.3,41-72.9,79.7-69.2c41.8,3.9,64,43.7,63.4,77.9
				c-0.6,34.2-25.5,60.7-70.2,60.7S163.5,481.8,169.3,441.2z"/>
			
				<radialGradient id="Path_429_1_" cx="-550.9316" cy="2.406" r="0.6355" gradientTransform="matrix(166.7889 0 0 166.8527 92132.625 91.313)" gradientUnits="userSpaceOnUse">
				<stop  offset="0" style="stop-color:#45FFCD"/>
				<stop  offset="1" style="stop-color:#22E0FF"/>
			</radialGradient>
			<path id="Path_429" class="st25" d="M169.7,444.8c6.2-43.3,41-72.9,79.7-69.2c41.8,3.9,64,43.7,63.4,77.9s-25.5,60.7-70.2,60.7
				S163.9,485.3,169.7,444.8z"/>
			
				<linearGradient id="Path_430_1_" gradientUnits="userSpaceOnUse" x1="-550.3202" y1="6.6511" x2="-550.3202" y2="5.8183" gradientTransform="matrix(127.9282 0 0 51.6439 70640.7031 -7.2598)">
				<stop  offset="0" style="stop-color:#8DA4E5"/>
				<stop  offset="1" style="stop-color:#755CBB"/>
			</linearGradient>
			<path id="Path_430" class="st26" d="M292.5,316.4c-8.9,13.9-57.4,21.9-85.7,19.3c-24.6-2.3-20.7-8.9-20.5-9.7l0,0
				c13.2-19.9,32.5-32.9,54.3-32.9C263.3,293.2,280.7,302.5,292.5,316.4z"/>
			<path id="Path_431" class="st2" d="M275.3,340.4c-2.3,0.8-2.3,19,0,21.9c2.3,2.9,6.2,2.1,7.3-2.3
				C284,355.7,278.6,339.2,275.3,340.4z"/>
			<path id="Path_432" class="st2" d="M279.3,367.1c-1.9,0.4-2.1,5-1.2,6.6c0.8,1.5,4.1,1.2,4.6-0.8
				C283.4,371,281.3,366.7,279.3,367.1z"/>
			
				<linearGradient id="Path_433_1_" gradientUnits="userSpaceOnUse" x1="-550.1388" y1="9.9161" x2="-550.1388" y2="9.0831" gradientTransform="matrix(119.501 0 0 28.9023 65986.1797 219.9436)">
				<stop  offset="0" style="stop-color:#D4E2FF"/>
				<stop  offset="1" style="stop-color:#000000"/>
			</linearGradient>
			<path id="Path_433" class="st27" d="M194.2,488.9c0,0,10.1,17.4,47.2,17.6s52.4-22,52.4-22s-17.2,11.2-41.8,4.4
				C227.5,482.2,203.1,478.5,194.2,488.9z"/>
			
				<linearGradient id="Path_434_1_" gradientUnits="userSpaceOnUse" x1="-551.0605" y1="4.5124" x2="-550.2276" y2="4.5124" gradientTransform="matrix(145.0902 0 0 69.0975 80137.8828 98.1729)">
				<stop  offset="0" style="stop-color:#000000"/>
				<stop  offset="1" style="stop-color:#D4E2FF"/>
			</linearGradient>
			<path id="Path_434" class="st28" d="M184.6,417.4c7.3,11.8,37.5,5.4,71.8,8.9c34.2,3.5,39.8,14.5,47,12.2
				c7.2-2.3-4.3-53.6-55.1-57.1C197.1,377.7,182.6,414.5,184.6,417.4z"/>
			
				<linearGradient id="Path_435_1_" gradientUnits="userSpaceOnUse" x1="-551.9891" y1="2.0434" x2="-551.8964" y2="1.2029" gradientTransform="matrix(328.5309 0 0 288.3698 181576.875 -277.9997)">
				<stop  offset="0" style="stop-color:#CBC1F7"/>
				<stop  offset="1" style="stop-color:#E8DCF7"/>
			</linearGradient>
			<path id="Path_435" class="st29" d="M114.4,268.1c27.5,63.6,233.8,43.7,258.4-8.5c26.9-57.1-35-198.2-133.8-191.7
				C155.4,73.5,79,186.3,114.4,268.1z"/>
			
				<linearGradient id="Path_436_1_" gradientUnits="userSpaceOnUse" x1="-551.8317" y1="2.2484" x2="-551.8317" y2="1.4148" gradientTransform="matrix(293.6946 0 0 240.3885 162311.2344 -246.0007)">
				<stop  offset="0" style="stop-color:#0665BD"/>
				<stop  offset="1" style="stop-color:#1A1F77"/>
			</linearGradient>
			<path id="Path_436" class="st30" d="M125.8,259c26.3,52.2,206.4,43.5,232.7-4.4C380.7,213.9,328.1,90,237.6,94.2
				C147.1,98.8,100.4,209.1,125.8,259z"/>
			
				<linearGradient id="Path_437_1_" gradientUnits="userSpaceOnUse" x1="-547.8154" y1="9.8811" x2="-547.8154" y2="9.0063" gradientTransform="matrix(63.8349 0 0 55.4064 35266.4609 -168.6068)">
				<stop  offset="0" style="stop-color:#45FFCD"/>
				<stop  offset="1" style="stop-color:#22E0FF"/>
			</linearGradient>
			<path id="Path_437" class="st31" d="M321.1,197.5c-3.5,9.5-51.1,8.3-51.1,5c0.2-19,10.4-43.9,29.4-43.7
				C319.2,159,327.9,179.7,321.1,197.5z"/>
			<path id="Path_438" class="st32" d="M161.2,198.6c4.1,9.3,51.4,5.6,51.3,2.1c-1.4-19-13-43.1-31.7-42
				C161,160.2,153.6,181.4,161.2,198.6z"/>
			<path id="Path_439" class="st33" d="M213.2,233.7c-7.2,1.7,7.7,25.5,31.7,25.5c21.3,0,33.3-24.6,30.6-25.5s-15.5,5.6-33.3,5.6
				S216.1,233.1,213.2,233.7z"/>
			
				<linearGradient id="Path_440_1_" gradientUnits="userSpaceOnUse" x1="-547.6437" y1="3.5005" x2="-547.4845" y2="2.6441" gradientTransform="matrix(67.6189 0 0 99.9368 37137.4453 202.5978)">
				<stop  offset="0" style="stop-color:#CBC1F7"/>
				<stop  offset="1" style="stop-color:#E8DCF7"/>
			</linearGradient>
			<path id="Path_440" class="st34" d="M95.6,483.7c0,0,9.5-13.5,23.2-15.3s18.6,1.9,21.3,11.6c2.7,9.7-16.8,44.7-41,71.2
				c-10.4,0.8-13.5-12-15.1-20.1C84,523.8,91,494.9,95.6,483.7z"/>
			
				<linearGradient id="Path_441_1_" gradientUnits="userSpaceOnUse" x1="-546.9545" y1="3.453" x2="-547.0868" y2="2.6626" gradientTransform="matrix(61.4469 0 0 100.548 33726.1797 202.2733)">
				<stop  offset="0" style="stop-color:#BE9DEA"/>
				<stop  offset="1" style="stop-color:#9E8CEF"/>
			</linearGradient>
			<path id="Path_441" class="st35" d="M129.1,468.2c0,0-25.7,35.8-33.8,56.3c-4.4,11-7,18.4-7,18.4s6.8,17,17.8,2.7
				c15.7-20.1,36.7-50.3,32.9-64.8C135.6,468.6,133.5,466.3,129.1,468.2z"/>
			
				<linearGradient id="Path_442_1_" gradientUnits="userSpaceOnUse" x1="-544.2092" y1="5.509" x2="-544.3484" y2="4.6909" gradientTransform="matrix(36.1151 0 0 60.1013 20035.0742 104.1541)">
				<stop  offset="0" style="stop-color:#BE9DEA"/>
				<stop  offset="1" style="stop-color:#9E8CEF"/>
			</linearGradient>
			<path id="Path_442" class="st36" d="M372.6,386.8c-11.8,3.7-13.2,43.7-1.9,48.7c11.2,5,26.9-30,21.1-45.8
				C391.9,389.7,381.3,384.1,372.6,386.8z"/>
			
				<linearGradient id="Path_443_1_" gradientUnits="userSpaceOnUse" x1="-550.0088" y1="5.8952" x2="-549.9556" y2="5.1154" gradientTransform="matrix(101.9324 0 0 55.5386 56470.7109 108.1319)">
				<stop  offset="0" style="stop-color:#CBC1F7"/>
				<stop  offset="1" style="stop-color:#E8DCF7"/>
			</linearGradient>
			<path id="Path_443" class="st37" d="M373.7,391.5c0,0-8.3,8.3-4.8,21.9c3.7,13.5,21.7,22.6,44.1,22.4c22.4-0.2,36.7-16.4,40-26.3
				c0,0-4.1-8.3-26.1-13.3c-14.9-3.5-35-6.2-35-6.2S381.5,388.2,373.7,391.5z"/>
			
				<linearGradient id="Path_444_1_" gradientUnits="userSpaceOnUse" x1="-548.8841" y1="8.3732" x2="-548.9283" y2="7.4994" gradientTransform="matrix(75.8731 0 0 37.3308 42045.7656 107.0599)">
				<stop  offset="0" style="stop-color:#BE9DEA"/>
				<stop  offset="1" style="stop-color:#9E8CEF"/>
			</linearGradient>
			<path id="Path_444" class="st38" d="M369.8,415.8c14.1,3.9,28.8,4.6,43.1,2.3c23.4-4.3,16.2-20.9,16.2-20.9s-11.4-5.8-21.9-7.9
				c-10.4-2.1-33.3,0-33.3,0S361.5,400.2,369.8,415.8z"/>
			
				<linearGradient id="Path_445_1_" gradientUnits="userSpaceOnUse" x1="-519.0999" y1="9.2036" x2="-519.0999" y2="8.371" gradientTransform="matrix(9.22 0 0 33.215 5174.1309 127.1028)">
				<stop  offset="0" style="stop-color:#8DA4E5"/>
				<stop  offset="1" style="stop-color:#755CBB"/>
			</linearGradient>
			<path id="Path_445" class="st39" d="M384.2,429.8c0,0,2.1-16.6,0.2-24.6c0,0,6.6,17.4,7.5,27.7L384.2,429.8z"/>
			
				<linearGradient id="Path_446_1_" gradientUnits="userSpaceOnUse" x1="-549.3347" y1="3.0368" x2="-549.3347" y2="2.2036" gradientTransform="matrix(83.603 0 0 126.931 46344.8086 116.9862)">
				<stop  offset="0" style="stop-color:#6FCAF4"/>
				<stop  offset="1" style="stop-color:#7DFFCF"/>
			</linearGradient>
			<path id="Path_446" class="st40" d="M451.3,488.9l-9.3,0.6l7.5,1.5l-1.4,10.3c0,0-0.2,0-0.6,0c-0.2,0-0.2,0-0.4,0
				c-1.7,0.2-6,0.4-11.4,0.6c-13.3,0.6-34.8,1.2-50.9-0.8c0,0,8.3-51.3,0-91.1l-0.8-8.3l-0.2-1.5l33.1-3.5c0,0,17.2,28.6,29.6,59
				c2.5,6.4,5,12.8,7,19L451.3,488.9z"/>
			
				<linearGradient id="Path_447_1_" gradientUnits="userSpaceOnUse" x1="-548.6013" y1="5.1838" x2="-548.6013" y2="4.3509" gradientTransform="matrix(69.749 0 0 63.622 38682.2031 134.188)">
				<stop  offset="0" style="stop-color:#755CBB"/>
				<stop  offset="1" style="stop-color:#CCEDFF"/>
			</linearGradient>
			<path id="Path_447" class="st41" d="M446.8,455.9l-48.2,8.1l-9.9-53l41.4,15.1C430.2,426.1,444.9,451,446.8,455.9z"/>
			
				<linearGradient id="Path_448_1_" gradientUnits="userSpaceOnUse" x1="-549.3239" y1="3.0991" x2="-549.3239" y2="2.2657" gradientTransform="matrix(83.406 0 0 123.1432 46235.9805 121.0057)">
				<stop  offset="0" style="stop-color:#755CBB"/>
				<stop  offset="1" style="stop-color:#CCEDFF"/>
			</linearGradient>
			<path id="Path_448" class="st42" d="M390,497.5c0,0,29.8,3.5,58.4,3.7c0,0-0.2,0-0.6,0c-0.2,0-0.2,0-0.4,0
				c-1.7,0.2-6,0.4-11.4,0.6c-14.5,0.8-38.3,1.4-50.9-0.8c0,0,8.3-51.3,0-91.1l-0.8-8.3l2.9-1.7l54.9,49.5l4.6,6.2
				c2.5,6.4,5,12.8,7,19h-50.7l-4.6,9.9l43.3,4.8l-44.3-2.9L390,497.5z"/>
			
				<linearGradient id="Path_449_1_" gradientUnits="userSpaceOnUse" x1="-549.793" y1="4.6426" x2="-549.793" y2="3.8091" gradientTransform="matrix(95.33 0 0 73.789 52835.6719 108.8475)">
				<stop  offset="0" style="stop-color:#6FCAF4"/>
				<stop  offset="1" style="stop-color:#7DFFCF"/>
			</linearGradient>
			<path id="Path_449" class="st43" d="M384.2,400.4c0,0,13.2-8.7,39.3-10.4c0,0,25.3,27.5,40.2,59.8l-64.2,1.7
				C399.4,451.4,393.1,417.4,384.2,400.4z"/>
			
				<linearGradient id="Path_450_1_" gradientUnits="userSpaceOnUse" x1="-547.7448" y1="14.8669" x2="-546.9116" y2="14.8669" gradientTransform="matrix(54.293 0 0 19.3438 30127.5078 117.2058)">
				<stop  offset="0" style="stop-color:#755CBB"/>
				<stop  offset="1" style="stop-color:#CCEDFF"/>
			</linearGradient>
			<path id="Path_450" class="st44" d="M388.8,397.8c0,0,10.4,11.2,23.8,14.5c13.5,3.3,21.3-9.7,21.3-9.7l-4.6-6L388.8,397.8z"/>
			
				<linearGradient id="Path_451_1_" gradientUnits="userSpaceOnUse" x1="-549.1057" y1="28.9635" x2="-549.0515" y2="27.733" gradientTransform="matrix(66.9781 0 0 23.7177 37132.3555 98.8119)">
				<stop  offset="0" style="stop-color:#CBC1F7"/>
				<stop  offset="1" style="stop-color:#E8DCF7"/>
			</linearGradient>
			<path id="Path_451" class="st45" d="M375.5,390.3c-3.3-10.4,43.3-10.3,49.7-6.2c2.7,1.7,7.5,7.9,5.6,11.8
				c-1.9,3.7-17.4,6-23.8,5.4C400.6,400.7,377.6,397.3,375.5,390.3z"/>
			
				<linearGradient id="Path_452_1_" gradientUnits="userSpaceOnUse" x1="-540.2134" y1="14.3351" x2="-540.2842" y2="13.5396" gradientTransform="matrix(23.9618 0 0 20.8573 13366.1826 102.3083)">
				<stop  offset="0" style="stop-color:#CBC1F7"/>
				<stop  offset="1" style="stop-color:#D4BEF1"/>
			</linearGradient>
			<path id="Path_452" class="st46" d="M411.2,401.3c0,0-0.4-10.3,4.8-14.3c5.2-4.1,10.3-1.9,10.3-1.9s7,5.2,4.4,10.8
				C428.1,401.3,414.7,402.7,411.2,401.3z"/>
			<path id="Path_453" class="st47" d="M411.4,409.8c-9.9,4.4-6.2,26.1,6.4,31.9c12.4,5.8,22-7.7,20.3-19.7
				C436.4,410.2,417.8,406.9,411.4,409.8z"/>
			<g id="Group_39" transform="translate(443.025 410.014)">
				<path id="Path_454" class="st2" d="M-23.2,6.2C-22.6,6-22.1,6-21.5,6c0.8,0,1.4,0,2.1,0l0.8,3.7c-0.4-0.2-0.8-0.2-1.2-0.2
					c-0.4,0-0.8,0-1,0c-0.4,0-0.8,0-1,0.2c-0.4,0.2-0.8,0.6-1,1c-0.2,0.4-0.2,1,0,1.5c0.2,0.4,0.4,1,0.8,1.2
					c0.4,0.4,0.8,0.6,1.2,0.8c0.4,0.2,1,0.4,1.4,0.6c0.6,0.2,1,0.4,1.5,0.8c0.6,0.4,1,0.8,1.4,1.2c1,1.2,1.4,2.5,1.4,3.9
					c0,0.6-0.2,1.2-0.4,1.7c-0.2,0.4-0.6,1-1,1.4c-0.4,0.4-0.8,0.8-1.2,1l3.9,7.2h-3.5l-1.7-6.6c0,0-0.2,0-0.4,0.2
					c-0.2,0-0.6,0.2-0.8,0.2c-0.4,0-0.8,0-1,0c-0.4,0-0.8-0.2-1.2-0.2l-1-3.7c0.4,0.2,1,0.4,1.5,0.4c0.4,0,0.8,0,1.4,0
					c0.4,0,0.8,0,1.2-0.2c0.6-0.6,0.8-1.4,0.6-1.9c-0.2-0.4-0.4-0.8-0.8-1c-0.4-0.4-0.8-0.6-1.2-0.8c-0.4-0.2-1-0.6-1.5-0.8
					c-0.6-0.2-1.2-0.6-1.5-1c-0.6-0.4-1-0.8-1.4-1.4s-0.8-1.2-1-1.9c-0.4-1.2-0.4-2.3,0-3.3s1-1.7,1.9-2.3l-3.1-7.7l2.9,0.8
					L-23.2,6.2z"/>
			</g>
			<path id="Path_455" class="st2" d="M268.1,79.7c-1.9,2.3,19.9,11.8,22.8,10.4C293.8,88.8,274.3,72.2,268.1,79.7z"/>
			
				<linearGradient id="Path_456_1_" gradientUnits="userSpaceOnUse" x1="-551.8042" y1="4.2361" x2="-550.9712" y2="4.2361" gradientTransform="matrix(212.0587 0 0 88.6694 117172.2344 -236.5916)">
				<stop  offset="0" style="stop-color:#000000"/>
				<stop  offset="1" style="stop-color:#6A9BFF"/>
			</linearGradient>
			<path id="Path_456" class="st48" d="M157.5,146.6c-2.1,12.4,21.5,11,59.2,9.7c45.3-1.5,90.7,37.5,117.2,9.5
				c4.4-4.6-38.9-65-91.3-63.6S159.2,135.8,157.5,146.6z"/>
			
				<linearGradient id="Path_457_1_" gradientUnits="userSpaceOnUse" x1="-551.1997" y1="11.0358" x2="-550.367" y2="11.0358" gradientTransform="matrix(154.1783 0 0 28.7637 85163.5469 -37.3908)">
				<stop  offset="0" style="stop-color:#000000"/>
				<stop  offset="1" style="stop-color:#6A9BFF"/>
			</linearGradient>
			<path id="Path_457" class="st49" d="M180.7,276c-2.3,9.1,16.4,18,62.7,15.7c55.9-2.7,67.9-14.5,65.2-17.8
				c-1.7-1.9-18.4,8.7-64.4-1.5C213.8,265.8,183.2,266.5,180.7,276z"/>
			
				<linearGradient id="Path_458_1_" gradientUnits="userSpaceOnUse" x1="-536.9229" y1="4.8774" x2="-536.9229" y2="4.0437" gradientTransform="matrix(22.5553 0 0 78.7354 12249.9707 -131.0581)">
				<stop  offset="0" style="stop-color:#000000"/>
				<stop  offset="1" style="stop-color:#00E3FF"/>
			</linearGradient>
			<path id="Path_458" class="st50" d="M130.8,248c-1.2-10.3-1-20.5,0.4-30.6c2.3-17.6,7-28.8,9.9-27.3c2.9,1.5,2.3,18.8,4.1,35.6
				c1.4,13.2,3.9,25.5,3.9,25.5S136.6,263,130.8,248z"/>
			
				<linearGradient id="Path_459_1_" gradientUnits="userSpaceOnUse" x1="-547.9871" y1="9.1709" x2="-547.9871" y2="8.338" gradientTransform="matrix(72.154 0 0 36.8632 39683.9336 -48.9714)">
				<stop  offset="0" style="stop-color:#8DA4E5"/>
				<stop  offset="1" style="stop-color:#755CBB"/>
			</linearGradient>
			<path id="Path_459" class="st51" d="M134.7,289.2c0,0,2.7-3.1,17.8-11.8c10.1-5.8,20.5-12.8,22-15.5c2.1-6-42.9-2.5-42.9-2.5
				l-17.2,8.3C114.4,267.7,121.1,281.2,134.7,289.2z"/>
			
				<linearGradient id="Path_460_1_" gradientUnits="userSpaceOnUse" x1="-549.4623" y1="3.2312" x2="-549.3231" y2="2.389" gradientTransform="matrix(104.8115 0 0 137.3805 57677.7461 -171.5385)">
				<stop  offset="0" style="stop-color:#BE9DEA"/>
				<stop  offset="1" style="stop-color:#9E8CEF"/>
			</linearGradient>
			<path id="Path_460" class="st52" d="M100.1,156.3c0,0,11.6,7.5,4.1,24.8c0,0-54.3,29.6-51.3,61.9c2.7,26.9,77.7,13.9,77.7,13.9
				l2.7,8.9c0,0-63.8,12.6-85.9-2.5c0,0-7.5-17.8,11-49.9S100.1,156.3,100.1,156.3z"/>
			
				<linearGradient id="Path_461_1_" gradientUnits="userSpaceOnUse" x1="-547.7451" y1="8.7604" x2="-547.7451" y2="7.8415" gradientTransform="matrix(68.6656 0 0 35.5306 37759.1992 -68.1154)">
				<stop  offset="0" style="stop-color:#DD1A8F"/>
				<stop  offset="1" style="stop-color:#FE117E"/>
			</linearGradient>
			<path id="Path_461" class="st53" d="M121.1,254.3c-6.8,7.7,7.7,16.2,19.5,17.6c13.3,1.5,37.1-3.9,35.8-17.4
				C175.1,241,137.2,236.2,121.1,254.3z"/>
			
				<linearGradient id="Path_462_1_" gradientUnits="userSpaceOnUse" x1="-546.8046" y1="19.5063" x2="-546.8046" y2="18.6733" gradientTransform="matrix(58.3022 0 0 16.6247 32026.291 -67.1633)">
				<stop  offset="0" style="stop-color:#D93DE3"/>
				<stop  offset="1" style="stop-color:#FF6DBA"/>
			</linearGradient>
			<path id="Path_462" class="st54" d="M122.1,255.7c-0.4,2.1,47.4,2.7,48.5-5.8C171.6,241.6,125.2,238.7,122.1,255.7z"/>
			
				<linearGradient id="Path_463_1_" gradientUnits="userSpaceOnUse" x1="-543.0407" y1="9.7486" x2="-542.2078" y2="9.7486" gradientTransform="matrix(30.6099 0 0 36.4313 16972.7754 -244.5843)">
				<stop  offset="0" style="stop-color:#000000"/>
				<stop  offset="1" style="stop-color:#D4E2FF"/>
			</linearGradient>
			<path id="Path_463" class="st55" d="M372.6,101.6c0,0-6.4-7.9-14.9-5.8c-8.7,2.1-9.3,29.4-4.1,30c5.2,0.6,7.3-15.1,11.4-17.6
				c4.1-2.5,10.8-1.5,10.8-1.5L372.6,101.6z"/>
			
				<linearGradient id="Path_464_1_" gradientUnits="userSpaceOnUse" x1="-542.5428" y1="8.7968" x2="-541.7098" y2="8.7968" gradientTransform="matrix(33.7345 0 0 40.6593 18405.8848 -248.8065)">
				<stop  offset="0" style="stop-color:#D4E2FF"/>
				<stop  offset="1" style="stop-color:#000000"/>
			</linearGradient>
			<path id="Path_464" class="st56" d="M103.5,113.2c0,0,3.3-3.9,10.8-2.5c7.3,1.2,11.8,16.6,15.7,15.1c3.9-1.5,1-26.5-9.1-33.8
				C120.7,91.9,107.8,103.1,103.5,113.2z"/>
			
				<linearGradient id="Path_465_1_" gradientUnits="userSpaceOnUse" x1="-534.783" y1="5.6344" x2="-535.0086" y2="4.8131" gradientTransform="matrix(20.342 0 0 54.949 10997.7432 213.8284)">
				<stop  offset="0" style="stop-color:#8DA4E5"/>
				<stop  offset="1" style="stop-color:#755CBB"/>
			</linearGradient>
			<path id="Path_465" class="st57" d="M107.2,501.3c0,0,3.7,19.1,15.1,21.9l1.9-45.8C124.2,477.3,110.7,495.3,107.2,501.3z"/>
			
				<linearGradient id="Path_466_1_" gradientUnits="userSpaceOnUse" x1="-539.8934" y1="4.7141" x2="-539.6318" y2="3.8771" gradientTransform="matrix(27.4752 0 0 68.3374 14958.9092 203.5545)">
				<stop  offset="0" style="stop-color:#CBC1F7"/>
				<stop  offset="1" style="stop-color:#E8DCF7"/>
			</linearGradient>
			<path id="Path_466" class="st58" d="M118.6,488.2c-1.7,4.4,1.5,33.3,4.8,36.6c3.1,3.3,10.4-2.3,12.4-8.1
				c1.9-5.8,11-37.7-0.6-47.8C135.1,468.8,125.8,469.8,118.6,488.2z"/>
			<path id="Path_467" class="st2" d="M123.8,492.2c-1.4,0.2-2.7,10.1-1.7,11.8c1,1.7,3.1,1.5,4.3-0.6
				C127.5,501.3,125.8,491.8,123.8,492.2z"/>
			
				<linearGradient id="Path_468_1_" gradientUnits="userSpaceOnUse" x1="-540.2578" y1="9.1773" x2="-540.2578" y2="8.3443" gradientTransform="matrix(29.4116 0 0 38.8748 15967.2822 -150.5655)">
				<stop  offset="0" style="stop-color:#CBC1F7"/>
				<stop  offset="1" style="stop-color:#E8DCF7"/>
			</linearGradient>
			<path id="Path_468" class="st59" d="M89.6,173.9c0,0-25.9,30.2-24.4,32.3C67,208.1,91.4,176.8,89.6,173.9z"/>
		</g>
	</g>
</g>
</svg>
