<?xml version="1.0" encoding="utf-8"?>
<!-- Generator: Adobe Illustrator 24.0.2, SVG Export Plug-In . SVG Version: 6.00 Build 0)  -->
<svg version="1.1" id="Layer_1" xmlns="http://www.w3.org/2000/svg" xmlns:xlink="http://www.w3.org/1999/xlink" x="0px" y="0px"
	 viewBox="0 0 822.1 654.1" style="enable-background:new 0 0 822.1 654.1;" xml:space="preserve">
<style type="text/css">
	.st0{fill:#E5F6FF;}
	.st1{fill:url(#Path_719_1_);}
	.st2{fill:url(#Path_720_1_);}
	.st3{fill:url(#Path_721_1_);}
	.st4{fill:url(#Path_722_1_);}
	.st5{opacity:0.3;fill:url(#Path_723_1_);enable-background:new    ;}
	.st6{opacity:0.5;fill:url(#Path_724_1_);enable-background:new    ;}
	.st7{fill:url(#Path_725_1_);}
	.st8{fill:#DFE3FB;}
	.st9{fill:url(#Path_727_1_);}
	.st10{fill:url(#Path_728_1_);}
	.st11{fill:url(#Path_729_1_);}
	.st12{fill:url(#Path_730_1_);}
	.st13{fill:url(#Path_731_1_);}
	.st14{fill:url(#Path_732_1_);}
	.st15{fill:url(#Path_733_1_);}
	.st16{fill:url(#Path_734_1_);}
	.st17{fill:url(#Path_735_1_);}
	.st18{opacity:0.5;fill:url(#Path_736_1_);enable-background:new    ;}
	.st19{opacity:0.5;fill:url(#Path_737_1_);enable-background:new    ;}
	.st20{opacity:0.5;fill:url(#Path_738_1_);enable-background:new    ;}
	.st21{opacity:0.72;fill:url(#Path_739_1_);enable-background:new    ;}
	.st22{opacity:0.72;fill:url(#Path_740_1_);enable-background:new    ;}
	.st23{fill:#2F95CD;}
	.st24{fill:url(#Path_742_1_);}
	.st25{fill:url(#Path_743_1_);}
	.st26{opacity:0.3;fill:url(#Path_744_1_);enable-background:new    ;}
	.st27{fill:url(#Path_745_1_);}
	.st28{fill:url(#Path_746_1_);}
	.st29{opacity:0.3;fill:url(#Path_747_1_);enable-background:new    ;}
	.st30{fill:#FFFFFF;}
	.st31{fill:url(#Path_749_1_);}
	.st32{opacity:0.3;fill:url(#Path_750_1_);enable-background:new    ;}
	.st33{fill:url(#Path_751_1_);}
	.st34{fill:url(#Path_752_1_);}
	.st35{fill:url(#Path_753_1_);}
	.st36{fill:#6340A2;}
	.st37{opacity:0.5;fill:url(#Path_755_1_);enable-background:new    ;}
	.st38{opacity:0.72;fill:url(#Path_756_1_);enable-background:new    ;}
	.st39{opacity:0.72;fill:url(#Path_757_1_);enable-background:new    ;}
	.st40{fill:url(#Path_759_1_);}
	.st41{fill:url(#Path_760_1_);}
	.st42{opacity:0.3;fill:url(#Path_761_1_);enable-background:new    ;}
	.st43{fill:url(#Path_762_1_);}
	.st44{fill:url(#Path_763_1_);}
	.st45{opacity:0.5;fill:url(#Path_764_1_);enable-background:new    ;}
	.st46{fill:url(#Path_765_1_);}
	.st47{fill:url(#Path_770_1_);}
	.st48{opacity:0.3;fill:url(#Path_771_1_);enable-background:new    ;}
	.st49{fill:url(#Path_775_1_);}
	.st50{fill:url(#Path_776_1_);}
	.st51{fill:url(#Path_777_1_);}
	.st52{fill:url(#Path_778_1_);}
	.st53{fill:url(#Path_779_1_);}
	.st54{fill:#FF9D4D;}
	.st55{fill:#FFE840;}
	.st56{fill:#D1975D;}
</style>
<g id="pic-bit" transform="translate(-36.541 -1274)">
	<g id="Group_71" transform="translate(-245.422 1210.955)">
		<g id="Group_70" transform="translate(281.963 63.045)">
			<g id="Group_56" transform="translate(0)">
				<path id="Path_716" class="st0" d="M537.3,565.9c-27.9,46.3-261.9,33.8-349.4-9.2c-87.5-43-96.3-411.7-54.7-466.8
					s306-72.6,414.4-12.9S574.5,504.3,537.3,565.9z"/>
				<path id="Path_717" class="st0" d="M131,65.6C130.7,43,80.1,17.2,50.8,24.8S17.1,133.4,61.6,136.7
					C106,140.1,131.3,93.8,131,65.6z"/>
				<path id="Path_718" class="st0" d="M592.2,542.7c3.9-16.9-9.1-35-21.1-31.8c-12,3.1-25.5,59.5-7.3,60.9
					C582,573.1,589.6,553.9,592.2,542.7z"/>
			</g>
			<g id="Group_69" transform="translate(100.583 19.427)">
				<g id="Group_57" transform="translate(80.224)">
					
						<linearGradient id="Path_719_1_" gradientUnits="userSpaceOnUse" x1="-267.0135" y1="802.2" x2="-267.0135" y2="803.1733" gradientTransform="matrix(59.0836 0 0 -88.5181 16069.3828 71420.6328)">
						<stop  offset="0" style="stop-color:#45FFCD"/>
						<stop  offset="1" style="stop-color:#22E0FF"/>
					</linearGradient>
					<path id="Path_719" class="st1" d="M280.4,39.5c0,0,27.5,19.8,38.6,63.9c11.1,44.2-52.9-10.4-52.9-10.4L280.4,39.5z"/>
					
						<linearGradient id="Path_720_1_" gradientUnits="userSpaceOnUse" x1="-267.4814" y1="800.7067" x2="-267.4814" y2="801.7646" gradientTransform="matrix(96.132 0 0 -69.552 25974.0879 56065.8594)">
						<stop  offset="0" style="stop-color:#B9ACF4"/>
						<stop  offset="1" style="stop-color:#E1D1F5"/>
					</linearGradient>
					<path id="Path_720" class="st2" d="M304.7,85.7c0,0-20.9-53-40.2-61.4s-48,8.1-48,8.1L304.7,85.7z"/>
					
						<linearGradient id="Path_721_1_" gradientUnits="userSpaceOnUse" x1="-267.9203" y1="806.0747" x2="-268.0231" y2="807.0215" gradientTransform="matrix(338.0771 0 0 -292.2195 90822.5547 236114.5313)">
						<stop  offset="0" style="stop-color:#CBC1F7"/>
						<stop  offset="1" style="stop-color:#E8DCF7"/>
					</linearGradient>
					<path id="Path_721" class="st3" d="M66.3,265.3c50.4,53.5,243.9,26.2,271-10.7c10.8-14.7,16.1-32.3,16.8-51.1l0-0.1
						c2.8-80.6-79.1-183.8-180.6-175.9C104.7,33,59.1,99.6,47.1,163.7C39.6,203.8,45.1,242.8,66.3,265.3z"/>
					
						<linearGradient id="Path_722_1_" gradientUnits="userSpaceOnUse" x1="-267.7066" y1="804.7042" x2="-268.6177" y2="804.7042" gradientTransform="matrix(248.7423 0 0 -50.8728 66849.7031 41209.2188)">
						<stop  offset="0" style="stop-color:#8879EA"/>
						<stop  offset="1" style="stop-color:#9E8CEF"/>
					</linearGradient>
					<path id="Path_722" class="st4" d="M109.5,287.3c25.6,5.8,63.2,8.8,87.7,7.3c45.6-2.7,78.2-9.7,96.2-18.1l0,0
						c11.8-5.6,17.3-11.7,16.1-17.6c-0.7-3.6-9.9-6.2-24.1-8c-41.9-5.1-127.8-2.5-173.6,7.2c-3.9,0.9-7.6,1.7-10.9,2.7
						c-0.7,0.2-1.4,0.4-2,0.6c-0.1,0-0.3,0.1-0.4,0.1c-7.9,2.4-13.4,5.2-15.7,8.2c-0.6,0.7-1,1.5-1.2,2.3
						C80.2,278.2,92.1,283.4,109.5,287.3z"/>
					
						<linearGradient id="Path_723_1_" gradientUnits="userSpaceOnUse" x1="-268.0558" y1="805.095" x2="-268.0558" y2="806.1171" gradientTransform="matrix(338.012 0 0 -176.8869 90805.0469 142975.0781)">
						<stop  offset="0" style="stop-color:#9D68C2"/>
						<stop  offset="1" style="stop-color:#CCEDFF"/>
					</linearGradient>
					<path id="Path_723" class="st5" d="M66.3,265.3c50.4,53.5,243.9,26.2,271-10.7c10.8-14.7,16.1-32.3,16.8-51.1l0-0.1
						c0,0-11.6,26.2-50.7,33.3c-39.2,7.1-154.6,7.9-179-8s-19.9-95.8-19.9-95.8l-57.2,30.8C39.6,203.8,45.1,242.8,66.3,265.3z"/>
					
						<linearGradient id="Path_724_1_" gradientUnits="userSpaceOnUse" x1="-267.9644" y1="797.1442" x2="-267.9644" y2="798.3809" gradientTransform="matrix(248.7427 0 0 -42.4814 66849.8047 34424.1641)">
						<stop  offset="0" style="stop-color:#8DA4E5"/>
						<stop  offset="1" style="stop-color:#755CBB"/>
					</linearGradient>
					<path id="Path_724" class="st6" d="M109.5,287.3c19.2-9.7,75.4-35.2,122-27.5c57.2,9.4,61.9,16.7,61.9,16.7l0,0
						c11.8-5.6,17.3-11.7,16.1-17.6c-0.7-3.6-9.9-6.2-24.1-8c-41.9-5.1-127.8-2.5-173.6,7.2c-4.8,1.2-9.1,2.2-12.9,3.3
						c-0.1,0-0.3,0.1-0.4,0.1c-7.9,2.4-13.4,5.2-15.7,8.2c-0.6,0.7-1,1.5-1.2,2.3C80.2,278.2,92.1,283.4,109.5,287.3z"/>
					
						<linearGradient id="Path_725_1_" gradientUnits="userSpaceOnUse" x1="-267.7173" y1="793.1585" x2="-267.7384" y2="794.3347" gradientTransform="matrix(201.1 0 0 -29.0803 54064.3047 23588.4121)">
						<stop  offset="0" style="stop-color:#5E36CC"/>
						<stop  offset="1" style="stop-color:#6C4A96"/>
					</linearGradient>
					<path id="Path_725" class="st7" d="M100.9,260.8c11.4,9.7,63.6,15.7,93.1,14c52.9-3.1,84.5-13.3,91.4-23.8
						C240,245.3,142.5,248.9,100.9,260.8z"/>
					<path id="Path_726" class="st8" d="M354.7,207.1c-6.9,24.6-174,43.1-219.3,3.4S122.3,27.7,211.7,35.4
						C296.9,42.7,367.2,162.4,354.7,207.1z"/>
					
						<linearGradient id="Path_727_1_" gradientUnits="userSpaceOnUse" x1="-267.9963" y1="805.4644" x2="-267.9963" y2="806.4333" gradientTransform="matrix(262.8872 0 0 -216.3596 70687.6484 174781)">
						<stop  offset="0" style="stop-color:#0665BD"/>
						<stop  offset="1" style="stop-color:#1A1F77"/>
					</linearGradient>
					<path id="Path_727" class="st9" d="M354,203.4c-6.9,24.6-174,43.1-219.3,3.4S121.6,24.1,211,31.7
						C296.2,39,366.5,158.8,354,203.4z"/>
					
						<linearGradient id="Path_728_1_" gradientUnits="userSpaceOnUse" x1="-267.2442" y1="806.6232" x2="-267.2442" y2="807.5407" gradientTransform="matrix(89.9338 0 0 -154.6861 24114.6133 124907.8125)">
						<stop  offset="0" style="stop-color:#B9ACF4"/>
						<stop  offset="1" style="stop-color:#E1D1F5"/>
					</linearGradient>
					<path id="Path_728" class="st10" d="M121,56.2c0,0,8.7,82.8-42.5,111.9c0,0-25,2.6-39.5-12.7c0,0,22.5,21.4,46.5-0.7
						s18.6-83.4,0.5-103.4S41.9,36.4,41.9,36.4L52.4,27C52.4,27,91,19.3,121,56.2z"/>
					
						<linearGradient id="Path_729_1_" gradientUnits="userSpaceOnUse" x1="-267.2134" y1="806.5786" x2="-267.2134" y2="807.4951" gradientTransform="matrix(88.2865 0 0 -148.1491 23660.9688 119622.8672)">
						<stop  offset="0" style="stop-color:#BE9DEA"/>
						<stop  offset="1" style="stop-color:#9E8CEF"/>
					</linearGradient>
					<path id="Path_729" class="st11" d="M52.4,27c0,0,28.4-2.5,48,30.6c20.9,35.1,5.3,95.6-20.3,104.7c-25.6,9.1-51-89-51-89
						l15-38.9C44.2,34.3,47.2,28.9,52.4,27z"/>
					
						<linearGradient id="Path_730_1_" gradientUnits="userSpaceOnUse" x1="-267.3299" y1="806.5599" x2="-267.3299" y2="807.4774" gradientTransform="matrix(99.7581 0 0 -145.153 26727.6914 117206.9141)">
						<stop  offset="0" style="stop-color:#45FFCD"/>
						<stop  offset="1" style="stop-color:#22E0FF"/>
					</linearGradient>
					<path id="Path_730" class="st12" d="M15.3,110.2c3.6,18.9,11.2,34.4,21.4,44.3l0.1,0.1l2.9,2.6h0c8.3,6.8,18.1,10,28.8,8.7
						c34.5-4.2,39.4-54.3,35.5-82.7c-4.6-32.8-32.5-52.7-54.7-49.9C22.7,36.5,8.4,73.2,15.3,110.2z"/>
					
						<linearGradient id="Path_731_1_" gradientUnits="userSpaceOnUse" x1="-266.7882" y1="800.7947" x2="-266.9222" y2="801.9067" gradientTransform="matrix(72.422 0 0 -69.7239 19751.6191 56378.1875)">
						<stop  offset="0" style="stop-color:#BE9DEA"/>
						<stop  offset="1" style="stop-color:#9E8CEF"/>
					</linearGradient>
					<path id="Path_731" class="st13" d="M355,180.8c0,0,24.1,5.5,46.9,24.2c22.8,18.8,28.8,41.6,0.7,39.6l-13-7.7
						c0,0,16.8,2.4,14.6-14.8S355.6,184,355.6,184L355,180.8z"/>
					
						<linearGradient id="Path_732_1_" gradientUnits="userSpaceOnUse" x1="-267.3596" y1="798.9828" x2="-267.3596" y2="800.0085" gradientTransform="matrix(72.7686 0 0 -34.4951 19831.8105 27934.3516)">
						<stop  offset="0" style="stop-color:#DD1A8F"/>
						<stop  offset="1" style="stop-color:#FE117E"/>
					</linearGradient>
					<path id="Path_732" class="st14" d="M407.5,230.6c8.5,8.6-8,16.4-21.8,18.7c-15.5,2.6-43.4,0.9-42.6-15
						S387.7,210.5,407.5,230.6z"/>
					
						<linearGradient id="Path_733_1_" gradientUnits="userSpaceOnUse" x1="-267.1979" y1="780.6944" x2="-267.1979" y2="781.6393" gradientTransform="matrix(62.0246 0 0 -17.1296 16950.9355 13893.9697)">
						<stop  offset="0" style="stop-color:#D93DE3"/>
						<stop  offset="1" style="stop-color:#FF6DBA"/>
					</linearGradient>
					<path id="Path_733" class="st15" d="M406.5,232.4c0.6,2.6-55,6.2-56.9-3.6C347.9,219,401.8,212.7,406.5,232.4z"/>
					
						<linearGradient id="Path_734_1_" gradientUnits="userSpaceOnUse" x1="-266.9635" y1="779.7374" x2="-266.9635" y2="780.9163" gradientTransform="matrix(64.4212 0 0 -16.2955 17378.8203 13108.9707)">
						<stop  offset="0" style="stop-color:#45FFCD"/>
						<stop  offset="1" style="stop-color:#22E0FF"/>
					</linearGradient>
					<path id="Path_734" class="st16" d="M210.2,131.9c1.2,1.6-22-13.3-58.8,1C147.8,134.4,186.5,99.4,210.2,131.9z"/>
					
						<linearGradient id="Path_735_1_" gradientUnits="userSpaceOnUse" x1="-266.7276" y1="774.9642" x2="-266.7276" y2="776.1844" gradientTransform="matrix(47.74 0 0 -14.6178 13038.2148 11753.209)">
						<stop  offset="0" style="stop-color:#45FFCD"/>
						<stop  offset="1" style="stop-color:#22E0FF"/>
					</linearGradient>
					<path id="Path_735" class="st17" d="M326.5,132.1c1.2,1.6-11-10.1-43.3-2.2C279.3,130.7,305.2,103.1,326.5,132.1z"/>
					
						<linearGradient id="Path_736_1_" gradientUnits="userSpaceOnUse" x1="-267.5234" y1="806.2188" x2="-268.4408" y2="806.2188" gradientTransform="matrix(195.8211 0 0 -101.7007 52674.8359 82073.6328)">
						<stop  offset="0" style="stop-color:#000000"/>
						<stop  offset="1" style="stop-color:#6A9BFF"/>
					</linearGradient>
					<path id="Path_736" class="st18" d="M307.5,100.6c-3.8,5.8-35.5-10.7-70.3-7.2c-34.9,3.5-73,37.8-101.6,33.5
						c-22.7-3.4,7.2-85.1,65-92.4S311.3,94.8,307.5,100.6z"/>
					
						<linearGradient id="Path_737_1_" gradientUnits="userSpaceOnUse" x1="-267.576" y1="801.644" x2="-268.4888" y2="801.644" gradientTransform="matrix(144.2415 0 0 -27.4189 38872.5 22197.4746)">
						<stop  offset="0" style="stop-color:#000000"/>
						<stop  offset="1" style="stop-color:#6A9BFF"/>
					</linearGradient>
					<path id="Path_737" class="st19" d="M317.8,210.8c0,0-36.3-9.6-81.1-4.6s-52,9.8-51.2,14c0.8,4.2,33.4,12.9,74.5,8.5
						C301.2,224.3,317.8,210.8,317.8,210.8z"/>
					
						<linearGradient id="Path_738_1_" gradientUnits="userSpaceOnUse" x1="-266.3078" y1="802.2277" x2="-266.3078" y2="803.1965" gradientTransform="matrix(36.2871 0 0 -88.7995 9999.9248 71730.8359)">
						<stop  offset="0" style="stop-color:#000000"/>
						<stop  offset="1" style="stop-color:#6A9BFF"/>
					</linearGradient>
					<path id="Path_738" class="st20" d="M352.8,196.9c0,0,4.6-31.6-23.9-76.4c0,0-6.1-7-8.9-4.5
						C317.1,118.5,345.6,150.9,352.8,196.9z"/>
					
						<linearGradient id="Path_739_1_" gradientUnits="userSpaceOnUse" x1="-267.0815" y1="804.0758" x2="-267.0815" y2="804.9969" gradientTransform="matrix(79.364 0 0 -42.1749 21258.4121 34039.8008)">
						<stop  offset="0" style="stop-color:#D4E2FF"/>
						<stop  offset="1" style="stop-color:#000000"/>
					</linearGradient>
					<path id="Path_739" class="st21" d="M98.2,123.1c0,0-3.8,30.7-26.4,37.2c-22.5,6.5-40.8-9.9-46.4-33c0,0,7,19.9,36.3,15
						S98.2,123.1,98.2,123.1z"/>
					
						<linearGradient id="Path_740_1_" gradientUnits="userSpaceOnUse" x1="-266.5883" y1="803.8094" x2="-267.5048" y2="803.8094" gradientTransform="matrix(82.8893 0 0 -44.7221 22198.3008 36005.2969)">
						<stop  offset="0" style="stop-color:#000000"/>
						<stop  offset="1" style="stop-color:#D4E2FF"/>
					</linearGradient>
					<path id="Path_740" class="st22" d="M94.3,65c-0.3,5.7-41.6-6.4-54.7-4.7S20.7,78.1,18.6,77.7s3.7-38.2,28.1-40.8
						C71.2,34.2,94.5,61,94.3,65z"/>
					<path id="Path_741" class="st23" d="M288.5,163.7c0,0-41.1,1.5-64.4-4.4c0,0,5.5,38.6,32.2,38.6S288.5,163.7,288.5,163.7z"/>
				</g>
				
					<linearGradient id="Path_742_1_" gradientUnits="userSpaceOnUse" x1="-187.4677" y1="806.4716" x2="-187.6025" y2="807.4688" gradientTransform="matrix(136.4936 0 0 -147.3814 26001.8633 119293.3438)">
					<stop  offset="0" style="stop-color:#CBC1F7"/>
					<stop  offset="1" style="stop-color:#D4BEF1"/>
				</linearGradient>
				<path id="Path_742" class="st24" d="M370.3,391.6c0,0,69,39.2,85.2,37.6c16.2-1.6,9-38.5,9-38.5c-2.2-2.5-4.6-5.2-7.1-7.9l0,0
					c-25.9-27.4-70.2-62.4-95.6-79l0,0c-10.7-7-18.1-10.8-19.3-9.4C333,304.9,370.3,391.6,370.3,391.6z"/>
				
					<linearGradient id="Path_743_1_" gradientUnits="userSpaceOnUse" x1="-185.9304" y1="804.0898" x2="-185.7964" y2="805.0009" gradientTransform="matrix(31.0806 0 0 -45.0127 6230.5396 36623.1484)">
					<stop  offset="0" style="stop-color:#BE9DEA"/>
					<stop  offset="1" style="stop-color:#9E8CEF"/>
				</linearGradient>
				<path id="Path_743" class="st25" d="M464.5,390.7c0,0-9-7.6-20.2,2.6c-11.2,10.2,0.3,34.7,11.2,35.9
					C466.3,430.5,472.8,406.6,464.5,390.7z"/>
				
					<linearGradient id="Path_744_1_" gradientUnits="userSpaceOnUse" x1="-187.5429" y1="806.5064" x2="-187.5429" y2="807.4239" gradientTransform="matrix(136.4936 0 0 -147.3813 26001.8633 119293.3359)">
					<stop  offset="0" style="stop-color:#9D68C2"/>
					<stop  offset="1" style="stop-color:#CCEDFF"/>
				</linearGradient>
				<path id="Path_744" class="st26" d="M370.3,391.6c0,0,69,39.2,85.2,37.6c16.2-1.6,9-38.5,9-38.5c-2.2-2.5-4.6-5.2-7.1-7.9l0,0
					c0,0-16.9,10-47.9,5.2c-31.1-4.8-47.7-84.2-47.7-84.2l0,0c-10.7-7-18.1-10.8-19.3-9.4C333,304.9,370.3,391.6,370.3,391.6z"/>
				<g id="Group_58" transform="translate(292.754 502.669)">
					
						<linearGradient id="Path_745_1_" gradientUnits="userSpaceOnUse" x1="-480.0556" y1="305.4617" x2="-480.2354" y2="306.3783" gradientTransform="matrix(84.3954 0 0 -131.6071 40535.6758 40087.5117)">
						<stop  offset="0" style="stop-color:#CBC1F7"/>
						<stop  offset="1" style="stop-color:#E8DCF7"/>
					</linearGradient>
					<path id="Path_745" class="st27" d="M-3,16.9c-1,14.7,14.9,64.7,30.9,80c0,0,0,0,0,0.1c3.1,2.9,6.2,4.6,9.2,4.5
						C50.4,100.9,66.1,39.8,72,5c2.3-13.5,3.1-23,1.7-23.6C62.5-23.5-1.7-0.6-3,16.9z"/>
					
						<linearGradient id="Path_746_1_" gradientUnits="userSpaceOnUse" x1="-479.6715" y1="302.4678" x2="-480.5165" y2="302.4678" gradientTransform="matrix(84.954 0 0 -51.172 40803.4961 15481.7109)">
						<stop  offset="0" style="stop-color:#8879EA"/>
						<stop  offset="1" style="stop-color:#9E8CEF"/>
					</linearGradient>
					<path id="Path_746" class="st28" d="M-3.7,21.6c0,0,14.6,11.1,41.3,2.4c20.9-6.8,38.6-36.5,36.2-42.6S-9.2-2.3-3.7,21.6z"/>
					
						<linearGradient id="Path_747_1_" gradientUnits="userSpaceOnUse" x1="-479.8834" y1="305.4966" x2="-479.8834" y2="306.4544" gradientTransform="matrix(84.3944 0 0 -126.6433 40535.1758 38569.0625)">
						<stop  offset="0" style="stop-color:#9D68C2"/>
						<stop  offset="1" style="stop-color:#CCEDFF"/>
					</linearGradient>
					<path id="Path_747" class="st29" d="M-3,16.9c-1,14.7,14.9,64.7,30.9,80c-11.1-17.6-6.8-49.4,4-62.6c8.2-10,29.9-23.4,40-29.3
						c2.3-13.5,3.1-23,1.7-23.6C62.5-23.5-1.7-0.6-3,16.9z"/>
					<path id="Path_748" class="st30" d="M47.7,39c4.1-0.3,1.4,10.8,0.6,11.4c-0.8,0.6-2.7-3.1-2.8-6.2C45.3,41.5,46.3,39.1,47.7,39
						z"/>
				</g>
				<g id="Group_59" transform="translate(189.025 270.34)">
					
						<linearGradient id="Path_749_1_" gradientUnits="userSpaceOnUse" x1="-376.8545" y1="538.1341" x2="-377.0251" y2="539.0451" gradientTransform="matrix(192.4644 0 0 -287.6339 72588.1563 154642.4219)">
						<stop  offset="0" style="stop-color:#CBC1F7"/>
						<stop  offset="1" style="stop-color:#E8DCF7"/>
					</linearGradient>
					<path id="Path_749" class="st31" d="M5.1,159.9c-4,55,18.9,86,72,101.1c52,14.7,100.6-32,103.5-103.1
						c1.9-45.4,0.6-86.5-14.6-116.4l0,0l0-0.1c-8.6-16.9-21.6-30.1-41-38.5c-15.3-6.6-31-2-45.8,9.4C40.6,42,8.2,117.5,5.1,159.9z"
						/>
					
						<linearGradient id="Path_750_1_" gradientUnits="userSpaceOnUse" x1="-375.6615" y1="538.8616" x2="-375.6615" y2="539.7919" gradientTransform="matrix(62.246 0 0 -145.719 23416.582 78336.8906)">
						<stop  offset="0" style="stop-color:#9D68C2"/>
						<stop  offset="1" style="stop-color:#CCEDFF"/>
					</linearGradient>
					<path id="Path_750" class="st32" d="M61.7,71.2c0,0-17.5,38.7-25.5,65.5c-9.5,31.9-0.6,68.2-0.6,68.2l-31-35.7
						c0,0-1.2-23.1,7-43.8s12.8-30,12.8-30L61.7,71.2z"/>
					
						<linearGradient id="Path_751_1_" gradientUnits="userSpaceOnUse" x1="-376.4305" y1="536.7763" x2="-377.2837" y2="536.7763" gradientTransform="matrix(150.2427 0 0 -161.8769 56687.1211 87076.5313)">
						<stop  offset="0" style="stop-color:#BE9DEA"/>
						<stop  offset="1" style="stop-color:#9E8CEF"/>
					</linearGradient>
					<path id="Path_751" class="st33" d="M181.2,166.9c0,0-0.4-42.6-37.7-53.8c-44.6-13.3-89.4,27.1-96.7,61.5s-6.4,68.8,35.4,82.7
						C82.3,257.4,161.7,279.2,181.2,166.9z"/>
					
						<radialGradient id="Path_752_1_" cx="-378.076" cy="536.6673" r="0.5991" gradientTransform="matrix(-154.9002 -46.1358 46.1245 -155.2428 -83341.1484 66100.9922)" gradientUnits="userSpaceOnUse">
						<stop  offset="0" style="stop-color:#45FFCD"/>
						<stop  offset="1" style="stop-color:#22E0FF"/>
					</radialGradient>
					<path id="Path_752" class="st34" d="M179.4,171.6c0,0-0.4-42.6-37.7-53.8C97.1,104.5,52.3,145,45,179.3s-6.4,68.8,35.4,82.7
						C80.4,262,159.9,283.8,179.4,171.6z"/>
					
						<linearGradient id="Path_753_1_" gradientUnits="userSpaceOnUse" x1="-376.5724" y1="535.8643" x2="-377.155" y2="535.8643" gradientTransform="matrix(56.6563 0 0 -88.5258 21327.8086 47505.332)">
						<stop  offset="0" style="stop-color:#8879EA"/>
						<stop  offset="1" style="stop-color:#9E8CEF"/>
					</linearGradient>
					<path id="Path_753" class="st35" d="M28.3,108c1.9,0.6,4.5-0.4,7.4-2.6c13.1-9.7,33.6-42.8,39.4-62.8
						c2.3-7.8,2.3-13.6-1.2-15.3c-5.7-2.8-23.7,13.7-38,40.3C27.6,83,20,105.5,28.3,108z"/>
					<path id="Path_754" class="st36" d="M35.7,105.4c13.1-9.7,33.6-42.8,39.4-62.8C67,48.4,55.6,61.8,45.8,79.9
						C41.6,87.8,37.6,97.4,35.7,105.4z"/>
					
						<linearGradient id="Path_755_1_" gradientUnits="userSpaceOnUse" x1="-376.2469" y1="541.4999" x2="-376.2469" y2="542.2091" gradientTransform="matrix(95.1356 0 0 -58.6853 35917.8438 31414.3945)">
						<stop  offset="0" style="stop-color:#8DA4E5"/>
						<stop  offset="1" style="stop-color:#755CBB"/>
					</linearGradient>
					<path id="Path_755" class="st37" d="M79.7,12c0,0,48.4,36.9,70.1,40.8c21,3.8,17-10.7,16.7-11.5l0,0l0-0.1
						c-8.6-16.9-21.6-30.1-41-38.5C110.2-4,94.5,0.6,79.7,12z"/>
					
						<linearGradient id="Path_756_1_" gradientUnits="userSpaceOnUse" x1="-376.3891" y1="534.7647" x2="-377.312" y2="534.7647" gradientTransform="matrix(115.2534 0 0 -53.4005 43504.6328 28701.1113)">
						<stop  offset="0" style="stop-color:#000000"/>
						<stop  offset="1" style="stop-color:#D4E2FF"/>
					</linearGradient>
					<path id="Path_756" class="st38" d="M175.7,166.6c-8.8,9-25.7-10.9-52.7-15.7c-27-4.8-45.2,4.9-51.6-1.2
						c-6.4-6,28.9-38.1,69.5-27.7C173.4,130.3,178.7,163.5,175.7,166.6z"/>
					
						<linearGradient id="Path_757_1_" gradientUnits="userSpaceOnUse" x1="-375.6745" y1="551.2923" x2="-375.6745" y2="551.9565" gradientTransform="matrix(59.22 0 0 -18.5298 22337.8164 10066.6426)">
						<stop  offset="0" style="stop-color:#D4E2FF"/>
						<stop  offset="1" style="stop-color:#000000"/>
					</linearGradient>
					<path id="Path_757" class="st39" d="M117.5,255.3c-10.2,4.8-21.7,5.9-32.6,3.1C66.6,253.6,63.2,243,63.2,243s9.1-1.1,21.1,5.2
						S108.5,256.3,117.5,255.3z"/>
					<path id="Path_758" class="st30" d="M105.3,54.4c3.1,1-0.5,33.6-3.4,33.9c-2.9,0.3-4.3-7.3-3.8-18.2S102.3,53.5,105.3,54.4z"/>
				</g>
				<g id="Group_60" transform="translate(0 309.261)">
					
						<linearGradient id="Path_759_1_" gradientUnits="userSpaceOnUse" x1="-187.9981" y1="501.6947" x2="-188.1228" y2="502.903" gradientTransform="matrix(199.2812 0 0 -163.5407 37548.5391 81485.8516)">
						<stop  offset="0" style="stop-color:#CBC1F7"/>
						<stop  offset="1" style="stop-color:#E8DCF7"/>
					</linearGradient>
					<path id="Path_759" class="st40" d="M71.9,112.4C67,133,86.3,147,94.8,146.3c7.4-0.6,31.8-8.9,63.9-31.7c0,0,0.1,0,0.1,0
						c4.7-3.3,9.6-7,14.6-11c39.2-31.2,94.8-98.6,77.2-105.1c0,0-0.1,0-0.1,0C199.5-20.5,76.9,91.7,71.9,112.4z"/>
					
						<linearGradient id="Path_760_1_" gradientUnits="userSpaceOnUse" x1="-185.9659" y1="510.6056" x2="-185.9659" y2="511.4753" gradientTransform="matrix(48.0235 0 0 -43.7431 9023.6426 21786.7559)">
						<stop  offset="0" style="stop-color:#BE9DEA"/>
						<stop  offset="1" style="stop-color:#9E8CEF"/>
					</linearGradient>
					<path id="Path_760" class="st41" d="M111.2,141.5c0,0,9.3-16.2-1.6-30.3S74,107.9,74,107.9s-10.8,18,8.2,29.7
						C101.2,149.3,111.2,141.5,111.2,141.5z"/>
					
						<linearGradient id="Path_761_1_" gradientUnits="userSpaceOnUse" x1="-187.5943" y1="501.5956" x2="-187.5943" y2="502.8745" gradientTransform="matrix(195.5491 0 0 -163.536 36844.7344 81483.5078)">
						<stop  offset="0" style="stop-color:#9D68C2"/>
						<stop  offset="1" style="stop-color:#CCEDFF"/>
					</linearGradient>
					<path id="Path_761" class="st42" d="M71.9,112.4C67,133,86.3,147,94.8,146.3c7.4-0.6,31.8-8.9,63.9-31.7
						c-2.9,1.8-24.2,14.6-33.2,9.3c-9.7-5.8-12.4-44,40.2-89.5c50.9-44.1,82.9-36.5,84.9-36C199.5-20.5,76.9,91.7,71.9,112.4z"/>
					
						<linearGradient id="Path_762_1_" gradientUnits="userSpaceOnUse" x1="-187.8224" y1="503.5581" x2="-187.9674" y2="504.6159" gradientTransform="matrix(94.1744 0 0 -102.6452 17671.6934 51205.375)">
						<stop  offset="0" style="stop-color:#CBC1F7"/>
						<stop  offset="1" style="stop-color:#E8DCF7"/>
					</linearGradient>
					<path id="Path_762" class="st43" d="M102.1,117.8c-6.8-7-23.3-8.1-31.6-4.2s-35.6,24.8-50.4,64c0,0,2.5,23.1,18.1,27.6
						c11.8,3.5,32.4-25.7,48.1-45.7S113.3,129.3,102.1,117.8z"/>
					
						<linearGradient id="Path_763_1_" gradientUnits="userSpaceOnUse" x1="-186.7804" y1="505.1796" x2="-186.7804" y2="506.4887" gradientTransform="matrix(79.48 0 0 -75.1588 14917.5859 37508.3203)">
						<stop  offset="0" style="stop-color:#BE9DEA"/>
						<stop  offset="1" style="stop-color:#9E8CEF"/>
					</linearGradient>
					<path id="Path_763" class="st44" d="M35.8,205c0,0,37.2-74.1,72.9-68.4c0,0-6.7,11.6-28.3,34.9S43.4,207.3,35.8,205z"/>
					
						<linearGradient id="Path_764_1_" gradientUnits="userSpaceOnUse" x1="-182.2361" y1="509.8871" x2="-182.2361" y2="510.7137" gradientTransform="matrix(17.7567 0 0 -46.035 3304.9353 22981.7969)">
						<stop  offset="0" style="stop-color:#8DA4E5"/>
						<stop  offset="1" style="stop-color:#755CBB"/>
					</linearGradient>
					<path id="Path_764" class="st45" d="M60.9,167.2c0,0-0.6,14.6,2.8,19.6c1.9,2.9,4.8,5,8.1,5.9l5.3-42.2
						C77.2,150.4,65.4,160,60.9,167.2z"/>
					
						<linearGradient id="Path_765_1_" gradientUnits="userSpaceOnUse" x1="-187.7506" y1="507.7755" x2="-187.924" y2="508.8324" gradientTransform="matrix(46.3744 0 0 -60.7877 8707.3965 30334.5391)">
						<stop  offset="0" style="stop-color:#CBC1F7"/>
						<stop  offset="1" style="stop-color:#E8DCF7"/>
					</linearGradient>
					<path id="Path_765" class="st46" d="M77.2,150.4c0,0,17.1-15.5,31.4-11.8c0,0,2.7,17.6-28.8,54.8c0,0-11.2,3.3-13.7-10.2
						C66.1,183.3,69.2,165,77.2,150.4z"/>
					<path id="Path_766" class="st30" d="M88.2,148.7c-3.7-2.8-10.3,18-8.1,19C82.4,168.7,91.3,151,88.2,148.7z"/>
					<path id="Path_767" class="st30" d="M203.4,58.2c4.5,8.3-9.9,14.4-13.7,13.1S200.3,52.6,203.4,58.2z"/>
					<path id="Path_768" class="st30" d="M186.7,74.4c1.4,1-4.5,6.2-5.9,7.1c-2.7,1.7-8.2,2.4-8.4,1.4
						C172.1,81.9,185.1,73.2,186.7,74.4z"/>
				</g>
				<path id="Path_769" class="st30" d="M432.7,364.7c-0.7,2.4-17-5-17-12C415.6,345.7,433.7,361.3,432.7,364.7z"/>
				<g id="Group_61" transform="translate(129.025 455.439)">
					
						<linearGradient id="Path_770_1_" gradientUnits="userSpaceOnUse" x1="-316.748" y1="354.0888" x2="-316.9223" y2="355.0347" gradientTransform="matrix(111.4659 0 0 -163.726 35314.4453 57645.2266)">
						<stop  offset="0" style="stop-color:#CBC1F7"/>
						<stop  offset="1" style="stop-color:#E8DCF7"/>
					</linearGradient>
					<path id="Path_770" class="st47" d="M11.9,132.3c2.9,2.9,8.3,2.8,15.1,0.7c7.5-2.3,16.7-7.1,26.3-13.1l0.1,0l0.1-0.1
						c26.7-16.6,56-42.2,57.6-49.7c5.4-25.9-20.8-59.2-37.4-75.6C67.1-12,62.1-15.9,60.9-15.7C56.7-15.3-2.9,117.4,11.9,132.3z"/>
					
						<linearGradient id="Path_771_1_" gradientUnits="userSpaceOnUse" x1="-315.7737" y1="354.0347" x2="-315.7737" y2="354.9916" gradientTransform="matrix(70.9239 0 0 -163.725 22437.9863 57644.8867)">
						<stop  offset="0" style="stop-color:#9D68C2"/>
						<stop  offset="1" style="stop-color:#CCEDFF"/>
					</linearGradient>
					<path id="Path_771" class="st48" d="M11.9,132.3c2.9,2.9,8.3,2.8,15.1,0.7l26.3-13.1c-2.5,1.1-30.7,12.4-21.2-28.4
						c10-42.7,42.4-93.7,42.4-93.7l-1-3.3C67.1-12,62.1-15.9,60.9-15.7C56.7-15.3-2.9,117.4,11.9,132.3z"/>
					<path id="Path_772" class="st30" d="M90.3,61.4c6.3,3.9-9.3,17.1-11.1,17.2c-1.8,0.1-0.6-7.4,2.3-12
						C84.1,62.5,88.1,60,90.3,61.4z"/>
					<path id="Path_773" class="st30" d="M76.9,80c0.9,1.5-3.9,5.6-4.6,4.1s0.5-4.1,1.5-4.7C74.8,78.9,76.1,79.1,76.9,80z"/>
				</g>
				<path id="Path_774" class="st30" d="M513.1,397.3c-0.2,2.8-19.9-6.3-19.9-9.7C493.2,384.3,513.4,392.6,513.1,397.3z"/>
				
					<linearGradient id="Path_775_1_" gradientUnits="userSpaceOnUse" x1="-187.6425" y1="803.9673" x2="-187.3664" y2="804.9619" gradientTransform="matrix(112.002 0 0 -42.0761 21501.3223 34274.5703)">
					<stop  offset="0" style="stop-color:#BE9DEA"/>
					<stop  offset="1" style="stop-color:#9E8CEF"/>
				</linearGradient>
				<path id="Path_775" class="st49" d="M552,431.7c-0.4,4.5-1.6,8.8-3.7,12.8c0,0-9.6,6.6-28.3,5.8s-57.2-20.4-62.6-24
					c-5.3-3.6-8.2-14.5-8.2-14.5L552,431.7z"/>
				
					<linearGradient id="Path_776_1_" gradientUnits="userSpaceOnUse" x1="-187.4803" y1="804.8693" x2="-187.5482" y2="805.9272" gradientTransform="matrix(114.0381 0 0 -58.9174 21883.2715 47868.7617)">
					<stop  offset="0" style="stop-color:#E8DCF7"/>
					<stop  offset="1" style="stop-color:#CBC1F7"/>
				</linearGradient>
				<path id="Path_776" class="st50" d="M450.8,391.7c9.5-3.8,33.8,1.4,48.8,6.9c14.9,5.5,39.3,22.4,52.5,33.1
					c0,0-0.3,10.2-19.8,12.6s-72-19.8-80.7-29.4C442.7,405.3,450.8,391.7,450.8,391.7z"/>
				
					<linearGradient id="Path_777_1_" gradientUnits="userSpaceOnUse" x1="-186.9664" y1="799.1915" x2="-186.7903" y2="799.886" gradientTransform="matrix(54.519 0 0 -18.7281 10681.7988 15373.4014)">
					<stop  offset="0" style="stop-color:#BE9DEA"/>
					<stop  offset="1" style="stop-color:#9E8CEF"/>
				</linearGradient>
				<path id="Path_777" class="st51" d="M518.3,408.2c0,0-33.1-4.5-50-17.2C468.3,391,496.8,389.8,518.3,408.2z"/>
				
					<linearGradient id="Path_778_1_" gradientUnits="userSpaceOnUse" x1="-187.1143" y1="799.6887" x2="-187.1538" y2="800.7465" gradientTransform="matrix(68.3091 0 0 -20.5274 13287.8135 16821.7461)">
					<stop  offset="0" style="stop-color:#CBC1F7"/>
					<stop  offset="1" style="stop-color:#E8DCF7"/>
				</linearGradient>
				<path id="Path_778" class="st52" d="M473.3,391.7c0,0,19.4,11.3,39.9,12.1c0,0,20.8,0.3,21.9-2.2c1.1-2.4,1.8-11.6-3.5-13.9
					C526.3,385.5,490.3,381.4,473.3,391.7z"/>
				
					<linearGradient id="Path_779_1_" gradientUnits="userSpaceOnUse" x1="-186.6219" y1="799.634" x2="-187.3265" y2="797.7963" gradientTransform="matrix(59.643 0 0 -16.839 11639.5537 13864.1074)">
					<stop  offset="0" style="stop-color:#BE9DEA"/>
					<stop  offset="1" style="stop-color:#9E8CEF"/>
				</linearGradient>
				<path id="Path_779" class="st53" d="M515.2,407.7c-18,1.9-35.5,7.1-51.6,15.4l-3.1-1.8C460.5,421.4,479.9,407.7,515.2,407.7z"/>
				<path id="Path_789" class="st30" d="M516.1,437c0,0-11.2-6.6-22.8-6C493.3,431.1,509,438.3,516.1,437z"/>
			</g>
		</g>
	</g>
	<g id="Group_72" transform="translate(756.174 1477.353) rotate(60)">
		<path id="Path_822" class="st54" d="M178.4,85l0,21h-0.1c-0.5,5.6-2.3,11-5.3,15.7c-0.4,0.6-0.8,1.2-1.2,1.8
			c-4.4,6.1-9.9,11.4-16.3,15.5c-0.4,0.3-0.8,0.5-1.2,0.8c-1.1,0.7-2.3,1.4-3.5,2.1c-4.1,2.4-8.4,4.4-12.8,6.2
			c-0.4,0.2-0.8,0.3-1.2,0.5c-5.3,2.1-10.7,3.8-16.3,5.1c-0.4,0.1-0.8,0.2-1.2,0.3c-5.4,1.2-10.8,2.2-16.3,2.8
			c-0.4,0-0.8,0.1-1.2,0.1c-5.4,0.6-10.8,0.9-16.3,1c-0.4,0-0.8,0-1.2,0c-5.4,0-10.9-0.3-16.3-0.8c-0.4,0-0.8-0.1-1.2-0.1
			c-5.5-0.6-10.9-1.5-16.3-2.6c-0.4-0.1-0.8-0.2-1.2-0.3c-5.5-1.2-11-2.9-16.3-4.8c-0.4-0.1-0.8-0.3-1.2-0.4
			c-5-1.9-9.8-4.2-14.5-6.8c-0.6-0.4-1.2-0.7-1.8-1.1c-0.4-0.2-0.8-0.5-1.2-0.7c-6.2-3.8-11.7-8.6-16.3-14.3c-0.4-0.5-0.8-1-1.2-1.5
			c-4-5.3-6.4-11.6-7-18.2h-0.1l0-21h5.6c0.5-0.8,1-1.6,1.6-2.3c0.4-0.5,0.8-1,1.2-1.5c1.5-2,3.2-3.8,5-5.5c2.4-2.3,5-4.4,7.7-6.3
			c2-1.5,4.2-2.9,6.6-4.2c36.7-21.2,96.3-21.2,133,0c2.3,1.4,4.5,2.8,6.6,4.2c2.7,1.9,5.3,4,7.7,6.3c2.5,2.4,4.7,5,6.7,7.8
			c0.4,0.5,0.7,1,1,1.6L178.4,85z"/>
		<g id="Group_84" transform="translate(0 20.747)">
			<path id="Path_823" class="st55" d="M84.4,29.5c24.9,0,48.3,5.6,65.9,15.7c2.3,1.3,4.5,2.7,6.5,4.2c2.7,1.9,5.2,4,7.6,6.2
				c2.4,2.3,4.6,4.9,6.5,7.6c0.3,0.5,0.7,1,1,1.5l0.3,0.5h5.1v18.7h0l-0.1,1.1c-0.5,5.4-2.3,10.6-5.2,15.2c-0.3,0.5-0.7,1.1-1.1,1.7
				c-4.3,6-9.7,11.2-16,15.2c-0.4,0.2-0.8,0.5-1.1,0.7c-1.1,0.7-2.3,1.4-3.5,2.1c-4.1,2.3-8.3,4.4-12.6,6.1
				c-0.4,0.2-0.8,0.3-1.1,0.4c-5.3,2-10.7,3.7-16.1,5c-0.4,0.1-0.7,0.2-1.1,0.3c-5.3,1.2-10.7,2.2-16.2,2.8c-0.4,0-0.7,0.1-1.1,0.1
				c-5.4,0.6-10.8,0.9-16.2,1c-0.4,0-0.8,0-1.1,0h-0.3c-5.3,0-10.7-0.3-15.9-0.8c-0.4,0-0.7-0.1-1.1-0.1c-5.4-0.6-10.8-1.4-16.2-2.6
				c-0.4-0.1-0.8-0.2-1.1-0.3c-5.5-1.2-10.9-2.8-16.1-4.8l-0.1-0.1c-0.3-0.1-0.7-0.2-1-0.4c-4.9-1.9-9.7-4.1-14.3-6.8
				c-0.6-0.4-1.2-0.7-1.8-1.1c-0.4-0.2-0.8-0.5-1.1-0.7c-6.1-3.7-11.5-8.5-16-14c-0.4-0.4-0.7-0.9-1.1-1.5
				c-3.9-5.1-6.2-11.3-6.8-17.7l-0.1-1.1h0l0-18.7h5.1l0.3-0.5c0.5-0.7,1-1.5,1.5-2.3c0.3-0.5,0.7-1,1.1-1.5
				c1.5-1.9,3.1-3.7,4.9-5.4c2.4-2.3,4.9-4.4,7.6-6.2c2-1.4,4.2-2.8,6.5-4.2C36,35.1,59.5,29.5,84.4,29.5L84.4,29.5z M84.4,28.4
				c-24.1,0-48.1,5.3-66.5,15.9c-2.3,1.4-4.5,2.8-6.6,4.2c-2.7,1.9-5.3,4-7.7,6.3c-1.8,1.7-3.5,3.6-5,5.5c-0.4,0.5-0.8,1-1.2,1.5
				c-0.6,0.8-1.1,1.5-1.6,2.3h-5.6l0,21h0.1c0.6,6.6,3.1,12.9,7,18.2c0.4,0.5,0.7,1,1.2,1.5c4.6,5.7,10.1,10.5,16.3,14.3
				c0.4,0.2,0.8,0.5,1.2,0.7c0.6,0.4,1.2,0.7,1.8,1.1c4.6,2.7,9.5,4.9,14.5,6.8c0.4,0.2,0.8,0.3,1.2,0.4c5.3,2,10.8,3.6,16.3,4.8
				c0.4,0.1,0.8,0.2,1.2,0.3c5.4,1.2,10.8,2,16.3,2.6c0.4,0,0.8,0.1,1.2,0.1c5.3,0.5,10.6,0.8,16,0.8h0.3c0.4,0,0.8,0,1.2,0
				c5.4,0,10.9-0.4,16.3-1c0.4,0,0.8-0.1,1.2-0.1c5.5-0.6,10.9-1.6,16.3-2.8c0.4-0.1,0.8-0.2,1.2-0.3c5.5-1.3,11-3,16.3-5.1
				c0.4-0.1,0.8-0.3,1.2-0.5c4.4-1.8,8.7-3.8,12.8-6.2c1.2-0.7,2.4-1.4,3.5-2.1c0.4-0.3,0.8-0.5,1.2-0.8c6.4-4.1,11.9-9.3,16.3-15.5
				c0.4-0.6,0.8-1.2,1.2-1.8c3-4.7,4.8-10.1,5.3-15.7h0.1v-21h-5.6c-0.3-0.5-0.7-1-1-1.6c-2-2.8-4.2-5.4-6.7-7.8
				c-2.4-2.3-5-4.4-7.7-6.3c-2-1.5-4.2-2.9-6.6-4.2C132.5,33.7,108.4,28.4,84.4,28.4L84.4,28.4z"/>
		</g>
		
			<ellipse id="Ellipse_21" transform="matrix(2.341061e-06 1 -1 2.341061e-06 168.7572 1.065545e-02)" class="st55" cx="84.4" cy="84.4" rx="54.3" ry="94"/>
		<g id="Group_85" transform="translate(12.944 7.472)">
			<path id="Path_824" class="st54" d="M152.2,68.1c-3-9.3-10.8-17.9-22.7-24.7c-15.5-9-36.1-13.9-58.1-13.9
				c-21.9,0-42.6,4.9-58.1,13.9C1.5,50.2-6.3,58.8-9.3,68.1c-0.9,2.8-1.4,5.8-1.4,8.8c0,9.1,4.4,17.8,12.7,25.4
				c0.4,0.3,0.8,0.7,1.2,1c3.2,2.7,6.6,5.1,10.2,7.2c1.9,1.1,4,2.2,6.1,3.2c0.4,0.2,0.8,0.4,1.2,0.5c5.3,2.4,10.7,4.3,16.3,5.8
				c0.4,0.1,0.8,0.2,1.2,0.3c5.4,1.4,10.8,2.4,16.3,3c0.4,0.1,0.8,0.1,1.2,0.1c5.3,0.6,10.7,0.9,16,0.9h0.3c0.4,0,0.8,0,1.2,0
				c5.4,0,10.9-0.4,16.3-1.1c0.4,0,0.8-0.1,1.2-0.2c5.5-0.7,10.9-1.8,16.3-3.3c0.4-0.1,0.8-0.2,1.2-0.3c5.6-1.6,11-3.6,16.3-6.1
				c0.4-0.2,0.8-0.4,1.2-0.6c1.5-0.7,3-1.5,4.4-2.4c4.3-2.4,8.3-5.3,11.9-8.7c0.4-0.4,0.8-0.7,1.2-1.1c7.2-7.1,11-15.3,11-23.8
				C153.6,73.9,153.1,71,152.2,68.1z M142.6,94.8c-0.4,0.5-0.8,1-1.2,1.5c-4.3,5-9.4,9.1-15.1,12.3c-0.4,0.2-0.8,0.4-1.2,0.7
				c-0.4,0.2-0.8,0.4-1.2,0.6c-5.2,2.7-10.6,5-16.3,6.6c-0.4,0.1-0.8,0.2-1.2,0.3c-5.3,1.6-10.8,2.7-16.3,3.5
				c-0.4,0.1-0.8,0.1-1.2,0.2c-5.4,0.7-10.8,1.1-16.3,1.2c-0.4,0-0.8,0-1.2,0c-5.4,0-10.9-0.3-16.3-1c-0.4,0-0.8-0.1-1.2-0.1
				c-5.5-0.7-10.9-1.8-16.3-3.2c-0.4-0.1-0.8-0.2-1.2-0.3c-5.6-1.6-11.1-3.7-16.3-6.3c-0.4-0.2-0.8-0.4-1.2-0.6
				c-1-0.5-1.9-1-2.9-1.6c-5-2.8-9.5-6.3-13.4-10.4c-0.4-0.4-0.8-0.9-1.2-1.3C-7.5,86-8.7,73.2-1.6,61.8c3.7-6,9.8-11.7,18.2-16.6
				c30.3-17.5,79.5-17.5,109.8,0c8.4,4.8,14.4,10.5,18.2,16.6C151.1,72.5,150.5,84.4,142.6,94.8L142.6,94.8z"/>
		</g>
		<g id="Group_86" transform="translate(52.235 31.493)">
			<path id="Path_825" class="st56" d="M35.1,45.2l8.9,5.1c-0.2,0.1-0.4,0.2-0.6,0.3l-4.9,2.8l-8.3-4.8l2.7-1.6
				C33.9,46.7,34.6,46,35.1,45.2z"/>
			<path id="Path_826" class="st54" d="M61.6,66.8L61.6,66.8l9.1,5.2l5.4-3.1L67,63.6c0.1-0.1,0.2-0.1,0.2-0.2
				c0.4-0.2,0.8-0.5,1.2-0.8c1.2-0.8,2.3-1.8,3.3-2.8c1.3-1.3,2.3-2.9,2.9-4.7c0.4-1.6,0.2-3.2-0.6-4.7c-1.1-1.8-2.7-3.3-4.6-4.3
				c-0.3-0.2-0.7-0.4-1-0.6c-0.4-0.2-0.8-0.4-1.2-0.6c-2.9-1.4-6.1-2.2-9.4-2.4c-2.3-0.2-4.6-0.1-6.9,0.2c-0.4,0.1-0.8,0.1-1.2,0.2
				c-1.4,0.2-2.8,0.6-4.1,1c1.4-1.8,1.6-4.2,0.6-6.3c-1.2-2.3-3.1-4.2-5.4-5.4c-1.8-1-3.8-1.8-5.8-2.4c-2.2-0.6-4.5-1-6.9-1.1
				c-2.3-0.1-4.7,0-7,0.4c-2.2,0.4-4.3,1.1-6.3,2.2l-1.7,1l-8.7-5L-1,30.6l8.7,5l-6.6,3.8l0,0l-8.7-5l-5.4,3.1l8.7,5l-9.7,5.6
				l11.5,6.7l1.2,0.7L15,64.9l1.2,0.7L32.4,75l1.2,0.7l6.4,3.7l9.7-5.6l0,0l9.1,5.2l5.4-3.1L55,70.6l0,0L61.6,66.8z M43.4,50.7
				c0.2-0.1,0.4-0.2,0.6-0.3c0.8-0.4,1.6-0.6,2.5-0.8c1.1-0.2,2.2-0.3,3.4-0.2c0.1,0,0.1,0,0.2,0c0.3,0,0.6,0,1,0.1
				c0.9,0.1,1.8,0.3,2.7,0.5c1.1,0.3,2.2,0.7,3.3,1.3c0.9,0.5,1.6,1.1,2.2,1.9c0.5,0.6,0.7,1.4,0.8,2.1c0,0.8-0.2,1.5-0.7,2.1
				c-0.3,0.4-0.7,0.8-1.2,1.2c-0.2,0.2-0.5,0.4-0.8,0.5c-0.1,0-0.2,0.1-0.2,0.1l-4.2,2.4l-0.1,0.1l-1.8,1l-1.2,0.7l-3.7,2.1
				l-4.6,2.7L27.3,60l1.5-0.9l3.1-1.8l0,0l0.5-0.3l1.2-0.7l5-2.9L43.4,50.7z M15,41.8l1.2-0.7l0.6-0.3l0,0l3.2-1.8
				c0.2-0.1,0.4-0.2,0.6-0.3c0.7-0.3,1.4-0.6,2.1-0.8c3.4-0.8,6.9-0.2,9.9,1.4c0,0,0.1,0.1,0.1,0.1c0.3,0.2,0.7,0.4,1,0.6
				c1.5,1,2.2,2.1,2.1,3.3c0,0.6-0.2,1.3-0.6,1.8c-0.4,0.6-1,1.1-1.6,1.5c-0.2,0.1-0.4,0.2-0.6,0.3l-0.6,0.3l-2.1,1.2l-6.6,3.8l0,0
				l-1.8,1L19,55.2l-1.6-0.9l-1.8-1L15,52.8l-3.3-1.9l-6.2-3.6l1.7-1l2.9-1.7l0,0L15,41.8z"/>
		</g>
		<g id="Group_98" transform="translate(10.46 81.149)">
			<g id="Group_87" transform="translate(0 3.265)">
				<path id="Path_827" class="st55" d="M-9.4,24.7l0,19c-0.4-0.5-0.8-1-1.2-1.5l0-19C-10.2,23.6-9.8,24.2-9.4,24.7z"/>
			</g>
			<g id="Group_88" transform="translate(16.328 17.917)">
				<path id="Path_828" class="st55" d="M-10.7,22.6l0,19c-0.4-0.2-0.8-0.5-1.2-0.7l0-19C-11.5,22.2-11.1,22.4-10.7,22.6z"/>
			</g>
			<g id="Group_89" transform="translate(35.325 27.33)">
				<path id="Path_829" class="st55" d="M-12.3,21.6l0,19c-0.4-0.1-0.8-0.3-1.2-0.4l0-19C-13.1,21.3-12.7,21.4-12.3,21.6z"/>
			</g>
			<g id="Group_90" transform="translate(54.329 33.062)">
				<path id="Path_830" class="st55" d="M-13.9,20.9l0,19c-0.4-0.1-0.8-0.2-1.2-0.3l0-19C-14.6,20.8-14.2,20.8-13.9,20.9z"/>
			</g>
			<g id="Group_91" transform="translate(73.326 36.21)">
				<path id="Path_831" class="st55" d="M-15.4,20.5l0,19c-0.4,0-0.8-0.1-1.2-0.1l0-19C-16.2,20.4-15.8,20.5-15.4,20.5z"/>
			</g>
			<g id="Group_92" transform="translate(92.329 37.19)">
				<path id="Path_832" class="st55" d="M-17,20.3l0,19c-0.4,0-0.8,0-1.2,0l0-19C-17.8,20.3-17.4,20.3-17,20.3z"/>
			</g>
			<g id="Group_93" transform="translate(111.327 36.003)">
				<path id="Path_833" class="st55" d="M-18.6,20.4l0,19c-0.4,0-0.8,0.1-1.2,0.1l0-19C-19.3,20.5-18.9,20.5-18.6,20.4z"/>
			</g>
			<g id="Group_94" transform="translate(130.33 32.632)">
				<path id="Path_834" class="st55" d="M-20.1,20.7l0,19c-0.4,0.1-0.8,0.2-1.2,0.3l0-19C-20.9,20.9-20.5,20.8-20.1,20.7z"/>
			</g>
			<g id="Group_95" transform="translate(149.327 26.613)">
				<path id="Path_835" class="st55" d="M-21.7,21.2l0,19c-0.4,0.2-0.8,0.3-1.2,0.5l0-19C-22.5,21.5-22.1,21.3-21.7,21.2z"/>
			</g>
			<g id="Group_96" transform="translate(168.331 16.725)">
				<path id="Path_836" class="st55" d="M-23.3,22l0,19c-0.4,0.3-0.8,0.5-1.2,0.8l0-19C-24,22.5-23.6,22.3-23.3,22z"/>
			</g>
			<g id="Group_97" transform="translate(185.178)">
				<path id="Path_837" class="st55" d="M-24.7,23.4l0,19c-0.4,0.6-0.8,1.2-1.2,1.8l0-19C-25.4,24.6-25,24-24.7,23.4z"/>
			</g>
		</g>
	</g>
</g>
</svg>
