<?xml version="1.0" encoding="utf-8"?>
<!-- Generator: Adobe Illustrator 24.0.2, SVG Export Plug-In . SVG Version: 6.00 Build 0)  -->
<svg version="1.1" id="Layer_1" xmlns="http://www.w3.org/2000/svg" xmlns:xlink="http://www.w3.org/1999/xlink" x="0px" y="0px"
	 viewBox="0 0 675.4 771.6" style="enable-background:new 0 0 675.4 771.6;" xml:space="preserve">
<style type="text/css">
	.st0{fill:#E5F6FF;}
	.st1{fill:url(#SVGID_1_);}
	.st2{fill:url(#SVGID_2_);}
	.st3{fill:url(#SVGID_3_);}
	.st4{fill:url(#SVGID_4_);}
	.st5{opacity:0.3;fill:url(#SVGID_5_);enable-background:new    ;}
	.st6{opacity:0.3;fill:url(#SVGID_6_);enable-background:new    ;}
	.st7{fill:url(#SVGID_7_);}
	.st8{fill:url(#SVGID_8_);}
	.st9{opacity:0.3;fill:url(#SVGID_9_);enable-background:new    ;}
	.st10{fill:url(#SVGID_10_);}
	.st11{fill:url(#SVGID_11_);}
	.st12{opacity:0.5;fill:url(#SVGID_12_);enable-background:new    ;}
	.st13{fill:url(#SVGID_13_);}
	.st14{fill:url(#SVGID_14_);}
	.st15{opacity:0.3;fill:url(#SVGID_15_);enable-background:new    ;}
	.st16{fill:url(#SVGID_16_);}
	.st17{fill:url(#SVGID_17_);}
	.st18{opacity:0.5;fill:url(#SVGID_18_);enable-background:new    ;}
	.st19{fill:#FFFFFF;}
	.st20{opacity:0.72;fill:url(#SVGID_19_);enable-background:new    ;}
	.st21{opacity:0.72;fill:url(#SVGID_20_);enable-background:new    ;}
	.st22{fill:url(#SVGID_21_);}
	.st23{fill:url(#SVGID_22_);}
	.st24{fill:url(#SVGID_23_);}
	.st25{fill:url(#SVGID_24_);}
	.st26{fill:url(#SVGID_25_);}
	.st27{fill:url(#SVGID_26_);}
	.st28{fill:url(#SVGID_27_);}
	.st29{fill:url(#SVGID_28_);}
	.st30{fill:url(#SVGID_29_);}
	.st31{opacity:0.5;fill:url(#SVGID_30_);enable-background:new    ;}
	.st32{opacity:0.5;fill:url(#SVGID_31_);enable-background:new    ;}
	.st33{opacity:0.2;fill:url(#SVGID_32_);enable-background:new    ;}
	.st34{opacity:0.5;fill:url(#SVGID_33_);enable-background:new    ;}
	.st35{fill:url(#SVGID_34_);}
	.st36{fill:url(#SVGID_35_);}
	.st37{fill:url(#SVGID_36_);}
	.st38{opacity:0.72;fill:url(#SVGID_37_);enable-background:new    ;}
	.st39{opacity:0.5;fill:url(#SVGID_38_);enable-background:new    ;}
	.st40{opacity:0.72;fill:url(#SVGID_39_);enable-background:new    ;}
	.st41{fill:url(#SVGID_40_);}
	.st42{fill:url(#SVGID_41_);}
	.st43{fill:#2F95CD;}
	.st44{fill:url(#SVGID_42_);}
	.st45{fill:url(#SVGID_43_);}
	.st46{fill:url(#SVGID_44_);}
	.st47{fill:url(#SVGID_45_);}
	.st48{fill:url(#SVGID_46_);}
	.st49{fill:url(#SVGID_47_);}
	.st50{fill:url(#SVGID_48_);}
	.st51{fill:url(#SVGID_49_);}
	.st52{opacity:0.5;fill:url(#SVGID_50_);enable-background:new    ;}
	.st53{fill:url(#SVGID_51_);}
	.st54{fill:url(#SVGID_52_);}
	.st55{opacity:0.3;fill:url(#SVGID_53_);enable-background:new    ;}
	.st56{opacity:0.3;fill:url(#SVGID_54_);enable-background:new    ;}
	.st57{opacity:0.3;fill:url(#SVGID_55_);enable-background:new    ;}
	.st58{opacity:0.5;fill:url(#SVGID_56_);enable-background:new    ;}
	.st59{opacity:0.5;fill:url(#SVGID_57_);enable-background:new    ;}
</style>
<g transform="translate(-59.11 -44.775)">
	<g transform="translate(59.11 44.775)">
		<path class="st0" d="M75.3,618.6c35.9,75.3,382.1,64.3,469.3,5.9c87.2-58.5-106.5-550-341-539.7C32.5,92.2-16.8,425.3,75.3,618.6z
			"/>
		<path class="st0" d="M586.4,583.9c-14.8-2.4-24.1-81.1-6.5-96.3c17.5-15.2,53.6,19.5,53.6,45.9
			C633.5,559.8,612.1,588.1,586.4,583.9z"/>
		<path class="st0" d="M166.6,63.3c3.7,11.1-32.3,34.7-44.9,25.6s-5.2-37.3,6.1-42.9S161.3,47.3,166.6,63.3z"/>
	</g>
	<g transform="translate(71.281 132.086)">
		
			<linearGradient id="SVGID_1_" gradientUnits="userSpaceOnUse" x1="-171.1314" y1="798.1649" x2="-170.9883" y2="798.991" gradientTransform="matrix(98.3672 0 0 -135.7536 17077.9277 108996.1016)">
			<stop  offset="0" style="stop-color:#CBC1F7"/>
			<stop  offset="1" style="stop-color:#E8DCF7"/>
		</linearGradient>
		<path class="st1" d="M299.2,562.6v0.1c0,2.7-0.8,54.4-11.1,75.3c-2.7,5.4-6,8.8-10.2,8.6c-14.7-0.6-48-62.6-61.2-97.7
			c-3-8.1-5-14.7-5.4-18.8c-0.3-3,0.2-4.8,1.7-4.8c3.1-0.1,6.1,0.1,9.2,0.4c0.4,0.1,0.8,0.1,1.2,0.2c36.5,4.4,71.9,33.5,75.5,36.5
			C299.1,562.5,299.2,562.6,299.2,562.6z"/>
		
			<linearGradient id="SVGID_2_" gradientUnits="userSpaceOnUse" x1="-171.0427" y1="796.6785" x2="-171.0427" y2="797.5726" gradientTransform="matrix(99.8167 0 0 -42.4278 17327.4863 34364.3984)">
			<stop  offset="0" style="stop-color:#BE9DEA"/>
			<stop  offset="1" style="stop-color:#9E8CEF"/>
		</linearGradient>
		<path class="st2" d="M299.2,562.6c-48.6,4.2-81-21.5-87.9-32.5c-1.8-2.8-1.9-4.7-0.1-4.8c3.6-0.2,7.3-0.1,10.9,0.4
			c0.4,0.1,0.8,0.1,1.2,0.2c32.2,4.9,71.6,33.6,75.5,36.5C299.1,562.5,299.2,562.6,299.2,562.6z"/>
		
			<linearGradient id="SVGID_3_" gradientUnits="userSpaceOnUse" x1="-171.2559" y1="798.1239" x2="-171.0931" y2="799.0636" gradientTransform="matrix(98.3986 0 0 -135.7588 17181.7324 109000.4219)">
			<stop  offset="0" style="stop-color:#CBC1F7"/>
			<stop  offset="1" style="stop-color:#E8DCF7"/>
		</linearGradient>
		<path class="st3" d="M387.1,530.1c-0.4,4.7-2.8,12.5-6.5,21.9c-13.8,35.5-45.7,94.1-60.1,94.7c-3.5,0.1-6.4-2.2-8.8-6.2
			c-11.9-19.4-12.5-77.9-12.5-77.9s0.1-0.1,0.3-0.2c3.7-3.1,39.1-32.3,75.7-36.6c0.3,0,0.6-0.1,1-0.1c3.1-0.3,6.1-0.5,9.2-0.4
			C386.9,525.4,387.4,527.1,387.1,530.1z"/>
		
			<linearGradient id="SVGID_4_" gradientUnits="userSpaceOnUse" x1="-171.1486" y1="796.6793" x2="-171.1486" y2="797.5735" gradientTransform="matrix(99.8212 0 0 -42.4383 17428.0742 34372.918)">
			<stop  offset="0" style="stop-color:#BE9DEA"/>
			<stop  offset="1" style="stop-color:#9E8CEF"/>
		</linearGradient>
		<path class="st4" d="M387.1,530.1c-6.8,11-39.2,36.8-87.9,32.6c0,0,0.1-0.1,0.3-0.2c4-2.9,43.5-31.8,75.7-36.6
			c0.3,0,0.6-0.1,1-0.1c3.6-0.5,7.3-0.7,10.9-0.4C388.9,525.5,388.9,527.3,387.1,530.1z"/>
		
			<linearGradient id="SVGID_5_" gradientUnits="userSpaceOnUse" x1="-171.0426" y1="798.0835" x2="-171.0426" y2="798.9776" gradientTransform="matrix(99.8157 0 0 -126.2186 17327.3164 101370.9922)">
			<stop  offset="0" style="stop-color:#9D68C2"/>
			<stop  offset="1" style="stop-color:#CCEDFF"/>
		</linearGradient>
		<path class="st5" d="M299.2,562.6v0.1c0,2.7-0.8,54.4-11.1,75.3c0,0-2.9-54.7-17.4-67.1c-14.5-12.4-53.9-22-53.9-22
			c-3-8.1-5-14.7-5.4-18.8c-1.8-2.8-1.9-4.7-0.1-4.8c3.6-0.2,7.3-0.1,10.9,0.4c0.4,0.1,0.8,0.1,1.2,0.2
			c36.5,4.4,71.9,33.5,75.5,36.5C299.1,562.5,299.2,562.6,299.2,562.6z"/>
		
			<linearGradient id="SVGID_6_" gradientUnits="userSpaceOnUse" x1="-171.1486" y1="798.0988" x2="-171.1486" y2="798.9929" gradientTransform="matrix(99.8186 0 0 -128.9817 17427.625 103580.6719)">
			<stop  offset="0" style="stop-color:#9D68C2"/>
			<stop  offset="1" style="stop-color:#CCEDFF"/>
		</linearGradient>
		<path class="st6" d="M387.1,530.1c-0.4,4.7-2.8,12.5-6.5,21.9c-6.9,1.5-43.2,9.9-56.1,32.1c-10.8,18.6-12.6,44.6-12.8,56.4
			c-11.9-19.4-12.5-77.9-12.5-77.9s0.1-0.1,0.3-0.2c3.7-3.1,39.1-32.3,75.7-36.6c0.3,0,0.6-0.1,1-0.1c3.6-0.5,7.3-0.7,10.9-0.4
			C388.9,525.5,388.9,527.3,387.1,530.1z"/>
		
			<linearGradient id="SVGID_7_" gradientUnits="userSpaceOnUse" x1="-171.6792" y1="798.114" x2="-171.5504" y2="799.0868" gradientTransform="matrix(164.403 0 0 -173.5365 28371.7344 138996.7969)">
			<stop  offset="0" style="stop-color:#CBC1F7"/>
			<stop  offset="1" style="stop-color:#E8DCF7"/>
		</linearGradient>
		<path class="st7" d="M230.3,372.6c-1.1,11.5-3.3,22.8-6.5,33.9c-3,4.2-6.2,8.2-9.6,12c-15.9,18.1-51.5,52.1-106.5,69.2
			c-1.3,0.5-2.6,0.8-4,1.3c-8.9,2.6-25.1-24-16.7-46.7c0.8-2.2,1.8-4.3,3.1-6.3c3.5-5.6,10.4-13.3,19.6-22
			c24-22.7,63.5-52.3,98.5-70h0c7.4-3.8,15.1-7.2,23-10C231.9,346.9,231.7,359.8,230.3,372.6z"/>
		
			<linearGradient id="SVGID_8_" gradientUnits="userSpaceOnUse" x1="-168.3425" y1="797.3543" x2="-168.3425" y2="798.2484" gradientTransform="matrix(41.8288 0 0 -69.9525 7139.7305 56271.9023)">
			<stop  offset="0" style="stop-color:#BE9DEA"/>
			<stop  offset="1" style="stop-color:#9E8CEF"/>
		</linearGradient>
		<path class="st8" d="M107.6,487.7c-1,1.1-2,2.2-3.2,3c-13.2,9.8-32.5,4.1-21.9-36.8c0.8-4.1,2.3-8.1,4.4-11.7
			c2.8-4.7,7.4-9.2,14.7-9.9C119.7,430.8,121.7,471.7,107.6,487.7z"/>
		
			<linearGradient id="SVGID_9_" gradientUnits="userSpaceOnUse" x1="-171.6467" y1="798.1703" x2="-171.6467" y2="799.0645" gradientTransform="matrix(170.1243 0 0 -180.0141 29356.791 144176.8594)">
			<stop  offset="0" style="stop-color:#9D68C2"/>
			<stop  offset="1" style="stop-color:#CCEDFF"/>
		</linearGradient>
		<path class="st9" d="M230.3,372.6l-16.2,45.9c-15.9,18.1-51.5,52.1-106.5,69.2c-1,1.1-2,2.2-3.2,3c-13.2,9.8-32.5,4.1-21.9-36.8
			c0.8-4.1,2.3-8.1,4.4-11.7c0.8-2.2,1.8-4.3,3.1-6.3c3.5-5.6,10.4-13.3,19.6-22c-0.7,1.2-5.4,10.6,4.6,14.2
			c10.7,3.8,67.1-9.6,91.9-36.2c24.8-26.5,24-51.3,2-48c7.4-3.8,15.1-7.2,23-10C231.9,346.9,231.7,359.8,230.3,372.6z"/>
		
			<linearGradient id="SVGID_10_" gradientUnits="userSpaceOnUse" x1="-170.7049" y1="797.8419" x2="-170.5654" y2="798.787" gradientTransform="matrix(91.025 0 0 -106.7103 15601.8926 85685.0156)">
			<stop  offset="0" style="stop-color:#CBC1F7"/>
			<stop  offset="1" style="stop-color:#E8DCF7"/>
		</linearGradient>
		<path class="st10" d="M98,448.9c-13.9-2.5-56.2,28.1-69.7,89.9c0,0,0.9,5,13.5,5.4s34.1-22.5,48.6-36
			C105,494.6,121.3,453.2,98,448.9z"/>
		
			<linearGradient id="SVGID_11_" gradientUnits="userSpaceOnUse" x1="-170.2603" y1="797.8429" x2="-170.2603" y2="798.7371" gradientTransform="matrix(76.1989 0 0 -103.4581 13049.5088 83087.5234)">
			<stop  offset="0" style="stop-color:#BE9DEA"/>
			<stop  offset="1" style="stop-color:#9E8CEF"/>
		</linearGradient>
		<path class="st11" d="M41.8,544.2c0,0,21.9-32.7,26.3-40.8c0,0,8.3-40.6,21.4-48.7c12.8-7.9,17.4,0.9,20.2,11
			C112.5,475.9,91.1,537,41.8,544.2z"/>
		
			<linearGradient id="SVGID_12_" gradientUnits="userSpaceOnUse" x1="-162.5016" y1="797.3542" x2="-162.5016" y2="798.2484" gradientTransform="matrix(18.072 0 0 -67.381 3011.876 54250.4531)">
			<stop  offset="0" style="stop-color:#8DA4E5"/>
			<stop  offset="1" style="stop-color:#755CBB"/>
		</linearGradient>
		<path class="st12" d="M67.1,510c0,0,5.3,12,11.9,13.9c0,0-5.6-39.4,4.2-60.2C74.7,477.9,69.2,493.6,67.1,510z"/>
		
			<linearGradient id="SVGID_13_" gradientUnits="userSpaceOnUse" x1="-168.1376" y1="797.5566" x2="-167.906" y2="798.4579" gradientTransform="matrix(38.8384 0 0 -79.5251 6616.8521 63952)">
			<stop  offset="0" style="stop-color:#CBC1F7"/>
			<stop  offset="1" style="stop-color:#E8DCF7"/>
		</linearGradient>
		<path class="st13" d="M88.8,457.2c0,0,13.5-9.5,20.9,8.6c-2.5,20.8-9,40.9-19,59.3c0,0-8.4,2.4-11.7-1.1
			C71.8,516.1,73.9,467.6,88.8,457.2z"/>
		<g transform="translate(198.841 297.167)">
			
				<linearGradient id="SVGID_14_" gradientUnits="userSpaceOnUse" x1="-370.8192" y1="501.2299" x2="-370.6637" y2="502.116" gradientTransform="matrix(208.0299 0 0 -291.195 77228.6328 146218.8906)">
				<stop  offset="0" style="stop-color:#CBC1F7"/>
				<stop  offset="1" style="stop-color:#E8DCF7"/>
			</linearGradient>
			<path class="st14" d="M190,200.4c-6.4,38-40.5,63.4-89.3,63.4c-42.5,0-78.5-15.8-88-50.7c-9.5-34.9-5.8-99.3,6.9-139.5
				c1.9-5.9,4.1-11.7,6.8-17.3l0-0.1c2.3-4.9,5-9.6,8-14.1c0,0,0,0,0-0.1C49.9,18.6,72.6,3.4,98.3,3.4c26.7,0,47.2,11,61.1,27.3
				c6.4,7.6,11.6,16.2,15.2,25.5c4.3,10.9,7.8,22.2,10.5,33.6c0,0.1,0,0.2,0.1,0.3C193.9,126.6,195.7,166.4,190,200.4z"/>
			
				<linearGradient id="SVGID_15_" gradientUnits="userSpaceOnUse" x1="-370.756" y1="501.1535" x2="-370.756" y2="502.0476" gradientTransform="matrix(208.0299 0 0 -232.141 77228.6328 116602.0156)">
				<stop  offset="0" style="stop-color:#9D68C2"/>
				<stop  offset="1" style="stop-color:#CCEDFF"/>
			</linearGradient>
			<path class="st15" d="M190,200.4c-6.4,38-40.5,63.4-89.3,63.4c-42.5,0-78.5-15.8-88-50.7c-9.5-34.9-5.8-99.3,6.9-139.5
				c1.9-5.9,4.1-11.7,6.8-17.3l0-0.1c0,0-25.7,85.3-5.2,139.6s116.3,53.2,148.7,17.1c30.8-34.3,16.6-115,15.1-122.7
				C193.9,126.6,195.7,166.4,190,200.4z"/>
			
				<linearGradient id="SVGID_16_" gradientUnits="userSpaceOnUse" x1="-370.6796" y1="501.0513" x2="-370.6796" y2="501.9455" gradientTransform="matrix(189.2032 0 0 -182.8345 70232.0703 91868.9844)">
				<stop  offset="0" style="stop-color:#BE9DEA"/>
				<stop  offset="1" style="stop-color:#9E8CEF"/>
			</linearGradient>
			<path class="st16" d="M14.5,177.8c7.3-51.1,48.2-85.7,93.7-81.4c49,4.6,75.4,51.4,74.7,91.6s-30.1,71.5-82.7,71.5
				S7.7,225.5,14.5,177.8z"/>
			
				<radialGradient id="SVGID_17_" cx="-370.6354" cy="501.1927" r="0.6822" gradientTransform="matrix(182.7723 0 0 -182.8345 67843.4063 91873.7188)" gradientUnits="userSpaceOnUse">
				<stop  offset="0" style="stop-color:#45FFCD"/>
				<stop  offset="1" style="stop-color:#22E0FF"/>
			</radialGradient>
			<path class="st17" d="M14.9,182c7.3-51.1,48.2-85.7,93.7-81.4c49,4.6,75.4,51.4,74.7,91.6s-30.1,71.5-82.7,71.5
				S8.1,229.8,14.9,182z"/>
			
				<linearGradient id="SVGID_18_" gradientUnits="userSpaceOnUse" x1="-370.3871" y1="499.5713" x2="-370.3871" y2="500.4655" gradientTransform="matrix(140.1837 0 0 -56.5923 52018.9297 28325.8848)">
				<stop  offset="0" style="stop-color:#8DA4E5"/>
				<stop  offset="1" style="stop-color:#755CBB"/>
			</linearGradient>
			<path class="st18" d="M159.4,30.6C149,47,91.7,56.4,58.6,53.4C29.8,50.8,34.2,43,34.4,42c0,0,0,0,0-0.1
				C49.9,18.6,72.6,3.4,98.3,3.4C125,3.4,145.4,14.4,159.4,30.6z"/>
			<path class="st19" d="M139,58.9c-2.7,0.9-2.8,22.3,0,25.8c2.8,3.5,7.3,2.4,8.7-2.7S143,57.6,139,58.9z"/>
			<path class="st19" d="M143.9,90.4c-2.2,0.5-2.5,5.9-1.4,7.7c1,1.9,4.9,1.5,5.5-0.8S146.2,89.9,143.9,90.4z"/>
			
				<linearGradient id="SVGID_19_" gradientUnits="userSpaceOnUse" x1="-370.3129" y1="498.7866" x2="-370.3129" y2="499.6808" gradientTransform="matrix(130.955 0 0 -31.6715 48596.5938 16051.9395)">
				<stop  offset="0" style="stop-color:#D4E2FF"/>
				<stop  offset="1" style="stop-color:#000000"/>
			</linearGradient>
			<path class="st20" d="M43.7,234c0,0,11.8,20.5,55.5,20.6s61.6-25.9,61.6-25.9s-20.2,13.2-49.1,5.3S54.3,221.7,43.7,234z"/>
			
				<linearGradient id="SVGID_20_" gradientUnits="userSpaceOnUse" x1="-370.9721" y1="500.6998" x2="-370.078" y2="500.6998" gradientTransform="matrix(158.9923 0 0 -75.7183 59013.8398 38052.9102)">
				<stop  offset="0" style="stop-color:#000000"/>
				<stop  offset="1" style="stop-color:#D4E2FF"/>
			</linearGradient>
			<path class="st21" d="M32.3,149.6c8.6,13.8,44.2,6.4,84.3,10.4c40.1,3.9,46.9,17,55.4,14.3s-4.9-63-64.8-67.1
				C47.3,103.1,30.2,146.2,32.3,149.6z"/>
		</g>
		
			<linearGradient id="SVGID_21_" gradientUnits="userSpaceOnUse" x1="-169.0889" y1="797.946" x2="-168.1948" y2="797.946" gradientTransform="matrix(36.92 0 0 -87.5 6597.1919 70185.2422)">
			<stop  offset="0" style="stop-color:#8879EA"/>
			<stop  offset="1" style="stop-color:#9E8CEF"/>
		</linearGradient>
		<path class="st22" d="M361.4,331.7c-1.9-2.4-4.3-4.4-6.9-5.9c0,0,11,55.5,33,78.2C387.4,404.1,377.9,351.7,361.4,331.7z"/>
		
			<linearGradient id="SVGID_22_" gradientUnits="userSpaceOnUse" x1="-170.7581" y1="797.6809" x2="-170.7581" y2="798.575" gradientTransform="matrix(74.7855 0 0 -131.213 13189.2578 104832.4297)">
			<stop  offset="0" style="stop-color:#B9ACF4"/>
			<stop  offset="1" style="stop-color:#E1D1F5"/>
		</linearGradient>
		<path class="st23" d="M385.6,70.4c0,0,21.2-18.3,47.1-21.4c0,0,7.9,3.9,17.1,32.4c9.2,28.5-7.8,84.9-7.8,84.9L385.6,70.4z"/>
		
			<linearGradient id="SVGID_23_" gradientUnits="userSpaceOnUse" x1="-168.6654" y1="796.7455" x2="-168.6654" y2="797.6396" gradientTransform="matrix(35.463 0 0 -71.3239 6408.9365 56939.7734)">
			<stop  offset="0" style="stop-color:#BE9DEA"/>
			<stop  offset="1" style="stop-color:#9E8CEF"/>
		</linearGradient>
		<path class="st24" d="M432.7,49c0,0-21,22.5-21,58.7l8.1,5.1l23.6-48.9C443.4,63.9,435.6,48.6,432.7,49z"/>
		
			<linearGradient id="SVGID_24_" gradientUnits="userSpaceOnUse" x1="-170.1716" y1="797.6681" x2="-170.1716" y2="798.5622" gradientTransform="matrix(56.0834 0 0 -128.916 9987.2188 103004.125)">
			<stop  offset="0" style="stop-color:#45FFCD"/>
			<stop  offset="1" style="stop-color:#22E0FF"/>
		</linearGradient>
		<path class="st25" d="M419,110.3c0,0-5.6-30.9,14.8-53.6c0,0,23,10.8,32.5,51c9.5,40.2-15.2,64.3-15.2,64.3L419,110.3z"/>
		<path class="st19" d="M407.2,58c-3.9,2.1-3.6,6.3,4.5,5.3c8.1-1.1,12.5-7.4,11.6-8.6S411.6,55.6,407.2,58z"/>
		
			<linearGradient id="SVGID_25_" gradientUnits="userSpaceOnUse" x1="-170.3711" y1="797.685" x2="-170.3711" y2="798.5791" gradientTransform="matrix(74.7868 0 0 -131.211 12916.1416 104835.9531)">
			<stop  offset="0" style="stop-color:#B9ACF4"/>
			<stop  offset="1" style="stop-color:#E1D1F5"/>
		</linearGradient>
		<path class="st26" d="M208.1,75c0,0-21.2-18.3-47.1-21.4c0,0-7.9,3.9-17.1,32.4s7.8,84.9,7.8,84.9L208.1,75z"/>
		
			<linearGradient id="SVGID_26_" gradientUnits="userSpaceOnUse" x1="-167.7924" y1="796.7531" x2="-167.7924" y2="797.6472" gradientTransform="matrix(35.463 0 0 -71.3241 6116.5342 56945.0273)">
			<stop  offset="0" style="stop-color:#BE9DEA"/>
			<stop  offset="1" style="stop-color:#9E8CEF"/>
		</linearGradient>
		<path class="st27" d="M161,53.6c0,0,21,22.5,21,58.7l-8.1,5.1l-23.6-48.9C150.3,68.5,158.1,53.2,161,53.6z"/>
		
			<linearGradient id="SVGID_27_" gradientUnits="userSpaceOnUse" x1="-169.5423" y1="797.6971" x2="-169.5423" y2="798.5912" gradientTransform="matrix(55.895 0 0 -131.828 9626.9023 105337.9375)">
			<stop  offset="0" style="stop-color:#45FFCD"/>
			<stop  offset="1" style="stop-color:#22E0FF"/>
		</linearGradient>
		<path class="st28" d="M174.6,114.9c0,0,5.6-30.9-14.8-53.6c0,0-23,10.8-32.5,51s17.9,66.9,17.9,66.9L174.6,114.9z"/>
		<path class="st19" d="M186.5,62.6c3.9,2.1,3.6,6.3-4.5,5.3s-12.5-7.4-11.6-8.6C171.2,58,182.1,60.2,186.5,62.6z"/>
		
			<linearGradient id="SVGID_28_" gradientUnits="userSpaceOnUse" x1="-172.2697" y1="798.3145" x2="-172.1704" y2="799.2166" gradientTransform="matrix(360.0096 0 0 -316.0026 62305.0703 252590.8281)">
			<stop  offset="0" style="stop-color:#CBC1F7"/>
			<stop  offset="1" style="stop-color:#E8DCF7"/>
		</linearGradient>
		<path class="st29" d="M148.6,270.6c32.4,74.8,275,51.5,304-10c31.7-67.2-41.2-233.2-157.5-225.5C197,41.7,106.9,174.4,148.6,270.6
			z"/>
		
			<linearGradient id="SVGID_29_" gradientUnits="userSpaceOnUse" x1="-172.1819" y1="798.2477" x2="-172.1819" y2="799.1418" gradientTransform="matrix(321.8361 0 0 -263.4229 55712.2031 210578.4844)">
			<stop  offset="0" style="stop-color:#0665BD"/>
			<stop  offset="1" style="stop-color:#1A1F77"/>
		</linearGradient>
		<path class="st30" d="M162,260c31,61.3,242.8,51.2,273.7-5.2C462,206.9,399.9,61.1,293.5,66.3C187.2,71.5,132.2,201.1,162,260z"/>
		<path class="st19" d="M329.4,49c-2.2,2.6,23.5,13.8,27,12.2C359.8,59.7,336.8,40.2,329.4,49z"/>
		
			<linearGradient id="SVGID_30_" gradientUnits="userSpaceOnUse" x1="-172.4433" y1="797.7698" x2="-171.5492" y2="797.7698" gradientTransform="matrix(232.3725 0 0 -97.1662 40270.2773 77635.1172)">
			<stop  offset="0" style="stop-color:#000000"/>
			<stop  offset="1" style="stop-color:#6A9BFF"/>
		</linearGradient>
		<path class="st31" d="M199.3,127.8c-2.4,14.6,25.2,12.9,69.5,11.5c53.2-1.8,106.6,44,137.8,11.2c5.1-5.4-45.8-76.5-107.3-74.9
			S201.5,115.1,199.3,127.8z"/>
		
			<linearGradient id="SVGID_31_" gradientUnits="userSpaceOnUse" x1="-172.1893" y1="795.4381" x2="-171.2952" y2="795.4381" gradientTransform="matrix(168.9499 0 0 -31.5186 29317.8867 25356.1289)">
			<stop  offset="0" style="stop-color:#000000"/>
			<stop  offset="1" style="stop-color:#6A9BFF"/>
		</linearGradient>
		<path class="st32" d="M226.8,280.2c-2.8,10.6,19.3,21.2,73.8,18.5c65.8-3.2,79.8-17,76.6-20.8c-1.9-2.3-21.7,10.1-75.7-1.7
			C265.7,268.3,229.7,269.1,226.8,280.2z"/>
		
			<linearGradient id="SVGID_32_" gradientUnits="userSpaceOnUse" x1="-165.7194" y1="797.23" x2="-165.7194" y2="798.1233" gradientTransform="matrix(24.6844 0 0 -86.2756 4268.7275 69042.0313)">
			<stop  offset="0" style="stop-color:#000000"/>
			<stop  offset="1" style="stop-color:#00E3FF"/>
		</linearGradient>
		<path class="st33" d="M167.9,247.3c0,0-2.3-15.3,0.4-36c2.7-20.6,8.2-33.9,11.5-32c3.3,1.9,2.8,22,4.7,41.9
			c1.5,15.5,4.5,30,4.5,30S174.8,264.8,167.9,247.3z"/>
		
			<linearGradient id="SVGID_33_" gradientUnits="userSpaceOnUse" x1="-170.5096" y1="795.7939" x2="-170.5096" y2="796.688" gradientTransform="matrix(79.0661 0 0 -40.3956 13665.4941 32442.332)">
			<stop  offset="0" style="stop-color:#8DA4E5"/>
			<stop  offset="1" style="stop-color:#755CBB"/>
		</linearGradient>
		<path class="st34" d="M172.5,295.8c0,0,3.3-3.5,20.9-13.9c11.8-6.9,24.2-15.1,25.9-18.1c2.6-7.1-50.4-2.9-50.4-2.9l-20.2,9.7
			C148.6,270.6,156.6,286.4,172.5,295.8z"/>
		
			<linearGradient id="SVGID_34_" gradientUnits="userSpaceOnUse" x1="-171.1354" y1="797.8824" x2="-170.986" y2="798.7873" gradientTransform="matrix(114.8513 0 0 -150.5398 19772.6152 120388.9297)">
			<stop  offset="0" style="stop-color:#BE9DEA"/>
			<stop  offset="1" style="stop-color:#9E8CEF"/>
		</linearGradient>
		<path class="st35" d="M131.9,139.4c0,0,13.7,8.8,4.7,29.2c0,0-63.9,34.8-60.2,72.8c3.1,31.7,91.4,16.3,91.4,16.3l3.2,10.6
			c0,0-75,14.7-100.9-3c0,0-8.8-20.9,13-58.6S131.9,139.4,131.9,139.4z"/>
		
			<linearGradient id="SVGID_35_" gradientUnits="userSpaceOnUse" x1="-170.4064" y1="795.1447" x2="-170.4064" y2="796.13" gradientTransform="matrix(75.2421 0 0 -38.935 13009.9395 31253.2266)">
			<stop  offset="0" style="stop-color:#DD1A8F"/>
			<stop  offset="1" style="stop-color:#FE117E"/>
		</linearGradient>
		<path class="st36" d="M156.6,254.7c-8,9.1,9,19.1,23.1,20.6c15.8,1.7,43.7-4.5,42.1-20.4S175.5,233.4,156.6,254.7z"/>
		
			<linearGradient id="SVGID_36_" gradientUnits="userSpaceOnUse" x1="-170.0003" y1="792.0248" x2="-170.0003" y2="792.9189" gradientTransform="matrix(63.8878 0 0 -18.2194 11047.2021 14688.249)">
			<stop  offset="0" style="stop-color:#D93DE3"/>
			<stop  offset="1" style="stop-color:#FF6DBA"/>
		</linearGradient>
		<path class="st37" d="M157.7,256.4c-0.5,2.6,55.8,3.2,57.1-6.7C216.1,239.8,161.4,236.3,157.7,256.4z"/>
		
			<linearGradient id="SVGID_37_" gradientUnits="userSpaceOnUse" x1="-168.9314" y1="795.636" x2="-168.0373" y2="795.636" gradientTransform="matrix(33.5432 0 0 -39.9255 6092.7124 31851.6563)">
			<stop  offset="0" style="stop-color:#000000"/>
			<stop  offset="1" style="stop-color:#D4E2FF"/>
		</linearGradient>
		<path class="st38" d="M452.5,74.8c0,0-7.5-9.2-17.6-6.8s-10.8,34.5-4.8,35.3c6.1,0.8,8.7-17.7,13.3-20.6s12.8-1.8,12.8-1.8
			L452.5,74.8z"/>
		
			<linearGradient id="SVGID_38_" gradientUnits="userSpaceOnUse" x1="-171.1247" y1="797.2188" x2="-171.1247" y2="798.1129" gradientTransform="matrix(97.251 0 0 -78.426 16999.2637 62832.3672)">
			<stop  offset="0" style="stop-color:#8DA4E5"/>
			<stop  offset="1" style="stop-color:#755CBB"/>
		</linearGradient>
		<path class="st39" d="M359.6,309.7c0,0-34.8-35.1-45.9-70.1l87,57.3C400.7,296.8,371.1,307.2,359.6,309.7z"/>
		
			<linearGradient id="SVGID_39_" gradientUnits="userSpaceOnUse" x1="-168.394" y1="795.9996" x2="-167.4999" y2="795.9996" gradientTransform="matrix(36.9665 0 0 -44.5554 6360.8179 35549.4453)">
			<stop  offset="0" style="stop-color:#D4E2FF"/>
			<stop  offset="1" style="stop-color:#000000"/>
		</linearGradient>
		<path class="st40" d="M135.9,88.5c0,0,3.9-4.4,12.7-3s13.9,19.5,18.4,17.7s1.2-31.1-10.7-39.7C156.3,63.4,140.9,76.6,135.9,88.5z"
			/>
		
			<linearGradient id="SVGID_40_" gradientUnits="userSpaceOnUse" x1="-167.0791" y1="795.6718" x2="-167.0791" y2="796.566" gradientTransform="matrix(32.2265 0 0 -42.5993 5489.7046 34093.0977)">
			<stop  offset="0" style="stop-color:#CBC1F7"/>
			<stop  offset="1" style="stop-color:#E8DCF7"/>
		</linearGradient>
		<path class="st41" d="M119.6,159.9c0,0-30.6,35.5-28.6,38S121.6,163.5,119.6,159.9z"/>
		
			<radialGradient id="SVGID_41_" cx="-163.8573" cy="791.8564" r="2.1227" gradientTransform="matrix(18.8103 0 0 -18.8076 3312.0024 15066.5156)" gradientUnits="userSpaceOnUse">
			<stop  offset="0" style="stop-color:#45FFCD"/>
			<stop  offset="1" style="stop-color:#22E0FF"/>
		</radialGradient>
		<path class="st42" d="M201.4,171.9c0,0,28.1-4.2,55.6,4.2c4.1,1.3-8.5-13.5-27.8-16.2C210,157.2,200.1,165.3,201.4,171.9z"/>
		<path class="st43" d="M268.7,231.6c4.8-14.5,23.1-13.9,26.8-0.9c4,13.9-12.1,29.8-19.3,27.3C268.9,255.5,265.2,242.3,268.7,231.6z
			"/>
		
			<linearGradient id="SVGID_42_" gradientUnits="userSpaceOnUse" x1="-171.8194" y1="798.1164" x2="-171.8194" y2="799.0105" gradientTransform="matrix(172.023 0 0 -207.0576 29946.9434 165538.2656)">
			<stop  offset="0" style="stop-color:#0665BD"/>
			<stop  offset="1" style="stop-color:#1A1F77"/>
		</linearGradient>
		<path class="st44" d="M316.8,213.5c-17.2-47.6,27.9-108.7,97.3-116.5c0,0,65.8,42.3,50.6,159.2C464.7,256.3,361.2,337,316.8,213.5
			z"/>
		
			<linearGradient id="SVGID_43_" gradientUnits="userSpaceOnUse" x1="-171.2072" y1="798.0239" x2="-170.9873" y2="798.8698" gradientTransform="matrix(85.798 0 0 -178.08 15128.1924 142365.1719)">
			<stop  offset="0" style="stop-color:#CBC1F7"/>
			<stop  offset="1" style="stop-color:#E8DCF7"/>
		</linearGradient>
		<path class="st45" d="M414.1,97c0,0,23.4,0.2,51,23.1c27.6,22.9,40.6,90.2-0.4,136.1C464.7,256.3,483,162.3,414.1,97z"/>
		
			<radialGradient id="SVGID_44_" cx="-171.0105" cy="797.4012" r="0.6599" gradientTransform="matrix(88.6196 0 0 -88.815 15552.1084 71022.4063)" gradientUnits="userSpaceOnUse">
			<stop  offset="0" style="stop-color:#45FFCD"/>
			<stop  offset="1" style="stop-color:#22E0FF"/>
		</radialGradient>
		<path class="st46" d="M356.7,198c2,21.8,66.7,19.7,77.2,0c8.4-15.8-16-67.3-41.8-63.7C366.4,138,353.9,167.4,356.7,198z"/>
		
			<linearGradient id="SVGID_45_" gradientUnits="userSpaceOnUse" x1="-172.1271" y1="798.1796" x2="-171.9215" y2="799.05" gradientTransform="matrix(223.828 0 0 -223.828 38908.6289 178950.3594)">
			<stop  offset="0" style="stop-color:#DD1A8F"/>
			<stop  offset="1" style="stop-color:#FE117E"/>
		</linearGradient>
		<path class="st47" d="M404.8,97.9c-55.3,0-100.1,44.8-100.1,100.1s44.8,100.1,100.1,100.1S504.8,253.3,504.8,198l0,0
			C504.8,142.7,460,97.9,404.8,97.9z M404.8,281.3c-46,0-83.3-37.3-83.3-83.3s37.3-83.3,83.3-83.3c46,0,83.3,37.3,83.3,83.3
			C488.1,244,450.8,281.3,404.8,281.3C404.8,281.3,404.8,281.3,404.8,281.3L404.8,281.3z"/>
		
			<linearGradient id="SVGID_46_" gradientUnits="userSpaceOnUse" x1="-172.1271" y1="798.1758" x2="-171.9215" y2="799.0463" gradientTransform="matrix(223.828 0 0 -223.828 38908.6289 178942.5313)">
			<stop  offset="0" style="stop-color:#D93DE3"/>
			<stop  offset="1" style="stop-color:#FF6DBA"/>
		</linearGradient>
		<path class="st48" d="M404.8,90.9c-55.3,0-100.1,44.8-100.1,100.1s44.8,100.1,100.1,100.1S504.8,246.3,504.8,191l0,0
			C504.8,135.7,460,90.9,404.8,90.9z M404.8,274.3c-46,0-83.3-37.3-83.3-83.3c0-46,37.3-83.3,83.3-83.3c46,0,83.3,37.3,83.3,83.3
			C488.1,237,450.8,274.3,404.8,274.3C404.8,274.3,404.8,274.3,404.8,274.3L404.8,274.3z"/>
		
			<linearGradient id="SVGID_47_" gradientUnits="userSpaceOnUse" x1="-171.8991" y1="797.6477" x2="-171.8294" y2="798.5964" gradientTransform="matrix(171.0459 0 0 -99.0976 29833.75 79450.2656)">
			<stop  offset="0" style="stop-color:#CBC1F7"/>
			<stop  offset="1" style="stop-color:#E8DCF7"/>
		</linearGradient>
		<path class="st49" d="M516.2,346.2c0,0-21.7,40.9-49.2,54.6c-27.5,13.6-69.5-2.8-83-13.6c-18.5-14.7-25.3-65.5-17.5-65.5
			c7.1,0,14,5.4,36.5,8.2h0.1c7.3,0.9,14.5,1.4,21.9,1.6c20.4,0.5,39.3-4.3,51.6-8.5c4.9-1.6,9.7-3.5,14.4-5.7
			C507.1,317.3,516.2,346.2,516.2,346.2z"/>
		
			<linearGradient id="SVGID_48_" gradientUnits="userSpaceOnUse" x1="-169.1734" y1="795.891" x2="-169.1734" y2="796.7852" gradientTransform="matrix(37.9935 0 0 -39.3227 6932.4468 31650.8789)">
			<stop  offset="0" style="stop-color:#BE9DEA"/>
			<stop  offset="1" style="stop-color:#9E8CEF"/>
		</linearGradient>
		<path class="st50" d="M488.1,319.1c0,0-2,30.1,9.6,34.2s18.5-7.1,18.5-7.1l5.8-12.2L488.1,319.1z"/>
		
			<linearGradient id="SVGID_49_" gradientUnits="userSpaceOnUse" x1="-171.3764" y1="797.5939" x2="-171.3165" y2="798.455" gradientTransform="matrix(101.149 0 0 -99.548 17829.4375 79743.1719)">
			<stop  offset="0" style="stop-color:#A242EA"/>
			<stop  offset="1" style="stop-color:#FE117E"/>
		</linearGradient>
		<path class="st51" d="M452.5,282.6c0,0,41.3,45.3,69.5,63.7c0,0,17.5-2.1,20.9-19.4l-60.3-69.6L452.5,282.6z"/>
		
			<linearGradient id="SVGID_50_" gradientUnits="userSpaceOnUse" x1="-170.9918" y1="797.4559" x2="-170.9918" y2="798.35" gradientTransform="matrix(80.163 0 0 -90.531 14197.5938 72535.1641)">
			<stop  offset="0" style="stop-color:#8DA4E5"/>
			<stop  offset="1" style="stop-color:#755CBB"/>
		</linearGradient>
		<path class="st52" d="M526.2,307.5c0,0-38.6-29.6-45.6-31.9c-3.5,4.7-6.2,9.9-8,15.4c-2.4,8.3,41.5,49.6,41.5,49.6
			s-40.9-33.1-59.5-55.9c0,0,20.6-14.7,30.2-25.1L526.2,307.5z"/>
		
			<linearGradient id="SVGID_51_" gradientUnits="userSpaceOnUse" x1="-167.5906" y1="794.2949" x2="-167.486" y2="795.147" gradientTransform="matrix(26.8961 0 0 -26.1848 4970.522 21109.4141)">
			<stop  offset="0" style="stop-color:#CBC1F7"/>
			<stop  offset="1" style="stop-color:#E8DCF7"/>
		</linearGradient>
		<path class="st53" d="M476.1,307.7c-0.5,2.4-17.4,7.1-22-1.8c-0.4-0.9-0.8-1.8-1.2-2.7c-2.6-7.7,1.1-13.8,4.6-15.5l0.1,0.1
			l0.2,0.2C460.2,290.2,476.6,305.5,476.1,307.7z"/>
		
			<linearGradient id="SVGID_52_" gradientUnits="userSpaceOnUse" x1="-169.8962" y1="797.0496" x2="-169.7406" y2="797.8918" gradientTransform="matrix(46.8379 0 0 -68.6903 8460.4131 55054.1641)">
			<stop  offset="0" style="stop-color:#CBC1F7"/>
			<stop  offset="1" style="stop-color:#E8DCF7"/>
		</linearGradient>
		<path class="st54" d="M526.2,307.5l-8.2-9.5c0,0-27.6-13.7-33.2-38.3c0,0,0,0,0-0.1c0,0,6.4-13.1,20.1-13.5
			c5.4-0.2,10.4,7,14.1,16.7h0C524.7,277.5,527.8,297.9,526.2,307.5z"/>
		
			<linearGradient id="SVGID_53_" gradientUnits="userSpaceOnUse" x1="-171.8489" y1="797.6406" x2="-171.8489" y2="798.5347" gradientTransform="matrix(171.0459 0 0 -99.0976 29833.75 79450.2656)">
			<stop  offset="0" style="stop-color:#9D68C2"/>
			<stop  offset="1" style="stop-color:#CCEDFF"/>
		</linearGradient>
		<path class="st55" d="M516.2,346.2c0,0-21.7,40.9-49.2,54.6c-27.5,13.6-69.5-2.8-83-13.6c-18.5-14.7-25.3-65.5-17.5-65.5
			c7.1,0,14,5.4,36.5,8.2c-1.4-0.1-20.5-1.4-23.9,4c-3.5,5.6,35.1,62,73.5,46.3c38.4-15.7,30.6-57.1,24.1-57.2h-0.1
			c4.9-1.6,9.7-3.5,14.4-5.7C507.1,317.3,516.2,346.2,516.2,346.2z"/>
		
			<linearGradient id="SVGID_54_" gradientUnits="userSpaceOnUse" x1="-167.355" y1="794.2347" x2="-167.355" y2="795.1288" gradientTransform="matrix(25.8983 0 0 -25.8488 4798.7295 20841.0547)">
			<stop  offset="0" style="stop-color:#9D68C2"/>
			<stop  offset="1" style="stop-color:#CCEDFF"/>
		</linearGradient>
		<path class="st56" d="M476.1,307.7c-0.5,2.4-17.4,7.1-22-1.8c-0.4-0.9-0.8-1.8-1.2-2.7c3.7,4.6,9.4,3.8,11.1-1.3
			c1.7-4.9-4.8-12.3-6.3-13.9C460.2,290.2,476.6,305.5,476.1,307.7z"/>
		
			<linearGradient id="SVGID_55_" gradientUnits="userSpaceOnUse" x1="-169.8334" y1="796.5279" x2="-169.8334" y2="797.4221" gradientTransform="matrix(46.7999 0 0 -53.472 8453.8691 42899.4844)">
			<stop  offset="0" style="stop-color:#9D68C2"/>
			<stop  offset="1" style="stop-color:#CCEDFF"/>
		</linearGradient>
		<path class="st57" d="M526.2,307.5l-8.2-9.5c0,0-27.6-13.7-33.2-38.3c0.7,1.3,14,22,28.2,23.9c10.5,1.4,6.3-19.4,6-20.8h0
			C524.7,277.5,527.8,297.9,526.2,307.5z"/>
		<path class="st19" d="M83.2,479.2c-3.2,5.2-4.5,11.3-3.8,17.3C82.8,491.4,84.1,485.2,83.2,479.2z"/>
		<path class="st19" d="M46.3,523.5c0.9-5.2,3.6-10,7.7-13.4C54,510.1,50.8,521.5,46.3,523.5z"/>
		<path class="st19" d="M130.3,406c-1.1-1.8,19.4-21.4,25.3-22.1c5.8-0.7-2,2-6.9,9.3C143.7,400.5,132.2,409.2,130.3,406z"/>
		<path class="st19" d="M161,379.7c-2.1-2.4,9.3-6.7,9.3-6.7S163.3,382.2,161,379.7z"/>
		<path class="st19" d="M404.8,344c-0.8,4.7,23.1,4.7,22.7,0S405.6,339.3,404.8,344z"/>
		<path class="st19" d="M247.8,586.1c-3.2,1.5,2.7,17.6,7.1,17.3C259.2,603.1,251.5,584.4,247.8,586.1z"/>
		
			<radialGradient id="SVGID_56_" cx="-171.8644" cy="798.445" r="0.4629" gradientTransform="matrix(179.629 0 0 -173.2619 31275.4961 138534.1406)" gradientUnits="userSpaceOnUse">
			<stop  offset="0" style="stop-color:#000000"/>
			<stop  offset="0.229" style="stop-color:#010202"/>
			<stop  offset="0.365" style="stop-color:#040A0A"/>
			<stop  offset="0.477" style="stop-color:#0A1919"/>
			<stop  offset="0.576" style="stop-color:#132D2D"/>
			<stop  offset="0.667" style="stop-color:#1E4747"/>
			<stop  offset="0.751" style="stop-color:#2C6767"/>
			<stop  offset="0.83" style="stop-color:#3C8E8E"/>
			<stop  offset="0.905" style="stop-color:#4FBABA"/>
			<stop  offset="0.975" style="stop-color:#64EBEB"/>
			<stop  offset="1" style="stop-color:#6DFFFF"/>
		</radialGradient>
		<ellipse class="st58" cx="404.7" cy="194" rx="83.2" ry="80.3"/>
		
			<linearGradient id="SVGID_57_" gradientUnits="userSpaceOnUse" x1="-172.2413" y1="797.3984" x2="-171.3472" y2="797.3984" gradientTransform="matrix(165.1025 0 0 -74.718 28768.4434 59733.6172)">
			<stop  offset="0" style="stop-color:#6A9BFF"/>
			<stop  offset="1" style="stop-color:#000000"/>
		</linearGradient>
		<path class="st59" d="M331,174.3c0.7,14.8,24.7,20.1,71.5-2.9c37.1-18.3,72.9,2.6,76-3.1c3.1-5.7-35.8-52.9-78-47.6
			C358.2,125.9,330.3,161.1,331,174.3z"/>
	</g>
</g>
</svg>
